<mxfile host="Electron" modified="2023-07-20T20:11:52.281Z" agent="Mozilla/5.0 (Windows NT 10.0; Win64; x64) AppleWebKit/537.36 (KHTML, like Gecko) draw.io/21.6.1 Chrome/112.0.5615.204 Electron/24.6.1 Safari/537.36" etag="rw31SSOlRgLMTa4-6G9a" version="21.6.1" type="device">
  <diagram id="C5RBs43oDa-KdzZeNtuy" name="Page-1">
    <mxGraphModel dx="2117" dy="1807" grid="1" gridSize="10" guides="1" tooltips="1" connect="1" arrows="1" fold="1" page="1" pageScale="1" pageWidth="827" pageHeight="1169" math="0" shadow="0">
      <root>
        <mxCell id="WIyWlLk6GJQsqaUBKTNV-0" />
        <mxCell id="WIyWlLk6GJQsqaUBKTNV-1" parent="WIyWlLk6GJQsqaUBKTNV-0" />
        <mxCell id="-7ogj3lLt3KueImvbJzr-1" value="ENFERMEIRA" style="whiteSpace=wrap;html=1;align=center;gradientColor=none;glass=0;" parent="WIyWlLk6GJQsqaUBKTNV-1" vertex="1">
          <mxGeometry x="694.0000000000002" y="210" width="100" height="40" as="geometry" />
        </mxCell>
        <mxCell id="UjdntKOgG5J3AkndgqJL-0" value="HOSPITAL" style="whiteSpace=wrap;html=1;align=center;" parent="WIyWlLk6GJQsqaUBKTNV-1" vertex="1">
          <mxGeometry x="150" y="250" width="100" height="40" as="geometry" />
        </mxCell>
        <mxCell id="UjdntKOgG5J3AkndgqJL-1" value="POSSUI" style="shape=rhombus;perimeter=rhombusPerimeter;whiteSpace=wrap;html=1;align=center;" parent="WIyWlLk6GJQsqaUBKTNV-1" vertex="1">
          <mxGeometry x="290.29" y="190" width="120" height="60" as="geometry" />
        </mxCell>
        <mxCell id="UjdntKOgG5J3AkndgqJL-2" value="ALA" style="whiteSpace=wrap;html=1;align=center;" parent="WIyWlLk6GJQsqaUBKTNV-1" vertex="1">
          <mxGeometry x="444" y="200" width="100" height="40" as="geometry" />
        </mxCell>
        <mxCell id="UjdntKOgG5J3AkndgqJL-3" value="" style="endArrow=none;html=1;rounded=0;exitX=1;exitY=0.5;exitDx=0;exitDy=0;entryX=0;entryY=0.5;entryDx=0;entryDy=0;" parent="WIyWlLk6GJQsqaUBKTNV-1" source="UjdntKOgG5J3AkndgqJL-0" target="UjdntKOgG5J3AkndgqJL-1" edge="1">
          <mxGeometry relative="1" as="geometry">
            <mxPoint x="420" y="260" as="sourcePoint" />
            <mxPoint x="580" y="260" as="targetPoint" />
          </mxGeometry>
        </mxCell>
        <mxCell id="UjdntKOgG5J3AkndgqJL-4" value="N" style="resizable=0;html=1;whiteSpace=wrap;align=right;verticalAlign=bottom;" parent="UjdntKOgG5J3AkndgqJL-3" connectable="0" vertex="1">
          <mxGeometry x="1" relative="1" as="geometry" />
        </mxCell>
        <mxCell id="UjdntKOgG5J3AkndgqJL-5" value="" style="endArrow=none;html=1;rounded=0;entryX=0;entryY=0.5;entryDx=0;entryDy=0;exitX=1;exitY=0.5;exitDx=0;exitDy=0;" parent="WIyWlLk6GJQsqaUBKTNV-1" source="UjdntKOgG5J3AkndgqJL-1" target="UjdntKOgG5J3AkndgqJL-2" edge="1">
          <mxGeometry relative="1" as="geometry">
            <mxPoint x="433.99999999999994" y="220" as="sourcePoint" />
            <mxPoint x="514" y="260" as="targetPoint" />
          </mxGeometry>
        </mxCell>
        <mxCell id="UjdntKOgG5J3AkndgqJL-6" value="1" style="resizable=0;html=1;whiteSpace=wrap;align=right;verticalAlign=bottom;" parent="UjdntKOgG5J3AkndgqJL-5" connectable="0" vertex="1">
          <mxGeometry x="1" relative="1" as="geometry" />
        </mxCell>
        <mxCell id="-7ogj3lLt3KueImvbJzr-0" value="RESPONSAVEL" style="shape=rhombus;perimeter=rhombusPerimeter;whiteSpace=wrap;html=1;align=center;" parent="WIyWlLk6GJQsqaUBKTNV-1" vertex="1">
          <mxGeometry x="564" y="120" width="120" height="60" as="geometry" />
        </mxCell>
        <mxCell id="-7ogj3lLt3KueImvbJzr-2" value="" style="endArrow=none;html=1;rounded=0;entryX=0;entryY=0.5;entryDx=0;entryDy=0;exitX=1;exitY=0;exitDx=0;exitDy=0;" parent="WIyWlLk6GJQsqaUBKTNV-1" source="UjdntKOgG5J3AkndgqJL-2" target="-7ogj3lLt3KueImvbJzr-0" edge="1">
          <mxGeometry relative="1" as="geometry">
            <mxPoint x="574" y="120" as="sourcePoint" />
            <mxPoint x="804" y="130" as="targetPoint" />
          </mxGeometry>
        </mxCell>
        <mxCell id="-7ogj3lLt3KueImvbJzr-3" value="1" style="resizable=0;html=1;whiteSpace=wrap;align=right;verticalAlign=bottom;" parent="-7ogj3lLt3KueImvbJzr-2" connectable="0" vertex="1">
          <mxGeometry x="1" relative="1" as="geometry" />
        </mxCell>
        <mxCell id="-7ogj3lLt3KueImvbJzr-4" value="" style="endArrow=none;html=1;rounded=0;exitX=1;exitY=0.5;exitDx=0;exitDy=0;entryX=0;entryY=0.5;entryDx=0;entryDy=0;" parent="WIyWlLk6GJQsqaUBKTNV-1" source="-7ogj3lLt3KueImvbJzr-0" target="-7ogj3lLt3KueImvbJzr-1" edge="1">
          <mxGeometry relative="1" as="geometry">
            <mxPoint x="814.0000000000002" y="270" as="sourcePoint" />
            <mxPoint x="994" y="270" as="targetPoint" />
          </mxGeometry>
        </mxCell>
        <mxCell id="-7ogj3lLt3KueImvbJzr-5" value="1" style="resizable=0;html=1;whiteSpace=wrap;align=right;verticalAlign=bottom;" parent="-7ogj3lLt3KueImvbJzr-4" connectable="0" vertex="1">
          <mxGeometry x="1" relative="1" as="geometry" />
        </mxCell>
        <mxCell id="-7ogj3lLt3KueImvbJzr-6" value="REPORTA" style="shape=rhombus;perimeter=rhombusPerimeter;whiteSpace=wrap;html=1;align=center;" parent="WIyWlLk6GJQsqaUBKTNV-1" vertex="1">
          <mxGeometry x="774" y="20" width="120" height="60" as="geometry" />
        </mxCell>
        <mxCell id="-7ogj3lLt3KueImvbJzr-7" value="" style="endArrow=none;html=1;rounded=0;entryX=0.75;entryY=0;entryDx=0;entryDy=0;exitX=1;exitY=0.5;exitDx=0;exitDy=0;" parent="WIyWlLk6GJQsqaUBKTNV-1" source="-7ogj3lLt3KueImvbJzr-6" target="-7ogj3lLt3KueImvbJzr-1" edge="1">
          <mxGeometry relative="1" as="geometry">
            <mxPoint x="444" y="150" as="sourcePoint" />
            <mxPoint x="604" y="150" as="targetPoint" />
          </mxGeometry>
        </mxCell>
        <mxCell id="-7ogj3lLt3KueImvbJzr-8" value="1" style="resizable=0;html=1;whiteSpace=wrap;align=right;verticalAlign=bottom;" parent="-7ogj3lLt3KueImvbJzr-7" connectable="0" vertex="1">
          <mxGeometry x="1" relative="1" as="geometry" />
        </mxCell>
        <mxCell id="-7ogj3lLt3KueImvbJzr-11" value="CHEFE" style="whiteSpace=wrap;html=1;align=center;" parent="WIyWlLk6GJQsqaUBKTNV-1" vertex="1">
          <mxGeometry x="634" y="30" width="100" height="40" as="geometry" />
        </mxCell>
        <mxCell id="-7ogj3lLt3KueImvbJzr-12" value="" style="endArrow=none;html=1;rounded=0;entryX=1;entryY=0.5;entryDx=0;entryDy=0;exitX=0;exitY=0.5;exitDx=0;exitDy=0;" parent="WIyWlLk6GJQsqaUBKTNV-1" source="-7ogj3lLt3KueImvbJzr-6" target="-7ogj3lLt3KueImvbJzr-11" edge="1">
          <mxGeometry relative="1" as="geometry">
            <mxPoint x="744" y="-20" as="sourcePoint" />
            <mxPoint x="844" y="165" as="targetPoint" />
          </mxGeometry>
        </mxCell>
        <mxCell id="-7ogj3lLt3KueImvbJzr-13" value="1" style="resizable=0;html=1;whiteSpace=wrap;align=right;verticalAlign=bottom;" parent="-7ogj3lLt3KueImvbJzr-12" connectable="0" vertex="1">
          <mxGeometry x="1" relative="1" as="geometry">
            <mxPoint x="10" as="offset" />
          </mxGeometry>
        </mxCell>
        <mxCell id="-7ogj3lLt3KueImvbJzr-14" value="" style="endArrow=none;html=1;rounded=0;entryX=0.5;entryY=0;entryDx=0;entryDy=0;exitX=0.5;exitY=1;exitDx=0;exitDy=0;" parent="WIyWlLk6GJQsqaUBKTNV-1" source="-7ogj3lLt3KueImvbJzr-11" target="-7ogj3lLt3KueImvbJzr-1" edge="1">
          <mxGeometry relative="1" as="geometry">
            <mxPoint x="374" y="201" as="sourcePoint" />
            <mxPoint x="534" y="201" as="targetPoint" />
          </mxGeometry>
        </mxCell>
        <mxCell id="-7ogj3lLt3KueImvbJzr-15" value="U" style="edgeLabel;html=1;align=center;verticalAlign=middle;resizable=0;points=[];" parent="-7ogj3lLt3KueImvbJzr-14" vertex="1" connectable="0">
          <mxGeometry x="0.0095" y="1" relative="1" as="geometry">
            <mxPoint as="offset" />
          </mxGeometry>
        </mxCell>
        <mxCell id="-7ogj3lLt3KueImvbJzr-18" value="ATENDE" style="shape=rhombus;perimeter=rhombusPerimeter;whiteSpace=wrap;html=1;align=center;" parent="WIyWlLk6GJQsqaUBKTNV-1" vertex="1">
          <mxGeometry x="564" y="270" width="120" height="60" as="geometry" />
        </mxCell>
        <mxCell id="-7ogj3lLt3KueImvbJzr-19" value="" style="endArrow=none;html=1;rounded=0;entryX=1;entryY=0.5;entryDx=0;entryDy=0;exitX=0;exitY=0.5;exitDx=0;exitDy=0;" parent="WIyWlLk6GJQsqaUBKTNV-1" source="-7ogj3lLt3KueImvbJzr-1" target="-7ogj3lLt3KueImvbJzr-18" edge="1">
          <mxGeometry relative="1" as="geometry">
            <mxPoint x="759" y="280" as="sourcePoint" />
            <mxPoint x="674" y="390" as="targetPoint" />
          </mxGeometry>
        </mxCell>
        <mxCell id="-7ogj3lLt3KueImvbJzr-20" value="1" style="resizable=0;html=1;whiteSpace=wrap;align=right;verticalAlign=bottom;" parent="-7ogj3lLt3KueImvbJzr-19" connectable="0" vertex="1">
          <mxGeometry x="1" relative="1" as="geometry" />
        </mxCell>
        <mxCell id="-7ogj3lLt3KueImvbJzr-24" value="" style="endArrow=none;html=1;rounded=0;exitX=1;exitY=1;exitDx=0;exitDy=0;entryX=0;entryY=0.5;entryDx=0;entryDy=0;" parent="WIyWlLk6GJQsqaUBKTNV-1" source="UjdntKOgG5J3AkndgqJL-2" target="-7ogj3lLt3KueImvbJzr-18" edge="1">
          <mxGeometry relative="1" as="geometry">
            <mxPoint x="594" y="190" as="sourcePoint" />
            <mxPoint x="754" y="190" as="targetPoint" />
          </mxGeometry>
        </mxCell>
        <mxCell id="-7ogj3lLt3KueImvbJzr-25" value="1" style="resizable=0;html=1;whiteSpace=wrap;align=right;verticalAlign=bottom;" parent="-7ogj3lLt3KueImvbJzr-24" connectable="0" vertex="1">
          <mxGeometry x="1" relative="1" as="geometry" />
        </mxCell>
        <mxCell id="-7ogj3lLt3KueImvbJzr-26" value="MÃ‰DICO" style="whiteSpace=wrap;html=1;align=center;" parent="WIyWlLk6GJQsqaUBKTNV-1" vertex="1">
          <mxGeometry x="284" y="480" width="100" height="40" as="geometry" />
        </mxCell>
        <mxCell id="-7ogj3lLt3KueImvbJzr-27" value="&lt;u&gt;CRM&lt;/u&gt;" style="ellipse;whiteSpace=wrap;html=1;align=center;" parent="WIyWlLk6GJQsqaUBKTNV-1" vertex="1">
          <mxGeometry x="214" y="410" width="100" height="40" as="geometry" />
        </mxCell>
        <mxCell id="-7ogj3lLt3KueImvbJzr-28" value="" style="endArrow=none;html=1;rounded=0;exitX=0.5;exitY=0;exitDx=0;exitDy=0;entryX=0.5;entryY=1;entryDx=0;entryDy=0;" parent="WIyWlLk6GJQsqaUBKTNV-1" source="-7ogj3lLt3KueImvbJzr-26" target="-7ogj3lLt3KueImvbJzr-27" edge="1">
          <mxGeometry relative="1" as="geometry">
            <mxPoint x="474" y="350" as="sourcePoint" />
            <mxPoint x="634" y="350" as="targetPoint" />
          </mxGeometry>
        </mxCell>
        <mxCell id="-7ogj3lLt3KueImvbJzr-29" value="CRE" style="ellipse;whiteSpace=wrap;html=1;align=center;fontStyle=4;" parent="WIyWlLk6GJQsqaUBKTNV-1" vertex="1">
          <mxGeometry x="794" y="170" width="100" height="40" as="geometry" />
        </mxCell>
        <mxCell id="-7ogj3lLt3KueImvbJzr-30" value="" style="endArrow=none;html=1;rounded=0;entryX=0.5;entryY=1;entryDx=0;entryDy=0;exitX=1;exitY=0.5;exitDx=0;exitDy=0;" parent="WIyWlLk6GJQsqaUBKTNV-1" source="-7ogj3lLt3KueImvbJzr-1" target="-7ogj3lLt3KueImvbJzr-29" edge="1">
          <mxGeometry relative="1" as="geometry">
            <mxPoint x="474" y="340" as="sourcePoint" />
            <mxPoint x="634" y="340" as="targetPoint" />
          </mxGeometry>
        </mxCell>
        <mxCell id="-7ogj3lLt3KueImvbJzr-32" value="ATENDE" style="shape=rhombus;perimeter=rhombusPerimeter;whiteSpace=wrap;html=1;align=center;" parent="WIyWlLk6GJQsqaUBKTNV-1" vertex="1">
          <mxGeometry x="434" y="470" width="120" height="60" as="geometry" />
        </mxCell>
        <mxCell id="-7ogj3lLt3KueImvbJzr-33" value="PACIENTE" style="whiteSpace=wrap;html=1;align=center;" parent="WIyWlLk6GJQsqaUBKTNV-1" vertex="1">
          <mxGeometry x="614" y="480" width="100" height="40" as="geometry" />
        </mxCell>
        <mxCell id="-7ogj3lLt3KueImvbJzr-34" value="TIMESTAMP" style="ellipse;whiteSpace=wrap;html=1;align=center;" parent="WIyWlLk6GJQsqaUBKTNV-1" vertex="1">
          <mxGeometry x="514" y="410" width="100" height="40" as="geometry" />
        </mxCell>
        <mxCell id="-7ogj3lLt3KueImvbJzr-35" value="" style="endArrow=none;html=1;rounded=0;entryX=0.5;entryY=1;entryDx=0;entryDy=0;exitX=1;exitY=0;exitDx=0;exitDy=0;" parent="WIyWlLk6GJQsqaUBKTNV-1" source="-7ogj3lLt3KueImvbJzr-32" target="-7ogj3lLt3KueImvbJzr-34" edge="1">
          <mxGeometry relative="1" as="geometry">
            <mxPoint x="354" y="430" as="sourcePoint" />
            <mxPoint x="534" y="430" as="targetPoint" />
          </mxGeometry>
        </mxCell>
        <mxCell id="-7ogj3lLt3KueImvbJzr-36" value="nome" style="ellipse;whiteSpace=wrap;html=1;align=center;" parent="WIyWlLk6GJQsqaUBKTNV-1" vertex="1">
          <mxGeometry x="284" y="410" width="100" height="40" as="geometry" />
        </mxCell>
        <mxCell id="-7ogj3lLt3KueImvbJzr-37" value="especialidade" style="ellipse;whiteSpace=wrap;html=1;align=center;" parent="WIyWlLk6GJQsqaUBKTNV-1" vertex="1">
          <mxGeometry x="354" y="410" width="100" height="40" as="geometry" />
        </mxCell>
        <mxCell id="-7ogj3lLt3KueImvbJzr-38" value="" style="endArrow=none;html=1;rounded=0;exitX=0.5;exitY=1;exitDx=0;exitDy=0;entryX=0.5;entryY=0;entryDx=0;entryDy=0;" parent="WIyWlLk6GJQsqaUBKTNV-1" source="-7ogj3lLt3KueImvbJzr-36" target="-7ogj3lLt3KueImvbJzr-26" edge="1">
          <mxGeometry relative="1" as="geometry">
            <mxPoint x="424" y="430" as="sourcePoint" />
            <mxPoint x="584" y="430" as="targetPoint" />
            <Array as="points" />
          </mxGeometry>
        </mxCell>
        <mxCell id="-7ogj3lLt3KueImvbJzr-39" value="" style="endArrow=none;html=1;rounded=0;exitX=0.5;exitY=1;exitDx=0;exitDy=0;entryX=0.5;entryY=0;entryDx=0;entryDy=0;" parent="WIyWlLk6GJQsqaUBKTNV-1" source="-7ogj3lLt3KueImvbJzr-37" target="-7ogj3lLt3KueImvbJzr-26" edge="1">
          <mxGeometry relative="1" as="geometry">
            <mxPoint x="444" y="400" as="sourcePoint" />
            <mxPoint x="454" y="480" as="targetPoint" />
            <Array as="points" />
          </mxGeometry>
        </mxCell>
        <mxCell id="-7ogj3lLt3KueImvbJzr-40" value="" style="endArrow=none;html=1;rounded=0;entryX=0;entryY=0.5;entryDx=0;entryDy=0;exitX=1;exitY=0.5;exitDx=0;exitDy=0;" parent="WIyWlLk6GJQsqaUBKTNV-1" source="-7ogj3lLt3KueImvbJzr-32" target="-7ogj3lLt3KueImvbJzr-33" edge="1">
          <mxGeometry relative="1" as="geometry">
            <mxPoint x="394" y="460" as="sourcePoint" />
            <mxPoint x="554" y="460" as="targetPoint" />
          </mxGeometry>
        </mxCell>
        <mxCell id="-7ogj3lLt3KueImvbJzr-41" value="M" style="resizable=0;html=1;whiteSpace=wrap;align=left;verticalAlign=bottom;" parent="-7ogj3lLt3KueImvbJzr-40" connectable="0" vertex="1">
          <mxGeometry x="-1" relative="1" as="geometry" />
        </mxCell>
        <mxCell id="-7ogj3lLt3KueImvbJzr-42" value="N" style="resizable=0;html=1;whiteSpace=wrap;align=right;verticalAlign=bottom;" parent="-7ogj3lLt3KueImvbJzr-40" connectable="0" vertex="1">
          <mxGeometry x="1" relative="1" as="geometry" />
        </mxCell>
        <mxCell id="-7ogj3lLt3KueImvbJzr-44" value="CNPJ" style="ellipse;whiteSpace=wrap;html=1;align=center;fontStyle=4;" parent="WIyWlLk6GJQsqaUBKTNV-1" vertex="1">
          <mxGeometry x="80" y="180" width="100" height="40" as="geometry" />
        </mxCell>
        <mxCell id="-7ogj3lLt3KueImvbJzr-45" value="" style="endArrow=none;html=1;rounded=0;exitX=0.5;exitY=1;exitDx=0;exitDy=0;entryX=0.5;entryY=0;entryDx=0;entryDy=0;" parent="WIyWlLk6GJQsqaUBKTNV-1" source="-7ogj3lLt3KueImvbJzr-44" target="UjdntKOgG5J3AkndgqJL-0" edge="1">
          <mxGeometry relative="1" as="geometry">
            <mxPoint x="270" y="210" as="sourcePoint" />
            <mxPoint x="430" y="210" as="targetPoint" />
          </mxGeometry>
        </mxCell>
        <mxCell id="-7ogj3lLt3KueImvbJzr-46" value="IDENTIFICADOR" style="ellipse;whiteSpace=wrap;html=1;align=center;fontStyle=4;" parent="WIyWlLk6GJQsqaUBKTNV-1" vertex="1">
          <mxGeometry x="340.29" y="100" width="100" height="40" as="geometry" />
        </mxCell>
        <mxCell id="-7ogj3lLt3KueImvbJzr-47" value="" style="endArrow=none;html=1;rounded=0;exitX=0.5;exitY=1;exitDx=0;exitDy=0;entryX=0.5;entryY=0;entryDx=0;entryDy=0;" parent="WIyWlLk6GJQsqaUBKTNV-1" target="UjdntKOgG5J3AkndgqJL-2" edge="1">
          <mxGeometry relative="1" as="geometry">
            <mxPoint x="413.99999999999994" y="140" as="sourcePoint" />
            <mxPoint x="524" y="200" as="targetPoint" />
          </mxGeometry>
        </mxCell>
        <mxCell id="-7ogj3lLt3KueImvbJzr-48" value="nome" style="ellipse;whiteSpace=wrap;html=1;align=center;" parent="WIyWlLk6GJQsqaUBKTNV-1" vertex="1">
          <mxGeometry x="864" y="170" width="100" height="40" as="geometry" />
        </mxCell>
        <mxCell id="-7ogj3lLt3KueImvbJzr-49" value="" style="endArrow=none;html=1;rounded=0;entryX=0.5;entryY=1;entryDx=0;entryDy=0;exitX=1;exitY=0.5;exitDx=0;exitDy=0;" parent="WIyWlLk6GJQsqaUBKTNV-1" source="-7ogj3lLt3KueImvbJzr-1" target="-7ogj3lLt3KueImvbJzr-48" edge="1">
          <mxGeometry relative="1" as="geometry">
            <mxPoint x="734" y="230" as="sourcePoint" />
            <mxPoint x="894" y="230" as="targetPoint" />
          </mxGeometry>
        </mxCell>
        <mxCell id="YFUkzrrLF3I-iqkjs7c8-4" value="" style="shape=image;verticalLabelPosition=bottom;labelBackgroundColor=default;verticalAlign=top;aspect=fixed;imageAspect=0;image=data:image/png,iVBORw0KGgoAAAANSUhEUgAABB0AAANdCAYAAADY+gR8AAAAAXNSR0IArs4c6QAAAARnQU1BAACxjwv8YQUAAAAJcEhZcwAADsMAAA7DAcdvqGQAAP+lSURBVHhe7J0JvBbT/8cnKS0UkkoSohLZtwpJyJY1S7YQZQmVZPf/WaJQIruEyE5ZQ3Yiu0QiOyFLIYQw/3mfznnuPHNnnv251e3zfr3m3mfOnJk5c9bv93u2Gn6AJ4QQQgghhBBCCFFilrH/hRBCCCGEEEIIIUqKjA5CCCGEEEIIIYQoCzI6CCGEEEIIIYQQoizI6CCEEEIIIYQQQoiyIKODEEIIIYQQQgghyoKMDkIIIYQQQgghhCgLMjoIIYQQQgghhBCiLMjoIIQQQgghhBBCiLIgo4MQQgghhBBCCCHKgowOQgghhBBCCCGEKAsyOgghhBBCCCGEEKIsyOgghBBCCCGEEEKIsiCjgxBCCCGEEEIIIcpCDT/A/hZCCCEK4ueff/auv/56b86cOd4JJ5zgrbHGGvaKEEIIIYRYminZSId7773X69SpU9bjsMMOs3dUDX/99Vfi8e+//1pfolQ8//zzXo0aNczRu3dv67ro+b//+79UuMaNG2ddq4bOnTun3j1r1izruuSxuKbt4sqtt96aiq8hQ4ZY1+rLySef7J1++uneJZdc4h1wwAHWtero1atXKr4nT55sXcsP7QjtyYIFC6xL7rh7//77b+uSTri9ynZE2zP6E+L8caivQQghhBBVScmMDm+99Zb38ssvZz3wV1XMnj3bq1OnTuKx7LLLek2aNPG22GIL7/zzz/d++ukne6cQQoh8CCvOKP5LC8cff3yqTZk6dap1zQ5Ggg033NDc16xZM+taQbb2K3r06dPH3rmQe+65J9YfR61atbxWrVp5O++8s3fVVVcVZDARQgghhMiVkhkdEJCWRL7//nvvjTfeMD3hLVu29N588017RQghRK6MHDnSGzx4sBnlcMstt1jXCho1auQ1bNjQa9++vXWpXvz333/ecccdZ8+yc/XVV3vTp0+3Z1ULBo9PP/3UmzRpknfiiSd666yzjvfSSy/Zq0IIIYQQpaUsRoc111zTu+uuu2KPESNGWF9VS+PGjb1HHnkk7aAn6KKLLjLhhd9//93r3r27ER6FEELkDqPGhg0b5t19991emzZtrGsFrPnw66+/mqO68sorr3hjx461Z8n8+OOP3rnnnmvPFk6FyATGmqFDh2Y89t9/f+u7MhtvvLF34YUXpg5nHKpfv765/uWXX3r77ruv991335lzIYQQQohSUrKFJDfbbLPU1Ikdd9zR9KAsajCENG3a1PxmUbMvvvjC/I7CtAqEZDe9giGyDHuN8ueff5reIQ56itZee21v3XXXNcNV42C48euvv25+Ew6Gs8Inn3zivffee0bga9eunbfaaqsZ92zwzo8++sj74IMPzDtbt25teqiy8cMPP3jvvvuu98cff3gbbLCBt9Zaa9krhUO2IR74jhVXXNEItQjGzPvffvvtjZ+jjjrKu+mmm8zvOFBCiGv+0/tJfBYLw4TpPfz444+NMYnvXW655cxIFqbQwO233+4dcsgh5ncY4hfhm/SZO3euGflC+q600krWR2bmzZvnTZs2zeQ70pX0YZg5azq88MILxs/XX3/tNW/e3PyO47PPPjNxWq9ePRMnq666qr2SzPz5870ZM2aY/E26tGjRwuS1XMMdZXFKW9KStADqmLiyNnPmTDNiCTbaaCNv+eWXN7+BfOAMoltuuaUZVs7z3n77bbPgIfG0ySabmOsO8gHllryw8sor51VGw7CmwxFHHGF+o+idddZZpk6g/BJmnrn++uubuM0FjKKkCXmI+qpt27Zmilg2yBekJ/FAfiJ/UG9Ep0DExdUvv/xi4gpDAWUpUzpSz1A/AWVn9dVXN78pT0B5wKDLd7vyAPiN+w4UYO5lHRQMGoQ5U9lhTQen8NNrzxpCVUHfvn29G264wZ4tNHATlw0aNLAulWFNlDFjxtgzz5RV8mOYXNuvJDD+HHTQQeb34YcfbvJjFNq8PfbYw5syZYo5Jw7jRqkIIYQQQhQFRodSEAiDGC/M0bNnT+u6aAmE1lSYAqHNusaz4447pvw++eST1nUh77//vh8Ib/4yyyyT8uOOQGHwL7nkEj9QJqzvCj7//POUv0BJ8x955BE/EPrT7ufo0aOH/80339i7KhMos/5JJ53k165du9K9gSLmBwKj9ZnOpEmT/EBprnQPYR4xYoQfKFfWZ36MHj3aD4TkSs898sgj/UcffTR1zjfHESjm/lZbbZV2L0eg4Pk333yz9ZUff/zxh9+/f38/UF7SnkmcjRw50j/nnHNSbrfffru9ayGBsuSfdtpp/gorrJB2Lwdpfswxx/iBUmt9VyZQTv1dd9210r3NmjXzn376aX+77bZLuQUKo72rgkAR80eNGuUHCn7a/RyBUuxPnDjR+kznzz//9AcPHuwHyk2l+wh3t27d/Ndee836zo3FLW133nnn1DNmzJhhXdM5+OCDU36iZSFQtlLXpk6d6gcKVurcHYHynoqn8ePH+6usskolPwceeKAfKIHGT64Eylvq/nPPPdcfMmRIpTLM+VlnnWXSMomZM2f6Xbt2TbuPg7x+9NFH+z///LP1mU6g2PuB4l3pPg7q6zPPPNP6XEg4rqZPn27qpfA9HMRNoLzaO9IJf++FF15oXY1RO+MRTte//vrLv+666/yWLVvG+iUeSMc4wuF/6aWXrGv56dOnT1oYOU488UR7tTJvvPFGJf+U/Sj5tF9x3HXXXan7iZsk3nvvvZS/Nm3aWFchhBBCiNJRMqNDrVq1UoILSsfQoUONsoeA+uabbxas4BZDrkLbnDlzUopGzZo105SLf/75J82gknScfPLJ9o4KwkaHRo0apfmPHu3bt/cXLFhg76wAhWO11VaLvccdhPmJJ56wdyxkwIABsX7DxxZbbGGU9XzYZ599Yp/ljrDiHqeYjh07NtYwED7ff//9re/cIP3WXnvttGdEj3C4okaHAw44IM1v3IFxh7wQZfLkyX79+vVj73FH+HrU6ICy2bFjxzT/ccfxxx9v76hg7733TvNDGQwbxmrUqOF/8MEH1nd2Fse0LaXRIc6Y4g4McX379o295o6tt97aPjU3wkp4uH6MO4499lh7Vzr33nuvv9xyy8Xe4w4MmRhGw7zyyit+nTp10vxFzzGkhgnHVZxxNHxE74VSGB0wOMT5CR/kw6+++sreUcHiYHRweYxymGQccUY5jIWuTC1KowO4PEadkckAJoQQQghRCCUxOqD0OeEm6aDHFqWkKo0PYaGtcePG/uOPP552PPDAA/6wYcNM2Jw/eiOj3HjjjeZ+RgfQS/XLL7/4X3zxhTl3ygTCWlTIDBsdOFDI6JlGUcUvRpnll18+df2KK66wdy6EuAr3GqP40ttMz/rzzz9vejndtfDokocffjjljjB58cUXmx7oTz/91B83blyaESVOmU3ipptuSt2HMnnBBRf47777rv/ZZ5/5d9xxh9+iRYvUdY6oYkp8OAUcIZv8gNGDnv533nknbURA1DCQiUMOOSR1X9OmTY2h65NPPjE9eIxCqVu3bup63LNRevDDaBJ6hxnVwHH//fenxdVVV11l71jI/Pnz/XXWWSd1HSMO+QrDwquvvpqWPu6IGh3CxiGMS4SNdCLsGO7CiuJ9991n7/JNvDt33usUN/IM8cx3Dxo0yLjlwuKatqU0OnB06NDBf+yxx4ySznfFGfRQqJ977jnz/Zdffnla/skn7GElnAPD4zXXXOO//fbbJpz9+vVLu457GPJKeBTLEUccYYwJuDMai29x1zbeeOM0o2XYIIUi74yLv/76qxl9wyiGaHxG4wpF98477zR5gLg4//zz04wn1CVhkowOvIfDGcQYAeTcOMKjxPi95pprmhEppBP5ivqWOjNsnNt3333tHRUsDkaHq6++2hiB+c0okyjhOKK+d/kPo1eUcPvFSCHuTTrivjdXo8OPP/6Y8kdeF0IIIYQoNSUxOtCb6oSWbEfv3r3tXeUnLLTlciDUx4EixxSHOBiW7+5HuA8TNTrccMMN9koFY8aMSV1HUQjDcHR3DcUyzmAzfPhwYzwJE1YQ44bmEy/hofwMpc6F8GgNpopEYZpC2E9UMcUw4q4x9SPK77//npoOQk9rLmBMcc9EQZs1a5a9UsGzzz6b8sMRpzgmDVFnBIm7jxERYZgS4a5tueWWsekTntbBETY6fPzxx8ZYhTtKx7fffmuvVIBy6e4NxwnKoHPnHcWyOKYtlNLowDSK6GgVjEzuOkfcSAyMi+46CmauoAy6+1BEo6MR4NBDD035ufLKK63rQsLXTj31VOtaAQadsCJ+7bXX2it+Kq4xOuY6mikcV4z8QhmNguHL+cHAFyb8vWGjg8MZHbL12ieVRYzb9erVM8+Iy0OLg9EBY9Upp5ySOr/tttusr4UGHzeChJFt1Be5Gh2yHXFGhVyNDuQt52+bbbaxrkIIIYQQpaMku1ewIBkrX4ePXXfd1dt888292rVrW18LYfG5CRMm2LPFi0BoNmH/66+/rMtCAmE5tThdoLR4X331lVngjCO8kGOgVNhflQmESu/oo4+2ZxXst99+9pdnFpgL8+KLL9pfnnfxxRebcEQZOHCgt88++9gzzyy6RvggECC9XXbZxfwOw6JsAwYMsGcLV1zPxueff55aaDNQdLzdd9/d/A4TKCpeIMDas8q497CQJYsLslBa+GAhRvctLAwYKOjmdybY7tTRr1+/2AX/WPyQ/egzQfo4AmE/lb7h/fOj6fPaa6/ZX57ZBSUufc4555y0hQ3DBAqyWbQR2LbOLRoXZqeddjILUQJxwoKAwOKGjksuucRs1cfCcW4hv3xYXNO21JxwwgleoPzbs4Vsu+22aQv+hcuFY88997S/PLNgZyHstttuaWnmCO84EK0/Xn75ZfOfOtQtghqGepd6wREo2vZXRf6gLuvQoYN3xRVXmMUbSYdcIK0bNWpkzyqgvmKxTqCcfPvtt+Z3KQmXRRZXJM9TFvntFsElD7FIabE89dRT3sknn1zpuOyyy6yP/DnvvPNSC16ecsopqThnMVvCDddcc42pL0hDcPVAufjtt9/MQpTuYEHShx56yNt77729Sy+91PpamO5CCCGEEKWmJEYHVlK///77047HHnvMrACPwhFWrGH8+PH2V9XBiu3sPhE+WPX/m2++8R599FFv0003Nf4I26BBg8xvByu3s70Zz0ABWGONNYyxgeOYY46xvjyz0nsSxJETMMOg8DillNXfw7zzzjv2l5cKXzbC90RX5Q8Tvvbmm2/aX8kgpDoyhSXpGkIvyi2wQwMKdtyBAu1499137a9kwn4wciWRKcysqH/zzTcbZZn0xdDg0je8i0k0fXOJk1q1aplV/+Nwu70AOzMkEU4rdhIAwsVK84Bied1115mV6slnrISPMut2TsnG4pq2pYbdE+IIG6qIvyjh62x1WAjrrbee/ZUOdYojXP6JU2dgIkxxu3ZAXN6ACy64IFWvTJ061evfv78xXlHfkHdQNP/44w9zPY5M+SD8znKkI7ukdO3a1ezug+GDHUZceQwbZjLVt7ny6quveldeeWWl47bbbrM+8odwY+QBjAxnn3229+GHH3qjRo0ybuycg0E4H9gJhLyXdGDEyMQDDzxgdvNxB3XdXnvt5T344IPWh2d2Vwkb2IQQQgghSkVJjA6ZWHHFFU0vcJiwklNVoPCzdWL4QJBHwaQXki0+XU/1jTfeaBRR+Pfff81oAYR4emdR6NhObrvttjNH3NaacST1dkNcDzmwbaIDI0kuhO/BqJJEWOFASM5G3bp17a/cnxsGZd71MhNGlJpsx7I5bAdYbLjgtNNOM1tAki8JI1tEuvTlSKLYdxebVozMQZno3r172vaY9ADfd9993tZbb22Mf9lYXNMWwmWD7SbjiBrrkkjK5+F3xPlJKp/5EB5NESbp2cSpi6NC8gZKJYouBlR+hw2ebOs6ePBgU6+xxWwcmcpL+Fo475QC8isjk5555hnzHow1jEZxZTEpHgtl1VVXNaNCogcGjmLA0N6tWzfz+6qrrjIGQUbJrbDCCt7w4cONO+Q60oF8ggEm6cilDk8Cg+DTTz9ttnUVQgghhCgHxUvTAfTKTZ482Z5VJjoEl+H9DpR6RkawZzk9NouKlVde2eyvDvQcuzA/8cQTqaHjBxxwgBlSTO8YvXEc9IqVC5QzR3hf+0yE7yFNkoRZwu7INELA4YZUA8O4nVEmynPPPWd/pYMS5Xp7EbT5HkZYZDqyTYkADASOZ5991v6qTHiqShjyrhtKjaKBYYkeY5e+4XiKEjY4JfkjT0enZTjC8Z4Ub6RfuGyF0xeYssAwaYaef/nll94jjzyS2pufNAoPv09icU1bCI8EcD3/Yag/UKKrG8Qpyi8wtSBpGkM4X0fzBiM0GNHAaAQUeEa+0NvuRm5wb3hKRpiktEZxZlqQI1eja64wogwwuDB1avr06SY/ubIYLu+lgJFqjJ6IHrRJxXL11VebdKQ8uRFoTJMJt39VBaNcMES6g+9z4cBoV2pjjhBCCCFEmJIYHS6//HIzXJQhsQgzCIr0SqLQ0XN1xBFHWJ8LCStbjDLo0aOH17t3b2/99ddPzXmtapg/zVQQoLfWzeX/+OOPzX+gZ5Dh8mFQ8soFceOgxxKDRxiMIwyRZeg0U0CA+dCMxACU3aFDh5rfYVBib7jhBvObnkp6ErPBnP62bdua3/SgDhkyxPwOgzGGXr0k3PoSv//+u9e3b1/zOwqKRT7z5pmv7tIEw1WcsjRixIi0oedhwoosIwPoNQwzceJE+6syO+ywg/21MH2iiiEKWp8+fRJ7k1k/wY2AGT16dKxhhCkJKEGAgkfPrIPpGWGjEgo66zHceeedqZEPTHfIxuKatuAUb4h7/7BhwyqVi+qCi1PSGOU4OtKDupI1Axyso+MgTljfxcGoLupd1j1hZI8jKX8Q13HTc1iXAOMWMIKCkWy54soWU9qS1mNw9S2979EpR6xV48rCkgDTQsJxTfvG2i1xZBvpUCwtW7Y0oy/cwdpFTCkDDHcHH3xw7Iiaxx9/3JTne++917oIIYQQQhRAIOwUxdy5c9O2dct2sF3aTz/9ZO5l68fodbanLBWB4J16biDwmtW8wwc7ALDFGSvx17OronOEV7B/6qmnUu5sSzdz5kzj/sknn5gV2t01jugK4eHdKwIF1bpWxsUf26JFCW8HyQrn7JbBVn+8m/C4a4GCYu/wzSr5tWvXTrvGd7KNYaC8pLZ048A9V16IrPS/0047mW0kWaE9EEzTnssR3eHgjz/+SNtiMhDCzZaEDz74oFl53+1CEAjI/uzZs+1d2WF7R/fMZZZZxryXlfR5ZqCEp665I7x7RSBop8JNOjzzzDPG/ccffzR5ZPnQlqZxq+537do1dZ30Of30002+uvTSS/0NNtggdc0d4d0rYPTo0alrhJ1tNtnyk60VAyUydY3tVsNbKpL/CPfaa6/tn3vuuf4999xjtnN97rnn/BNOOCF1X6Bc2Dsys7imLd/JDgzuuWxDyG4SPDscP+7ItHtF0o4G7dq1S/n5888/rWsFuLnr+M2VbLs5ANuJOj/RtIrGKe9mi1/y5VlnneWvtNJKqWuBImnvWkivXr1Mmh144IEmL7FNJvmDbS7JM+6+9957z96RHlcc5Lljjz3W5AHyQjiv16hRw2zfGSbb926//fap64SXnWHI/6+99pr14aftxnHllVeabUApo4Q/Wp6oX8PkktblILp7RRjyjovv559/3rpW0MLuNEQ9EyXcflE3Uc4zHWyTG4Z84u5P2r2C9sD5oZyHoa2jTnLXo+kthBBCCJErRRsdEKQaN26cEkwyHQjJYaGMrdHCQg0HW7KVirDQluux6aabpm2PybZmGAzCfurUqZP6HVYKymF0YI/6bt26pZ4TdyC4sv1iGBTfbMYglNN8QbCNKqDhY+utt079jiqmMHXqVL9NmzZp90QPhHT85QrbIKKwxT2LAwWJLS3deXTLTAT2sP+wwYY0ccpdnNHhiy++iDUuuANDRPh7o0YHGDhwYGrrzLgDhQRDRJgTTzwx1m/4aNKkiVHac2VxTFvAgBP3LI5atWr5G220Ueq8OhkdgOvhOibuQJnHSOb4/vvvjcEgzm/4GDRokL1jIeG4Wm+99dL8hg+ejdEnSrbvDRtww8dBBx1kffjG6BduE/jtvoXfa665ZurakmB0AIxsH374oT1Lxxkd6tevb10qyLf9irYfuRgd2Mq2VatWKX+PPvqoveKbrW+dO0fcVsNCCCGEELlQ9PQKFvdi2CuLLzIcNrw4noOhsmztyFBet/0fMBWA+fSBMGnOWRAvvP1jVcDwYHYXcCt5M484vOgjYWOLz9NPP92s+wCBEmLmRTMlhAXPykmDBg3MEFeGt3bq1Clt7i1rUDC1gtXpGcobhnn9DJVnhwO3zRxwD/PpWacibrh6NthSjWH9DP12w6WJI4bn87xAMDVuSTBFgDn4rDVAfgkvREfY2NaQOej5zBUPFGUzrYe5yltttVUqDzKknKkmpBHTHJJgizumN7g4ZBg7eZPtKll/ILxtZhR2MmHqBlMSAoU0taAi0xv22GMP8y2ZdqYAFpZj+gJxGp4+QbodeuihZkpCoDRY14Uw7YI54126dDHlK4wrb+TlQMm3rtlZHNMWmLrCNBd2TQgUUOPGs5nSRT6m7FZXWG+DBU7ZepV6yn0/CweS12+99Vazlkl4WhBxTX4iz7PWRnjnCxbQZToVZSW8VWIU6vNrr73WW3fddVOLHTINh+k7rE9AvZMvbvrdOqFFGgmb214SyM8sasi0KcoS6yGQB0l71tcJTzlbUqBMJ+2csqihrhw3blyqDT7yyCNTayttF7TtpANQt9E+CyGEEEIUQg0sD/Z3yWCuMXPlUQwQMLOtrM38XtZ/YFuwxZ25c+ea+bfOALEoYO0A4jaf+dTMtWcxORSSUkJaYwgJKzb5wuKNfE9YcSoG0oc4Qvl2wnSuMK+Z/JjJ0JAJ1m/46aefKhkC8oGF3VAG8lmRHkMYacHicCiWpWBxTFvmn7NeAUY/pwwvTbBOCOkS3sYzF4gzlPhM5R8D5dixY81vFpjEyAnUG9Qfpaw7eB7lLFM6ktaUY/zkW45F6XB16dJY3oQQQghRGspidBBCCLFkkWR0EEIIIYQQohjUfSSEEEIIIYQQQoiyIKODEEIIIYQQQgghyoKmVwghhPAmTZrkTZ8+3fw+4IADCl7XRAghhBBCiDAyOgghhBBCCCGEEKIsaHqFEEIIIYQQQgghyoKMDkIIIYQQQgghhCgLMjoIIYQQQgghhBCiLMjoIIQQQgghhBBCiLIgo4MQQgghhBBCCCHKgowOQgghhBBCCCGEKAsyOgghhBBCCCGEEKIsyOgghBBCCCGEEEKIsiCjgxBCCCGEEEIIIcqCjA5CCCGEEEIIIYQoCzI6CCGEEEIIIYQQoizI6CCEEEIIIYQQQoiyIKODEEIIIYQQQgghyoKMDkIIIYQQQgghhCgLMjoIIYQQQgghhBCiLMjoIIQQQgghhBBCiLIgo4MQQgghhBBCCCHKgowOQgghhBBCCCGEKAsyOgghhBBCCCGEEKIsyOgghBBCCCGEEEKIsiCjgxBCCCGEEEIIIcqCjA5CCCGEEEIIIYQoCzI6CCGEEEIIIYQQoizI6CCEEEIIIYQQQoiyIKODEEIIIYQQQgghyoKMDkIIIYQQQgghhCgLMjoIIYQQQgghhBCiLMjoIIQQQgghhBBCiLIgo4MQQgghhBBCCCHKQrU1Ovz111+xh+/71kfp+f33371PP/3U++qrr7y///7buhbO5MmTvRo1ang33XSTdam+7LHHHl67du28X3/91bpUDUtTHJebp556yltttdW8q666yrpUHe+8847XtWtXr0+fPqYcFsqi/IZyMWTIEJPHP/nkE+sihBBCCCFE1VEtjQ6//PKLV6dOndjjscces75Kww8//OCdccYZXtu2bb3ll1/ea9WqlbfGGmt4devW9Tp16uRde+213oIFC6xvEcc///zjTZkyxfvggw+8OXPmWFexpPH+++973377rffGG29Yl6rh2Wef9bbddltvpZVW8kaMGOHVr1/fXsmfRfUNQgghhBBCVFc0vaIIbr31Vm/NNdf0hg4d6jVo0MD0sl5zzTXepZde6h144IFGeTn++OO9Nm3aeG+//ba9S0RZdtlljbI3c+ZME59RLrroIu+www6zZ2Jx5eSTT/Zef/1178Ybb7Qu5ef+++/3unfvbnrz77vvPmP4K4ZF8Q1CCCGEEEJUZ6ql0YFRBhgC3LH++uvbK6Xjsssu84444ghvlVVW8Z544gnvtdde866//nrvuOOO8wYNGuTdcccd3scff+xdcskl3jfffON17NjRe/XVV+3dIkqTJk28ddZZx56lwxSIUo9QEeVh880392rVqmXPyk/nzp29WbNmeSeddJJ1KZ6q/gYhhBBCCCGqM9XS6FC7dm3vtNNOSx2MNCglzz//vHfqqacaY8b06dO9nXfe2V5JZ5llljH+XnnlFe/ff//19tprL2/evHn2amH8999/3nfffef99ttv1iU/mA5CWPKBKQ8//vijPYuH9TL+/PNPe7YQzhntkQvcP3/+fHu2EM6Zn+/Cy293ZJuywhSbn3/+2Z6VFtYFIQykRRjiFvdCKFe6hMmWb3h/3HdFwU/cmiUuXnL5DqbU4DeXNVbi8oZj5ZVX9v7444+c3hmXR1lDhPsd+XzD7NmzKz0vG/mmWSYKeX8miB+emQ+kI0ZVTSETQgghhBBJaHpFAZxyyilezZo1vdtuuy2n+eObbLKJ93//939GoB82bJh1zY/PPvvMO+igg8zw8WbNmnkrrLCCt/rqq5vnIfhnglEY3bp1M6MyVl11Va9evXomTJdffnmi0sdUh4MPPti8p1GjRl7jxo3Nu7fZZhvv9ttvr6Rk7Lbbbt5mm21mfj/yyCPe1ltvbUacsCgfz2DO/ZNPPmmux8H90ZEOG2ywgXknI0lQ1vjtjv79+1tfFTAagsUE+cYVV1zRzPHn6Nu3b8kUPXj55ZdNGMaPH28MG/369TPv4b24s64HbtkWxayKdHnmmWfMaIDlllsulW9437777us999xz1tdC3PSESZMmWZd48HPMMcfYswpcvNxyyy3WJRkMcfgdPny4dYkHpZo81Lt3b+vieT/99JM3YMAAs/Ao67Rwne/bcMMNvYceesj6qozLo8Qt711rrbW8hg0beg8//LD1kfkbKGejRo3ytthiCxOPTZs2NXm8RYsW5nlJine+aZZEoe/PBEZTpoIxrYln8UzyIfnyvffes77SIf6YfsI6Nhh4mzdvbuKfcJDvP/roI+tTCCGEEEIIGR3yhsUO33zzTaN0oSDmyumnn26MBBgq8oX1IFCopk2bZgweY8eONcYGlEieu/fee1uflTnrrLOMAYBdNVhf4t577zVrTrDY5cCBA82177//3vpeyOeff+516NDBLNB35plnGkXuwQcf9C688ELTA8xzGEkQx8UXX2zm2KOEozyjyDLag558FJk4ZTUJ1sfg/k033dQoafx2B+tnhOnVq5e3++67G8ULI8Pdd99tFEdGl6Ag8Z2l7BUGeng32mgj76677vKOPvpoM6XmhhtuMMokC4iut956iQsSVkW6oEzvuOOOZnTNlVde6T3++OMmXpiKQB7mGYsKjFCkK+HKNKqAdVMwODFlCd59911jLCBteQZ57IEHHjDlgREKpHe2nUhIK/IkaXfeeeeljGWZYBQAI5swdvH+c845x7yXdMbIRPiYbhWlmLIUptD3Z2LMmDFe+/btTf2CEYpz8gfrWmAUIn2o76LwLsof+Zv6DKPgzTff7O2zzz4mvfgthBBCCCFECn8pIBCo6TY2xyOPPGJdCyNQhM1zAgXOuuROoHCbewNFxLpk5qWXXkqF+9hjj/UDhdpeWch///3nH3bYYeZ6oIBY1wrGjx9vruFn/vz51rWCCRMm+Msuu6y/9957W5eFBEqFue+jjz6yLunMmjXL/qpghx128OvUqeMvs8wy/rhx46xrBYHC7/fu3ds8N1AKrWsF3L/aaqvZs3R22203f+WVV7Zn8UyaNMkPlGx7lk6gBJn3XnzxxdalAhfHo0ePti7ZcffUq1fP32abbfzvv//eXqlgypQpfqNGjfx11lmnUtxXVbpsvvnm/tprr23iPso///zjz549254t5K677jLPz5a38XP44YfbswryjUvyCf7vuece61KZNm3a+Ntuu609W5jnhwwZ4v/444/WpQLisnXr1n6DBg1i45U8Vrt2bb9hw4b+yy+/bF3TyfQNN9xwg//+++/bs3RcOQyUdeuykELKUhKFvB8uvPBCc+3jjz+2Lgvh3ZdffnmlegU++OADE1c77bSTdVnIvHnz/Bo1avg9e/a0Lun88ssv/u+//27PhBBCCCGE8H2NdMiTr7/+2vyntzFf6JEEFr7LB941cuRIs8tDGPbep6eXtSPCQ8SBXlR6/HknPf0MQ49CrzAjJwIl1/SCO7766iszbJrh0nEwnD0ORhLQc8tQ8igMv3a9/wyND5RCe6U00KO/xx572LN06AFm7j9D50sJ8c/oBobLR9lqq628K664wiwmSho5qjJd8O+mHkRhehBTOhYlBxxwgAlf0hSLiRMneh9++GFqlAMQ54wYYJpCFOKSURxMa5kxY4Z1TYe1KM4//3wz+iBfGKXDlI44WDsG2Po1TKFlKY5C3p8J3s3IiWi9AkydoDxFn8fonqDdSNVlUdjFh+kZQgghhBBCOGR0KBAE73xx96A45QNz0eMUR0D5Ykh+dBg05wzPR8FNuhcYSg3M/XcwPQDljHtZfDAfMCgkwY4AJ5xwglEKk+aLlwvWi2BufSlhWkuSMgmHHHKISZ8XXnjBulRturBjCjt/YPwodOHRcoKyi5GAXV3idnZhhxiUW6br5IpbFyRTWvfs2dP+Kh3uvRhJwhRTlvIh6f3FwDOZmsPUKMe6665r8jQ79Tz66KNZ15MRQgghhBBCRoc8QcEH5uLnC73ewNoO+UCvYybosQwrBvDOO++Y/6wFkQnWhWAUgPMPjFZAYWbtCK6vvfbaZs2E0aNHm57bJFhUE7+ZYB49TJ061fwvJSj0rIfASIEtt9zSzNV3x/vvvx+740IxbLzxxvZXMsR/+FurMl0YWUJ805vNgomsQXLiiSea9SOK3UWlVKCM0zM+YsQI67IQjFIYXDBiRY10rNvBKBG+ffvtt09LZ74PktKaBRjjRqbkCiNPCDPrk7C1pnsvBh6IvrfQspREvu/PBotysr4Ei0nyDPc8DsIM4WeSFozA4T8jIRjZQBqcffbZZgHSbDufCCGEEEKIpQ8ZHfJkhx12MP9ZxC0f6BFkuDhTJTL1jsfBqvLZiI68YMoFZFqkz4Efhts7uJdV9VHi6W1msTnCzvBuVrlH6Ykb6YHCkW0EiOsZDb+vFNDzykJ7jCpAoT/yyCPNYnfuaNKkifVZOnJRsPjeaNxCVaQL38wigexSccYZZ5gdPVgs0E1rQPENk8sInPD2kqWAMKGE33///ampS8D3cY10DIOxhO/GkMLIGUZBhNN51113tT7jwehQKEwb4vmMWGBHEOLdvZfFKeMotCzFUcj7M/HWW295LVu29K677jpTJzECxD2PI8moxugNDCYs6MquIoxcGjp0qNk6mPqNXVmEEEIIIYRIEQi81Z5SLiQJW2+9tVkw8dVXX7Uu2Tn77LPN+y+44ALrkp1cF+br2LGjWTAwDAvOcW/c4olhAuXB+Dv99NOtSzIsRBcoPsb/1VdfbV0XwiJ9uM+cOdO6xHPFFVcYf2+88YZ1WUgxC0mycB2L3u25557WpTJxcQTFLCSZtJhemEBxNuF3VHW6RPn333/NYoObbrqp8T9t2jR7xfefffZZ4zZmzBjrUplAUTV+SrGQpIM8U6NGDf/UU0815yxwSXoOHjzYnIc566yzzDsIRxxPPfWUuR4o+talgkx5zJH0DU8//bRxZ+HFOFiYk+tHHXWUdclMPmkGxbw/aSHJTp06+auvvrr/66+/Wpd0zjzzTHPf119/bV2S+eOPP/z77rvPb9y4sTmEEEIIIYRwLPUjHdxwZYac54pb+C5QvHLa7o756mwlybQKhv9XBUzJYP98tp3M1DtN7yvstNNO5n8mmF/PdoQsjPfiiy9a13QuueQS+6sybPs3atQoM21ggw02sK7ZobffjZCIg2krDAFn7Ys4GJHw7bff2rPSMX78eO+zzz6zZ5VhVMHPP//sdenSxbosunRx0PPOdpzu+WyN6HDTeOLWV3Dcc8899lfpYO0Atjtlu1Hi5KqrrjJp5ta1CMO0CxbATNqutpApC7ng1iBJGkmR73vzSTMo9fuBZzKlImn0Rz7PZDTWfvvtZ+pSpnqVev0UIYQQQgix5LJUGx1QVp2yw5DzXFd+R1BncT4WbUNRY9/9OFCU/+///s8MR2ZlfXaYqKqV3VEuGT6P4oBxJG4OP8O+MQIcdNBBqWkjwI4MSWsufP7550bBj9u9g4UBUaSYbx/l999/94466igT51deeWXGRRSjMAydIdxffPGFdUmHefJMDXjppZesSzr/+9//MhoHCgXFmLiL242EKQ3sQMFuHWHluSrThV0zZs+ebc/ScQsOhv03bdrUrIVBGr755pvWtQLWWOCZuUzDyBd2qMCAxzQZ1qJwU0CioKyzEOcnn3xiXSogTs855xx7Vlp4L8TtgEK8Mx0hjkLLUpRC358Jnkk6c3+Up59+2hs3bpw9q4A1ICi/GBDjIF9RD4TXrWGKj4wQQgghhBBLMXbEQ7UmaXrFpEmTUu4ccUOyM3H33Xf7DRo0MPeuv/76/qGHHuqPGDHCP//88/29997bDOXmWtu2bRP3189ErsPVk6YOAMP4AyXADKPu37+/GTrPcOsuXbqYZ3fu3NkPFAnr2/cDZcJfddVVzbWuXbuaIe+33nqrf8stt5jfq6yyit+sWTMz/D9MoByb7+X7uXebbbYx8XDzzTf7AwcO9Fu2bGncTzrpJHtHOu7+OJgOwL0bbrihf9ttt5l0In7Dw8J5Ln4OO+ww//HHHzfTNx544AF/jz32MM/dbLPNSj694qKLLvIDxc3kgWOPPda/4YYb/OHDh6fy25prrum/88479q50yp0uTD9gykKdOnX8/fff36TFnXfeacJ4xBFH+LVq1TLvWrBggfHvYLoF9xA2/I0aNcofNmyYv88++5h3n3feeeZ7Szm9wrHxxhub9/KMpOkTn332mZmyssYaa/jXXnutyRvPP/+8iU/ihyk23F/q6RWBYu5vueWWft26df1zzjnHf+6558z0qptuuslv3769v+OOO5pr4ekNhZalOAp5vyNpesX48eONO/XHPffcY8rME0884Z9wwgl+vXr1zLQgroenV4wcOdK4Ee4jjzzSv+yyy0w9SD7ZaaedzDWmwDg+/fRT48bzkqZxCCGEEEKI6s1SbXRAKejQoYNxb9eunf/LL7/YK7kzd+5cs07DJptsknoHB3PSUQRQMphHXwilMDrA1KlT/b322stv3ry5eV79+vXNd1933XXWRzrffPONURzw06hRo9Q3NW3a1CgkX3zxhfVZQVihw5iz/fbbm3UvuA/lCoXkhRdeMNfjyKYQjhs3zm/RooV5Xs2aNU3chpU15rRfddVVxgiAso2/5Zdf3hgh+B4UqFIbHbhn3rx5/imnnOI3adIkFbYNNtjAHzRokFlrIhPlTpe3337bP/roo40yj9KHX5T61q1bG0PCb7/9Zn2m8/nnn/s9evQw6ebeQf5GuYRyGR0wKHH/dtttZ13imT59ujGCkL4ufBikxo4daxRnzkttdIA5c+b4AwYMSBkSOHgeafLnn3+aOI4q/YWUpSQKeT8kGR1g4sSJ/lZbbWXqK/yQfzGQTJkyxRgUcIuu6fDQQw+ZOpV85IxEGDxY6+aOO+6wvhby888/m2+lTBRaDwohhBBCiCWbGvwJhMalGub7M7S82GHjTKdgPjOr6gcKm3VdvGA4f74r+DPsPVBozHclESgq3owZM9KmGjD9gGkR7EJQKgh/oOCYIdxJsKVioFB7K620knUpLZMnTzZTZgLF1Kze7yBsTBthnn6+lCtdwgRKq4mTfPJ5vu+oaubOnWu2ai0kzouB/EU88u58KFV8Fvr+JGgGXP5gClCusMMKZTxTWaNezFRehRBCCCFE9WapX0gS2D+/WIMDIFjzrMXV4ACFbBnYsGHDgpQklJdSGhyA8GdTYAhruQwOmSBshSq/VZEuLOCZbz4vNO2rCtK5qg0OsPzyyxek8JcqPgt9fxLki0aNGuVlcAAWec1W1mRwEEIIIYRYupHRQQghhBBCCCGEEGVBRgchhBBCCCGEEEKUhZr/Yz9BIYqkQYMGXocOHbxNNtnEulRfGB7fokULr3Pnzl7jxo2tqxBCCCGEEEKIKFpIUgghhBBCCCGEEGVB0yuEEEIIIYQQQghRFmR0EEIIIYQQQgghRFmQ0UEIIYQQQgghhBBlQUYHIYQQQgghhBBClAUZHYQQQgghhBBCCFEWZHQQQgghhBBCCCFEWZDRQQghhBBCCCGEEGVBRgchhBBCCCGEEEKUBRkdhBBCCCGEEEIIURZkdBBCCCGEEEIIIURZkNFBCCGEEEIIIYQQZUFGByGEEEIIIYQQQpQFGR2EEEIIIYQQQghRFmR0EEIIIYQQQgghRFmQ0UEIIYQQQgghhBBlQUYHIYQQQgghhBBClAUZHYQQQgghhBBCCFEWZHQQQgghhBBCCCFEWZDRQQghhBBCCCGEEGVBRgchhBBCCCGEEEKUBRkdhBBCCCGEEEIIURZkdBBCCCGEEEIIIURZkNFBCCGEEEIIIYQQZUFGByGEEEIIIYQQQpQFGR2EEEIIIYQQQghRFmR0EEIIIYQQQgghRFmQ0UEIIYQQQgghhBBlQUYHIYQQQgghhBBClAUZHYQQYgnln3/+8X799Vd7JoQQQgghxOLHUmN0+Oqrr7zXXnvNe/PNN72ff/7Zupaf3377zfv000/N+//++2/rWvWMGzfOq1Gjhvf0009bl8WPyZMnmzDedNNN1kVUNU899ZS32mqreVdddZV1EYsjH374odelSxevbt26XsOGDb2WLVt6kyZNsleXTr7//ntv3XXX9Xr27GldhKhg7ty5Xo8ePbzu3bt7n3zyiXVddNSsWdM75JBD7JkQQghRvanWRoc5c+Z4AwcO9Fq0aOGtscYa3lZbbeVtvvnm3korreS1atXKu/nmm73//vvP+i4d3333nTd48GCvdevW3gorrGDexfvr1avnbbPNNt6YMWO8f//91/oWYvHh/fff97799lvvjTfesC5icWP+/Plet27dvBkzZhjj0IQJE7w999zTW3nlla2PpRPy7ccff+y98sor1kWIhXz99ddex44djbFuxIgRpk0WQgghRNVRbY0O9Jqvs8463uWXX24EjiiMPjjqqKO8o48+2rqUhtGjR3trrbWWd+mll3oNGjTwjjnmGO+aa64xgs6hhx7q/fjjj17v3r29TTfdNDZcQixKTj75ZO/111/3brzxRusiFjeeeeYZ74svvjAGh759+3p77bWXN2rUKG+zzTazPpZONtpoI2/69OneW2+9ZV2E8LwPPvjA23rrrb0tt9zS1G2MhhFCCCFE1VJtjQ5nn322GU4JjDjo16+fGbZ/7bXXml5BB6MdHn74YXtWHEOHDjVGhkaNGnmPPvqo6S2+4YYbvOOOO84bMGCAd8stt5jeybvuusv7/PPPveeff97eKcTiA6OBatWqZc/E4oYbGr7xxhub/6KC9dZbb6kf8SHSad68uff22297t956q1enTh3rKoQQQoiqpNoaHZ544gljAOjVq5c3depU0xPIyIZjjz3We/DBB00PoePJJ5+0vwrn2Wef9c444wwj9NKzsttuu9krlTnwwAPNGg+Z5nMy7YPhwoVMw/jjjz/M/OZCKOa9Sfzyyy8lXUejFGH0fd/7/fffK02v+eGHH4x7IXBvvmFiChCjX3KFqTusE5IE74/7rij4iVtjxMVLPt9RqneG7+eZ33zzTcZFErmPfPDnn39al9yZPXt2QfdlItf0/+uvvyq9m+/nezNB3OGPI3qe6VuIQ+qEbLAopXu2g7BSfsPwrAULFtizhVDf8P2Z+OmnnwqqB0jnXOszwpZPHstU9vBbbD2Ta5xGKaQuyVY3QFzakT9Im0LINW/FxT9uuYQ5Cu8jXbg/FxhxyHszlRGeSbpkw31HUtpwvdC2VwghhKjWBI3kUslDDz2ExGKObt26WdfC2WSTTfyaNWv6b7zxhnXJn0AA9vv37++vt956fq1atUzYeGb79u39Bx980PqKZ968ef5JJ53kr7POOn6NGjXMvYGw5fft29cPBEr/9ttvN25PPfWUvaOCYt6bxKOPPurvsMMOfuPGjc3zOFZccUW/T58+fiBQW1/pvPTSS8bf6NGjrUsFpQ6je9d9993nz5071z/hhBNM+FxY1157beMWKAf2jnheffVVf+edd/YbNWpk7qtdu7a/8cYb+yNGjPADQdf6Suejjz7ye/bs6S+//PKp99WvX9/v1KmTf9ttt/mB0mR9LuTpp5/2t9tuO/Ns55/37bPPPv6zzz5rfS3krrvuMtcff/xx6xIPfg4//HB7VkGmNEiiVO8kLT788EN/r7328pdddlnjxtG6dWsTL4733nvPfLvLB+T3Vq1a+bfccov1UZlA0fKvvPJKf/PNN0+L99VXX92/7LLLKsV5rsyYMcPv3r17Kp+TRptuumnGsFAu2rVrZ35ff/31Jk+78NSpU8dcnzZtmrke5qijjkr5ix7ueY5AufePPfZYf6211jLXiSPi8fTTT/cD5cr6SufCCy80filrjzzyiL/FFluYc8psmGWWWcY//vjjTdmIlhvy5ZlnnmniG+bMmeP369fPX2mllVJ+iKvBgwf78+fPN36SoA7p2LGjKRvc17BhQxM3U6ZMsT4qQ9gOPvhge1ZBOI998MEHJs3IY8RJmFLXM7nGKRSSl/KpG8ClXaA0+8OHD0/lD45VV13V33vvvU39lIlvvvnGP/TQQ/011ljD3Efeot3JVF+G4/+zzz7zDzroIJPX3bubN2/uDx06NJVvopCfybtNmjRJ3UP6kE7cRxsXJt/yvv322/srr7xy1jx5ySWXmOdE46iUeVUIIYSojiy1RgcELieIIMwXw/vvv2+eEydI5srUqVP9FVZYIaWYX3XVVf4DDzxgBCQUYJ6fpAi+/fbbfosWLYzwd8ghh/jXXnutUQRPO+00I0gi0F188cXmGVGjQzHvTQLFkvu23XZb/+yzz/bvvvtuIzj36tUrpSDGCXdJCm85wujehWCK8IygPmjQIP+OO+7wb7jhBvMNCIWrrbaa//rrr9u70kG5cgL3Oeec4997773+FVdc4e+5557m2VtuuaU/e/Zs63shCNy8q2nTpv5FF11kjF8oM5dffrm/9dZbm+8MG2W4zjswal133XVGsSc+zzvvPBPuDh06WJ8LWZKNDmeccYZfr149oyigrI0dO9bEK3HFdeL2iSee8JdbbjmjLJK38DNkyBCTBvghz0f5888/jX/Sc//99/eHDRtm8g/lpHPnzua+QoR/8jRhQXFDGUGpvPHGG43CxzPJB3FKlDM6UB5QaPk/atQo/6abbjKKG8/EPaqwvPnmm0ZpO+yww8zzyTOcc0yaNMn6WuiPMo+yhXLP9TvvvNMo/yinbdu29b/44gvruwKnIPNc/pMfKRNR5ZV4ROls06aNKR/E+a233mriYLPNNjP3Yjj6+uuvjZKHAoYiP2bMGH/kyJF+ly5djJ9o3g2DsRQ/pM/VV19tlDrupRzwfuqzOJIUOZfHLrjgAqMYUm8cd9xxaQp9OeqZXOO0kLyUb90AxA9xu8suu5g8RtvHe8aNG+cPHDjQpBXhIC/GMX78eGPM5iBNMQbil2eSt5o1a+a//PLL1ncFLv4pz8Qx+d+VX8ojZZ7ru+++u72jAoxkfAvhOvHEE01+njhxoim/PXr0MN/05JNPWt+FlfeHH37YuBMXSfzzzz+mXEXDWOq8KoQQQlRHlkqjA70cCD0IChwICcVwzTXXmOcgCBUKveIoT/SIRUFBR4hC0Isq63wLvT0Ii5MnT7auFdAD1LVr11SvXdToUOh7M4EChBAXx80332zCESeIJSm85QijexdK7jbbbON///339koFKH0YCFBoo89G+OZ+FMC4906YMMH0pNJzGAaFg/uSehNnzZplfy0EYRyFB0E6CkJw1KixJBsdUKAGDBhQaYQII1FQxurWrWt6I1E0ovFBGmy11VZGkaLHOAqGJIyDcTgl/pVXXrEu2SH9ULLomY5L/3vuucc8k17YKBgdUDj4FhTdKIzkQMGidz0OlGCejb8oKGgYA9Zcc03/q6++sq4V0MtPnmZ0ThSnIPNuFLQkCDtphZIV7dmmB32//fYzz8HgQFiieRpOPvlk4wdDRBQMGFzDKBeF56N4cj1OuU1S5Fwe49vIg3FpVo56Jpc4LTQv5Vs3APFDnYch76233rKuFTCKgdEYtBfTp0+3rgv58ssvjSELZToub1G+MHZgAGfkXRgX/7yfEThRAwpx78ohBoIwjz32mHFPMgjE5a9Cyvu6665r2tIkMNxxX9hgVI68KoQQQlRHljqjA8LNgQceaAQBjp122sleKRx6vHkWQ8PLBb1uvINRDWHciI2knin49ttvjVECf3HTKzKR9N5iQNlCwI5SiMILhYTRvYteT4TpJNy0lLBQiUDPCBJGbMQJ/A56gLk3bIwi76Fg5Kq4MJwYo0iuLMlGB4w7ScOrUU7xQz6OUwrhmWeeMX7obcwHlHfuozc6V+jtRHnHIJIEyhVDyKNDvzE68L5MceyUlTjlLpPRwdUHL774onWpjFNiUebCOAWZUQqZQFnCoDZz5kzrks6nn35qnsPB8P84fvvtN2NEwkARBqMJ9QNxlATlD4MMSneUbEYHRmb8/vvv1jU/CqlnconTQvNSvnUDED+EJ6rYh/n444+NkWTHHXe0LgtxU5qixogwjDjg+aeeeqp1WYiLf4yHSXUm5ZrwHXnkkdZlIUxB4l7KdylIKu+u84DRVHGQ3zbaaCN7Vr68KoQQQlRHqu1CknGw+BPbVt59993mvHXr1t4dd9xhfpeCID7tr9ITKGTmfyDom/8OdsCoV6+eFwhq1qUyTZs29Xr06GHP8iPpvcXAM0v9PCjkmXvvvbfXokULe1YZFvsMFALvhRdesC4Lt2BjsbC+fft6gXBuXSvD9pPAFoeOQEkwC91xL4uoZaNjx45m+9crrrgi7wXXljR23XVXL1Bm7Vk6m2yyiflPfJAecbANLbBtYj64/MMe/rkSKPUmvCuuuKJ1qcxhhx1mFq9L2sIxUOLsr8psscUW5j95LR+ee+45b/XVVzf5LAnyfKDwm2+II9MCt4711lsvFW9RAsXSLN5HvRQoZNY1nfr165v72c0nDGnH4qrU00nUrFnTO+igg0y8Boqfdc0Ndi4iXIVQTD2TKU4LzUuF1g3s5pAp77Vq1crbfffdvZdffjmtTaOt6dq1q0n7JHbaaScTT+TDOFhgOanOpFyvscYalfJ8hw4dzP/Bgwd77777rvldDEnl/YgjjvBWWmkls711FOKZ3ahOOeUU61L+vCqEEEJUJ5Yao8OCBQu8/fbbL2VkQDB+6qmnvFVWWcWcFwOCErit7AqFMN54441mx43tt9/e7LvvjhNPPNH4QWENgxC2wQYbeDVq1LAu8WTaXq+Q92YDwXHgwIHeXnvtZfZHDz/z/fffz/t55Qgj5LLt4IYbbmh2QHG888475j/umWjWrJnZvs/5h+OPP94oIGPHjjXX1157bfNNo0ePNjuaRLn22mu9jTbayOvfv7/XsGFDo3zzvffee683b94866t60KZNG/urMsQVZNpjn/ipXbt24o4Ejz/+uDH2dOvWzWwL6vIPyhvkmn9IJ1btRylDCUs62M0Gpk2bZv6HQbkhbySx2mqrmf/ZdoSIwrtYXT8uPO7YZZddvGWWWSY2XJApjh3Z/GDoTDJKOEjTaFq5MF199dWxYXfHXXfdZXYkyNfAlCmPQbnqmaT4KiYvFVo3ZKu3gGexo4Nr077++mujYOdyb/v27U04SZ8obdu2tb/iId9H8zzPu/LKK80z+d7GjRubdmX48OFmK8wk8i3vGOLwz85XUWMY7yK/9uzZ07qUP68KIYQQ1Ymlwugwf/5803Pz4IMPmnMEH3ouMvVw5wPCKdx///3mfyEgJCJcIUDWqlXL6969u9enT5/UQU9YHCgPjODIxj///GN/pVPoezNx/fXXe+uvv74ZHYCQyiiM8DObNGlifeZGOcLoiBOMoxB39Fg5iHPIJd7xE7339ttvN0aZyy67zHzXxIkTzfaua665phF6w72LxBWCNT2HKB70ho4ZM8Y74IADjICOsSJMNuMT5LLFXT6U6p257KGfi5+4EUcHH3ywySeMLuncubOJb5d/jj76aOsrN1x6YmykJz/p2Hnnnb0LL7wwNQIjDApOLuQ7eoqwMcogLjzhg7y0//7727vSWWGFFeyvZMqVVi5uqTfiwu0Oth0mbjHe5EOmbytnPZP03mLyUr51gyOXOs8p5C58+dZ5+I+rF3LJ93F5HmMKhg8MQhjNMFwPGjTIxMe2225bacvPQsv7SSedZEZbXX755dbF8z7//HNvwoQJJgzhkVjlzqtCCCFEtSJo4Ks1v/76q9mKkE/lYE5m0paNxcAidiyuFrdgVC6cddZZJnxxi3sBazFwnTUGwjDPlrm+gaBnXeLp1auXuT+6pkOh702C+dKsWcBq60l07NjRLIAWJWk9gVKHEdy72LoyG6xmv9tuu9mzit1KklYldzAfH39s9ZYN5lEzvxf/2dYkIK1ZBI3t9PA/LbS9Iouc4Ra3QJ+DeMRPqdZ0qIp3BsqD8cNuDJkg7wVKlz1bCOsKcG/Smg3Mu+Z6PrvYrLLKKrHrkuRCoIiYtQUykSlPZ1rTgTUSWPciUCytS+649QfIi5kIFEqTVzPBoovs3pIJFrNkbZQwrmzls75GmKSw5ZLHylHP5BKnxeSlKJnqBiB+mjVrZs+SYQ0KFo0MQzhzWQOJdRvYpSNMrvVKUtsQB+04O33Q7obXBim2vLMDFG2qWz+DrahZf4TtX8OUK68KIYQQ1ZFqPdKB4aCMQmBUA2y11VZmXmq2KRVuWCbDVHOF4ZcQKFXe3Llzze9MzJ492/5aSKBAeIEAnpq7HiVu6D3Qk8Jc32uuuca6VIZ7k76l0PcmEQjXppeMubtx0Mv27bff2rPcKHUYw4wfP9777LPP7Fll6Dn8+eefvS5duliXhSNlmBdNnGfqwWckAzDPORvMo77pppvM9ICkufYOehEDoT71/EDJMP/BDV9+9dVXzf847rnnHvurNCyKd+YD+QeSeqoLyT8Mmw6UUO+jjz6yLosH9Ij/8ssvJV2rpipxZStQTk29VpWUs57JRCnzUqa6wUH9y5D/JJha8Nhjj5kRBGEIZ6DQp00Xi/LQQw+Z+hS/5YZ2/NRTT/U6deqUauOh2PLOCAryHiP2GP1CG8B0m+hIhUWZV4UQQogljWprdGBYJULTW3bhLYZCYnS45JJLvLPOOqvS4QQplGamYtxwww1mmOqUKVOMezYQfEaOHGnuRxi577777JV0ULp5dsuWLY0w40DpZHHCuHUhEJLOOecce5bOcccdZ+a5Mrz2ySeftK4VIGCykJUbChql0PcmwRoFDKt96aWXrEs6//vf/zIq+XGUOoxhSA/iZ9asWdalAoYts3AYC6e5RSEBwR5Bk3djZEIwjXL77bd7o0aNMs/GMORAGQyvDxGGYbwYbFhvxMEw36iByuEWQgv7Zy49a2hgwHjzzTetawUsaskzc5kSkSuL4p35QP4B5s1HIb4Zcp0vlHUWxGNBvrh8SZ4gb4QXIK0KGEbOwnt8E4psFN/3vWHDhqWMpIsblC3yEcPniT/WO4iCcs5imEnlolDKWc9kotC8lG/d4MCwyVSBuPJAHcS6BbQXrKMQhnAyTYQ1aWjnorDQ4rHHHmvaANrUUoHhhOkNcTB1kmkX4e8stryzzs92221n6m8MyyzSyfpEUcqRVymf1Jd0mAghhBDVCjPeoRrihiDnetxyyy3mvkmTJqW55zOUFgKl0gxL5V6GuLJtIltxMcy2R48eZh9zrgWKQdo+6oEibobxc5393Bki+/zzz5sh/AxBZrpCUngY5hkIWuY6/hhyeuONN/rHH3+8eSZ79nPOdYYIhynmvUkwHJV72A+dbRQDYdRs0bbHHnuYYeWbbbZZXtMryhFG9y62wiTu2H+fbenY351tB/fdd19znbh755137F3p8H62Dlx99dX9/v37m+kFpHOXLl3MvZ07d07b4o4t1ggv17p27Wq2lWOfd/Ievxm+zNDnQMEx/hnmzdBhhvruv//+/vnnn2/2iieMRxxxhNm+jnctiGwzyZBq7iFs+AuEZz9QNM1UHN593nnnme8NBGV7RwW5DoOOUu53FjO9IlA0zFB/hkgHiqP/3HPP+a+++qrZZrZ9+/Zma0Cu5TO9Athar3HjxiYd+C6GWZM2ffv2NXmC743bmnCHMk6vALasDBQn46dbt27+kCFDTB4bNGiQqZPIU2zzG2VxmF7hIO8Qr8Qv9QnxSvweeuihfr169fw2bdrEbt2YFLZc8lg56plc4zTfvFRo3UD8HHTQQX6gCJv7uXfEiBFmW8pjjjnGxC3bCI8bN87ekQ7b/7K9J+/t3bu3iaeRI0eaaWo8u2XLlqa+j5JrvRI3vcLFO2X1hBNOMO0p7ezQoUP99dZbz69Zs6aJP0cpyvuDDz5o3kl9RruViVLm1Ztvvtm8N9+tUIUQQojFHRkd7OGMDiiGGARwa9eunf/LL78Y93xA0Tz33HPN+hHhdyCooQSwT34cCCYoac5owbHhhhv6Y8eONYIc50kC7/z5883aAQhVCEr4RQg6+eSTzTc88sgjxi1qdIBi3hsHc2bZ0x5lHsGW+3k2RohvvvnGrI+Qj9EBSh3G8LvmzZvnn3LKKWbfe9wQYjfYYAOjpGXb03/q1Klm/nPz5s3NvQjs5J/rrrvO+kiH7z/rrLOMH4R37uFo2rSpEai/+OIL63Mhb7/9tn/00UcbJRIBFr+kL0odwu5vv/1mfabz+eefGyMXhgz3jk022cS/++67zfVSGx2gnO8sxugAzMceMGBAyujDgeJPWvz5558mbvM1OgDP7devnyl3KB48lzzAHHPiI45yGx2AMojxjLn1rsyQr7fddlv/mWeesb7SWZyMDkCZJz+xRgDh4qCcYOBLKpfFGB2g1PVMrnEK+ealQuqGcPygvNPGcR8HBlaMB9E6KAprKfTp08co09TvvJMwZ6ovc43/OKMDbRthxViAAcaFFwMRdS/GoSjFlnfWRHGGfIwW2ShVXsXIhZyAAVwIIYSoTtTgT9BAighMS2DYeCBUWZfCYOcDhuwyfJZ9yHOFdSHYy56hsPnCtm/MMc1lFfooxbw3DsLC8NRSrtxdijAyB3ibbbYx0yR69+5tXRcOZSatCnk29+Yb58y/DwRgs1p+LjDslrjMJ1/m+45SsCjemSvkR+KPPFRKKOvkgcVxlXryTaCkmSHhSyKsncJUqOWXX966lJ9S14X5UEheyqVuYNoEU77GjRtnXTzvr7/+MvV0IXFLO8Mzq7Kc807iJ9fwlqu8J1FsXmUKyKLIc0IIIUQ5kdFBLJUkGR2EEKK6Emd0EEIIIYQoN9V69wohhBBCCCGEEEIsOmR0EEIIIYQQQgghRFmo+T/2MBRiKYM5yC1atPA6d+7sNW7c2LoKIUT1ZeWVV/a6du2a2lZSCCGEEKIq0JoOQgghhBBCCCGEKAuaXiGEEEIIIYQQQoiyIKODEEIIIYQQQgghyoKMDkIIIYQQQgghhCgLMjoIIYQQQgghhBCiLMjoIIQQQgghhBBCiLIgo4MQQgghhBBCCCHKgowOQgghhBBCCCGEKAsyOgghhBBCCCGEEKIsyOgghBBCCCGEEEKIsiCjgxBCCCGEEEIIIcqCjA5CCCGEEEIIIYQoCzI6CCGEEEIIIYQQoizI6CCEEEIIIYQQQoiyIKODEEIIIYQQQgghyoKMDkIIIYQQQgghhCgLMjoIIYQQQgghhBCiLMjoIIQQQgghhBBCiLIgo4MQQgghhBBCCCHKgowOQgghhBBCCCGEKAsyOgghhBBCCCGEEKIsyOgghBBCCCGEEEKIsiCjgxBCCCGEEEIIIcqCjA5CCCGEEEIIIYQoCzI6CCGEEEIIIYQQoizI6CCEEEIIIYQQQoiyIKODEEIIIYQQQgghyoKMDkIIIYQQQgghhCgLMjoIIYQQQgghhBCiLMjoIKotv/zyi/fff//ZMyGEEKXmjz/+8P788097JkR5UD4TQoglm2prdEDZ/Ouvv3I6yqmYzpkzx5s5c6b33XffLVIFuHfv3l6NGjW8f//917pUT3zf9y699FKvcePG3oorrugtt9xy3gEHHLDUGx+GDh3qNW/e3HvllVesixBCFM5jjz3mtWnTxqtfv75Xt25db6uttvK+/PJLe3Xp5Pvvv/fWXXddr2fPntZlyWfIkCFGdvjkk0+sS9WifCaEENWDamt0uPzyy706derkdFx88cX2rtLwzjvveIcffri36qqreo0aNfJat27tNWvWzGvYsKG31157ec8++6z1KUrN9ddf7w0ePNjr1q2bN2HCBO+6667zVl99dW+ZZZbuQT0YG7755htjABNCiGJ47733vD333NO0aXfffbc5ULZp85Zmvv32W+/jjz+WcbdEKJ8JIUT1oYZP13A1ZPjw4d6gQYPsWWaw5J955pn2rHAWLFjgnXTSSUbRrV27ttepUydv44039tZff30jjEydOtV74YUXTG/IQQcd5N16663GX1XASIcxY8Z4//zzj1ezZk3rWv3YbLPNzOgVhBVRAcNSp0+f7m266abWRQjPu+iii7wPPvjAu+2226yLENk55ZRTjGGfEXxSANOhPDVp0sRbeeWVrcuSDfLR2WefbYwprVq1sq5Vg/KZEEJUH6qt0eH111/3nnnmGXuWzquvvuqNHz/e/EY4eOONN0xveDEwfH+PPfbwJk6c6HXo0MEo+G3btrVXK0D5u+CCC7xrr73We+mll7x27drZK+VlaTE6MKVi991398aNG2ddhBBJUFamTJni/fTTT9ZFiOzsvffepo2dNWuWdRHVlUVpdFA+E0KI6kO1HXO+xRZbeKeddlqlgxEGL774ovHD1IqHH364aIMD/O9//zMGh0MPPdSbPHlyrMEBeCeN+Oeff57R4EBv/ezZs+1ZfrCOxM8//2zP8qOY9ybx999/mzBlA/vX77//nrb+Am70cvz222/WJR7u42C0Sfg8+rwwPJtRJ7nAIlbu2Y4ff/wx7dkYdHhfGIxMX3/9tYnXJIgfpj4Usu7Er7/+asKWjbiwOQhbdIGubM9lkc5C81gUwsb3R+M3E/mkXRJxcUJc8G2Z+OGHH3JaGyUuXjln1FMh8LxcyhFky6/z58833+6+g9/uyJYOpUx7IEzESTHrzXAvYc9WhvBDeYtS1WW3FN8cpdj6jLxFHsmEyzfEDcZrfrsjU74ppsxE66K4doJnkw74TYL7iPPo83Mh1zYMCGuueSxbfcP1UrfHUYg30jUf+D4MAfnU2Y5c4rLc+UwIIcQiIGiIlxoCgcRff/31GdlhjnvuucdeKY5AKPDr1q3rr7766uYdhfL+++/7BxxwgN+yZUu/Ro0aJow8d+edd/anTZtmfcXzySef+Pvuu6/ftGnT1PfxnEsuucQPhB3/qKOOMm78jlLMe5MIBEL/sssu89u3b+8vu+yy5pmrrbaa37NnTz8QcqyvdF566SXj77777vM/++wz/6CDDvLr1Klj3DiaN2/uDx061A+EDnvHQgLFIOUn7uB5YR599FG/Y8eOfv369c31hg0b+jvssIM/ZcoU66MyyyyzjH/88cf7gYDoH3fcceYe7v3uu++sD9+/8MILjVsguPuPPfaYv+WWW6bCwLHddtv5r732mvXt+w899JDfoUOH1PVatWr5W221lf/KK69YH/EECp9/7LHH+muttZa5jzRr3bq1f/rpp/uBkGp9pePC9vHHH1uXCvj2du3apdJszTXXNH7vuusu62MhxBt+GzdunArziiuu6Pfp08cPhD3rKzd41w033OC3adMmlef4Txk64YQT/A8//ND6TKeQtEsinF6PPPKIv8UWW5hzvifKjBkz/O7du6e+vXbt2v6mm27q33LLLdZHZVy8wsMPP2zSlns5ll9+eX+bbbbxn3jiCXM9iUDo9s8880zznED4NvdSxvfee+/EOIJs+XXttddOhSV6cF+UUqY9EOf9+/f311tvPZPveR7fR33x4IMPWl+5Q17lGY8//rh1iQc/hx9+uD2roCrKbqm/2VFMfRYocf6pp57qr7rqqqlvWWmllfwjjzzShDdKPvmmmDKTqS4KtxOUgb322ivVxnBQF952223Wt++/9957/j777JOKc+qZVq1aZQwHFNKGAXF78MEH27MKcq1vytEeRxk3bpy/9dZbp/IMx4YbbujffPPN1kcF4bbjmWeeMWXBhYv8i0w1YcIE6zuefOOy3PlMCCFE1bPUGB3+/fdff5dddkk1XDSkpeLqq682z4wqaflw0003GWFl3XXX9QcMGGAa/7vvvtsokiussIIRmKZPn259p4OAhVDSoEEDI9RyzvMQZriva9eu/mGHHWbCGDU6FPPeJObMmZMSyBHwb731ViNUX3DBBX6TJk2MsvLkk09a3xU4YfKcc84x70b4PPvss/2xY8f6w4YN8zfffHNzfffdd7d3LGT+/PlGAOVYbrnljPDvzjlmzZplffp+3759zTM6d+5s0g2BfeTIkf4mm2xi4uHiiy+2PtPhGoYbBCzime/CoPPHH39YHxXC2UUXXWT+I+hefvnl/pgxY4wijTDE8eqrr/rnn3++8dOlSxfzbQhICP98N+4TJ060T03nzTffNMYXlNbBgweb77vzzjv9fv36mWe3bdvW/+KLL6zvCsKCYxQn6PN9CJMI8eedd54/c+ZM68M338v92267rUkT8ghh7tWrV0qIJx1yZeDAgeZ5KM+33367Ub553oknnmi+jfwXpdC0S8LFCWnEf4TwQYMG+c8++6z1sRDCRb7CyEOaozDceOONJn25b88996xkCAMXry4/UP/wLtKM+MXggvvRRx9t70gHYZpySfwecsgh/rXXXmvqmNNOO80YHgjTddddZ32nky2/opwTDoRz4tuVFY533nnH+HGUOu2nTp1q8rkzWlx11VX+Aw88YJQSp2yMHj3a+s6NUhkdylV2y/HNUEx9RjxssMEG/sorr2zqftqCUaNGGeM1z6SewWgVJtd8U2yZyVQXuXbijDPO8OvVq2faBdKPdoK2wxner7jiClOvEA4MEa4tGTJkiL/OOusYP5SlOAptw4C4zWR0yFTflKM9DkP5d3IQRk/yL2lHHG+22WbGnbgP48JNGPiP8QPjP3FJnDZr1sy4Dx8+3N6RTiFxWe58JoQQoupZaowOp5xyimmEOOg9ofejVPTo0cMICr/99pt1yR8UY4SRuAbygw8+MALvTjvtZF0qQBhjNABC5ldffWVdK6BnhN5j18sTNToU+t5MoIzwvqjyBvTS0ytHzxq/wzhhkrikJz8aJnpLnPEEgT0OhFCE5jgQdrgXxSIKRikUXq6//PLL1rUCwoRwQzwzsiIOJ5zhd/z48da1AgwG9AwhzONvxIgR9koFGAxQEhGiot/PKAYUVfJvXFqTXo0aNTJCYRQXtiSjA+lMD2nct8OkSZNMb30cCMY8O1elf968eUahoJcrDhQdemDDFJN2Sbg4IV1R6OP46KOPTNzQkxanWDNaimcghEchXimb5Ad6FqMwiqF3797mfpSNMJRTBG7SZPLkyda1AgR5yiX5iXwVJZf8CrvttptROjNRyrQHyjGKX1xPOnGMgkgZyMeQUSqjQ7nKbjm+udj6jAMDbdxIFfIj92LMjCNTvim2zGSri1w7QR2CYk7chpk7d65JAwzxhJH2mbIWhnDx7aQpxr0ohbZhQLxmMjpkqm/K0R6HIT0JA8alKG5E5I477pgmy7hwc2AgjsLoTgxFxHdcu1RMXJYrnwkhhKh6lhqjA0MHXcPpDno7EGCKhUYTi305QZGmpyMKvf7Zej/oeXPfHDe9IhNJ703ijTfeMO+hFyOJL7/80ghe9PKEccIkAmNUSHQgtCPUMfw3jiSjAwo7wgtCbRLEDcM/6TmLwjsRct9++23rUhknnCFkJXHooYcaP506dbIulaH3CD8Msw1DTxLuL774onWpjBO0GCIexoUtyejANXoGC4W4RfjLBYZE8z6+MxeKTbskXJzQm5oE5QtDDopMEhjIMC789NNP1mUhLl6TFDf4+++/zXB7FM7wqBmUAu6NGiPCMK2LXkKGaUfJJb9CLkaHbOST9rnAKAC+PVvYw5TK6FCuspuNfL+5FPUZCjeKbBK0mdTFcWTKN6UoM5nqItdO0H7HKefACBX8YLyIM/QAUwXwwwiRMMW0YZDN6JCpvslGvu1xGEbb8P64sGXChTvTfRjq8MMoyzDFxmW58pkQQoiqp9ouJBklEFC8QLj3VlllFevimdWYt9tuO+/ll1+2LoUTxKX9VR4I/7x588xCSWECAczr2rWr+bYkdtlll4JXnU56bxJukc5DDjnE/I+jRYsW3jbbbGMW3IwjEDS8QAixZ+kEQoa3xhprmG3J8oHtIufMmWMW+kwiEMLNQqNvvfVW7OJxbdq0MVugZoMVt5NgS0/Ixc+MGTPMf8dzzz1nFj0l7pLguXXr1k2lQz707NnT/sof8snMmTPtWWbYZ510vP76671HH33ULLCWiVKkXSYy5VXicddddzW7oiRx2GGHmQXPeHccAwYMsL8qU6tWLe+EE04wC+CFt3ll55169ep5Rx55pHWpDFvI9ejRw+y+w+J1UXLNr8WST9rnAs+DUj4zV8pVdrOR7zeXokyw2HHSgsew6aabmgWPydv5UIoyk0tdxDuWXXZZe5bOJptsYv537NjR1DVx8H1AXIYpRRuWiUzPzUa+7XGY559/3vzv37+/+Z8v++23n/1VGZfv33//ffPfUc64LEU+E0IIUXUsNUaH+++/3wgXNNYIUrvvvrtx/++//7yTTz7Z/C4UFEGeizBQDGxbd+GFF3oHHnigEZZoyN0xduxY4ye8KvZXX31lVr7ecMMNrUsymfzk+95MTJ061fw/+uijjTEk6fjwww/TlKwwmQRhWG211fIWuqZNm2b+X3311bHhccddd91l8kRUEAWU5VzI5K9Zs2bmfy5+foysJM83sHp3XLjdgYFpmWWWSX1vrqywwgpe48aN7Vk8GHoGDhzo7bXXXt6WW26Zlk8QNnPNIzVq1PAmTJhg/rPNbIMGDbztt9/ebMs2adIkE/9hSpF2mUhKC8oXxgCMknHvc8cZZ5xh/MfFef369b21117bnsWz0UYbmf+u7MA777zjbbDBBiaOMsG9GDzfffdd61JBrvk1F0qV9o4FCxZ4N954o9erVy+T9uHnnXjiicZPvs8sBeUqu1DKby5FmWjdurX9FQ/1LHkL40aulKLM5FIXAUa1JHJJq4YNG3q1a9eulFalaMMyka1cFtIeY2TBuBI92H3F8fbbb5v/1CuFkCm/kFcg2i6XKy5Lkc+EEEJULUuN0SFMy5YtvXvuuSfVS1JI72iYHXbYwQhnDz30kHXJH8JAuK677jpj+aenp0+fPqkjrscS5RJy2SIqqTe5kPdmgt41QKgmXpKOY4891mxhGjdChJ76bOQ7ssSFC+NLXHjcgaCHwLfSSisZ/2EQhnOhTp069lcyufiJfiPfgIIeF+7wgaC1//7727tyI9u3MSph/fXX91544QUTh/TAh/NJkyZNrM/coGcLwfG+++7zevfubQTIoUOHejvvvLO31lprea+99pr1WZq0y0TSt7v3MrIm7n3uIMy81/WchkHhy5ZXXdl07wPKdi7l2vkJ3+vINb9mo9Rpj3G2ffv2pseVkR7du3dPex69l/mSzTgDcaNBopSr7Jb6m0tRJnKpZyGfurYUZWZxqGehmDYsE5m+r9D2+IgjjvD69etX6Qi/Kx95IY5C2uVyxWUp8pkQQogqJqjkl1qYD00UcLAwW6EwZ5QVlps1a5ZxfmEmmCecactNts0jnNFF4ZjvmMvCUmy/xf3M8w1T6HuTYH4s/vOZj+1wc3WzreLesWNHs+J7HElrOjDHmmezSFchJM3TDRMIN+YdcesmOHKZe85Wd/iJ7kyw3377mTnKgSJrXXInU9gC4cxsX5YEizqyYBcrgSeRKU1yhTUNWJ2crc84HMWmXRK5pNcqq6xS8HoFxCvPZ7HXTDB/HX/Mf3aQ1oHCZBYEzMSRRx5p8mZ0IbVc8itkW9OhHGl/1llnme8NFCzrks5TTz1lrsctWpcEi9RxD3P5k+B9+Mm0pkO5ym6pv7kq6rNMdX+mfFNsmclUF0Eu7QRbw+KHHX4yQd5me8owxbRhkBS3ueSxUrfHYdx3ZduSOUou4UauwE9054ti47Jc+UwIIUTVU21HOjA8ORCUE+f+33nnnd7PP/9sfmMtdz1BQZx411xzjXfcccd5b775pnHLBsMYA6HS+/bbb01vRHR4eByzZ8+2vxbC0EKGUib1gtArHEfnzp29p59+2nxvEuPHj/e++OILe5ZOoe9NokuXLqZHZdSoUdZl8YApG82bN/cCQTXvOcqLC/TaMJ3mjjvusC5VQyBsmuG8rLURB/mdvF8s9KQxb7hv375mmK6b374o044huoFC6H300UfWJX8uueQS+6syjLCirASCddqwZ9Kab6UuSmLWrFnevffe63Xo0CGnHt046DHMtKZGOdKeOof1KNy8+yj51jngpmS9+uqr5n8cjG5bVJT6mxfn+qwUZWZRsijbsFK3x2EYbcB3XXrppdal/JQzLpf0fCaEEEsb1dbowOJtDz/8sBHkGWbHnFmGLI4YMcIsBBZe2Oj444+3vzzvlltuMQu74ZdGLVeB7vTTT/f22WcfowRsvvnmafOzwzCMnLCwsGN4HjbnGDni5vRiVBg3bpw9S+fyyy83yhrfg4IQhWHqGFCShJhC35sEC1oOGjTIGzNmjBFu4gwwEydONPOaczHOlAoEn5tuusnMPz/88MNNOkRBeCFvRA1CiwvHHHOMUTAxbCFsRcFgNmzYMG/48OHWpTSwJgHD11m0NI7//e9/3meffWbPssOc5SuvvDJxShPze5n6xFopsCjTbuTIkWZRU8r2J598Yl0rYNg8YWLqQRx8B2FnLn8U1uc46qijTLklPsKLp5LWW2+9tZkq8+STT1rXCvhOFgkkDpn+UChrrrmmic8ko2Sp0x6oc77//vvY+ESpOuecc+xZ7jRt2tSsNUFcxxmLWZiTujKXaRjloNTfvDjXZ8WWmUXNomzDSt0eh2nXrp13yimneA888IBpJ2gvwrDmCHIEi2v/9ttv1rU4yhmXheYz6l3aT75XCCFEFcJwh+oG+z1vv/32ZlhftmOPPfZIG64eCPlp1/MZxshQ6KBRN1vV1axZ0995553NVlEMtT3ttNP8XXfd1QyP57mB4pg21cFtOcVQ5XvuuccMtX7iiSf8E044wUwZYJhhUngYkr7CCiv4DMdm33/2AA8aZD9QSsxQT+49+eSTzf3R6RXFvDeJQBHy999/f3PfBhts4J9++un+Lbfc4p9//vmp57Hd1S+//GLvWEg5p1c4AmHLbDHK8P2TTjrJv+GGG8wQZbbD4942bdrEbj9KPC7q6RXw6aef+htvvLG53q1bN7P3P3HLdmObbrqpyXsMwY2SKWw75DCkmbji/sMOO8yEnXwSCK+m/HDvZpttlvMQe/Imz2I6EtMDLrvsMv/uu+8220QyVYhrDEePUmjaJZFLegHlgXfy7kCINe/k3X379jVDodnukriI4uJ1xIgR5j3bbLONKQM333yzP3DgwNSUJ74ljkCQNlse4ofpDZdccol/4403+scff7y/0kormW++9dZbre90csmvwFBrnr/hhhua7e4Y3h8oqmnDu0uZ9vDZZ5+ZqW1rrLGGqasIw/PPP+9ffPHFZr9+vpX35TO9AqZNm2bqwGWXXdY/4ogjTH4izwRKiXneeeedZ9KKNIxS7rJbrm8uZ31W6PQKKLbMZKLc0yug0DYMkuI2lzxWjvY4DN/F1C2eQXtBGvNdyC18J+79Ilv85hLupOkVUExcliOfUY/xzly3bBZCCFEaqvWaDi+88IJpzBBiaGTcQQOF4nb//fdbnxUw/7pp06bG3yGHHGJd82PGjBmm0WvRokXaexs1amSEkddee836TGfixIn+VlttZQQh/GO46Nq1qxFkUcxwSxI2cEfQZF919z4ETuaLY1RBycEtanSAYt6biUceecQ8B6Hahaldu3b+NddcY32kUxVGB0AI79GjR1pckeb9+/c3c9jjWFyMDkAaDh8+3N96663NWiL4Jc223XZbs/d8HJnClougzzuvuuoqv1WrVsawwbN4NwLcN998Y4TDfBTPhx56yKRT69atjZLI8+rWrWu+6Y477rC+KlNI2iWRS3o5WPMFYRwjAPUH99WvX98I8J9//rn1lU44XidNmmQMoeQj7mU+MgYW6qhMLFiwwL/ooouMYr/ccsuZe/n2nj17Jr4XcjU6wLhx41J1Ffloxx139L/66it7tfRpD6QjxgCXfzkwfIwdO9YoWpznq4ADcUL+IH7dczfZZBNj1IJFZXSAcn1zueqzYowOUGyZSaIqjA6OfNswKMboAOVqj8Ng3OjSpYtJQ55HuabudeUkTC7hzmR0cBQSl+XIZ85QR70nhBCi6qjBn6CSrvawcjlD8JhmwOrQQSNrr1QmaEDNEPB8V2WPY/78+eZZbM+VNMUhCknCNmWsMxEIMNY1dxg+yLDu8HDtXCj2vZlg/Yx69eqZLcoWJ8gXDOsMFAHrsuRBmrFXeanTLAmGpTL8Nm5F/EJgNXWGh+f7vEWVdtQPDN3NFt5AwPZmzJhh1l5wEF6+NdPe8klwL/UJ23CWA76JqVrUHUmUOu1h7ty55ptKXTew/gl1TqBgWJfFh3J98+Jan+VaZhZnqroNK2d7HIa82KBBg9SOEFVBueIy13zG9JXFTRYRQojqzlJjdBBCiKokzugghBBCCCHE0ka1XUhSCCGEEEIIIYQQixYZHYQQQgghhBBCCFEWNL1CCCHKwPjx4818abbFFEIIIYQQYmlFRgchhBBCCCGEEEKUBU2vEEIIIYQQQgghRFmQ0UEIIYQQQgghhBBlQUYHIYQQQgghhBBClAUZHYQQQgghhBBCCFEWZHQQQgghhBBCCCFEWZDRQQghhBBCCCGEEGVBRgchhBBCCCGEEEKUBRkdhBBCCCGEEEIIURZkdBBCCCGEEEIIIURZkNFBCCGEEEIIIYQQZUFGByGEEEIIIYQQQpQFGR2EEEIIIYQQQghRFmR0EEIIIYQQQgghRFmQ0UEIIYQQQgghhBBlQUYHIYQQQgghhBBClAUZHYQQQgghhBBCCFEWZHQQQgghhBBCCCFEWZDRQQghhBBCCCGEEGVBRgchhBBCCCGEEEKUBRkdhBBCCCGEEEIIURZkdBBCCCGEEEIIIURZkNFBCCGEEEIIIYQQZUFGByGEEEIIIYQQQpQFGR2EEEIIIYQQQghRFmR0EEIIIYQQQgghRFmQ0UEIIYQQQgghhBBlQUYHIYQQQgghhBBClAUZHYQQQgghhBBCCFEWZHSo5vzyyy/ef//9Z8+EEEIIIYQQQoiqY6k1Ovz777/eX3/9ZQ5+l5J//vkn9exsh+/79q7SwTMvvfRSr3Hjxt6KK67oLbfcct4BBxyw1Bsfhg4d6jVv3tx75ZVXrIsoJbNmzfJq1KjhnXXWWdZFLMm0atXK69Spkz0TQmRiyJAhpv775JNPrIsQQgghHEul0eGnn37yWrZs6dWpU8erX7++9/rrr9srpaFXr17m2bkcd9xxh72rdFx//fXe4MGDvW7dunkTJkzwrrvuOm/11Vf3lllm6R7YgrHhm2++8WbOnGldhBBCCCGEEEKUkxp+ObraF2P43J133tl76qmnzPlll13mnXLKKeZ3qTjkkEOMMeHiiy/26tata13j2WWXXbw2bdrYs9Kw2WabmVEU7733nnUR8Oeff3rTp0/3Nt10U+siSgkjHTBunXnmmabXb2nmoosu8j744APvtttusy5LHox0aNq0qTd58mTrIoRIgjrv7LPP9j7++GNTdoQQQghRwVJndDj33HO9Cy64wPzeY489vIcfftj8LiXO6PDzzz97DRs2tK5VB1Mqdt99d2/cuHHWRYjyI6NDBZS/KVOmmFFVSyoyOgiROzI6CCGEEMksVePtJ02a5F144YXm9xprrLFY9kJiA/r999/T1l/A7bvvvvN+++036xIP93EsWLAg7Tz6vDA8+/vvv7dnmfnjjz9Sz3b8+OOPac9mPQveF4YRBl9//bUZfZHE33//baY+FLLuxK+//mrClo24sDkIG+EMk+25LNKJYSkf5syZY+KsEOLyBvzwww+J35UN7i1kTRPuIb0KXQ+F9CYushH3ze7dpE8S3Pftt99WStNiII/Mnj3bnsUzf/58E14XL/x2R7TsRCkmTnDLpY5Igrgi7IXAu0tZh+RKLunhiHsv+adQo1Cu5SauziEcGOiy5YcoxBHplG+ZKyZfkCej4Y9CuPATF664epV6M1tdT3hzTdswhcZRJghHKeuRcoRRCCGEWOwJBMalgkDp9Rs1asSoDn/ZZZf1X331VXul9Bx88MHmPYFCal1y56WXXjL33nffff5nn33mH3TQQX6dOnWMG0fz5s39oUOH+oHAau9YCN/n/MQdPC/Mo48+6nfs2NGvX7++ud6wYUN/hx128KdMmWJ9VGaZZZbxjz/+eD8QGv3jjjvO3MO9gVBrffj+hRdeaNwCRcJ/7LHH/C233DIVBo7tttvOf+2116xv33/ooYf8Dh06pK7XqlXL32qrrfxXXnnF+oiHuD322GP9tdZay9xXo0YNv3Xr1v7pp5/uB4Ku9ZWOC9vHH39sXSrg29u1a+cHAqF/2WWX+Wuuuabxe9ddd1kfCyHe8Nu4ceNUmFdccUW/T58+fqCIWF/pfPTRR37Pnj395ZdfPnUP8d6pUyf/tttu8wPB3vrMTDhvzJ071z/hhBPMu90z1157beNG+mSCvL/zzjunykPt2rX9jTfe2B8xYoT5/kxcddVVxi/3cC9laY899vCnTZuWyoNnnnmm9Z2Oi9v27dub+/C72mqrmbgJlBDrK53wN3/44Yf+XnvtlbqXgzQnDh3vvfeev88++5h8xHXyRatWrfxbbrnF+siP999/3z/ggAP8li1bmmfxzLp165r445ujkAYubNGDshOl2DjJp46I8vTTT/vbbrutv8IKK6Tu3WKLLfwJEyaY63wLdUQS5apDMpFvejjcewNFzx8+fHiq3uBYddVV/b333tuU00zMmDHD7969e6rsUwY23XTTjHkrXB8+++yzfufOnVPhrlmzpr/++uun4jsO7uvfv7+/3nrrpfI095FfHnzwQeurMqQtda0rpxyUd8oG4cgV6jXuDZRu61KZ5557zviJi4dwvXr55ZenxTthI5+7tHdpQ3l1fqgz99tvP1O3JFFoHCVBubnyyiv9zTffPK3OXn311U1ZTaqvM7UvpQ6jEEIIsaSxVBgdECK23nrrlPCA8FNOSmF0OOecc4wygMB29tln+2PHjvWHDRtmBCGu77777vaOhcyfP98oIRzLLbecUdzdOcesWbOsT9/v27eveQYC8NVXX22Uh5EjR/qbbLKJEc4vvvhi6zMdrh111FFGUG7QoIF/+OGH+5dccon/xx9/WB8VgtdFF11k/iPkEt9jxowxCjGCJgeK7/nnn2/8dOnSxXwbQuupp56aUoImTpxon5rOm2++aRQrBMLBgweb77vzzjv9fv36mWe3bdvW/+KLL6zvCnIxOvB9KAUot+edd54/c+ZM68M338v9KGqkyd13323C3KtXr5RySzqEQSlE2G/atKmJE4wsCJnECXmSb00yVkRxeQOBeI011jDPHTRokH/HHXf4N9xwgwkfaYTS+vrrr9u70sEgQFjXWWcdk8fuvfde/4orrvD33HNP82yMRLNnz7a+K0BJxEiCH/LNpZdeauJ9yJAhKSPETTfdZK7HGR3mzJmTMi4RzltvvdXEwwUXXOA3adLEGE+efPJJ67sC981nnHGGX69ePZP/SUfKA+EnXrnONzzxxBMm72OIcGWG8PGt+DnttNPsU3OD7yE+1113XX/AgAH+zTffbNIcwxbphvIwffp063shjz/+uIkXlFHypyt/HO+88471tZBi4yTfOiIMZRE/0XyAUo37ueeem9HoUM46JIlC0sPBfYR5l112McoeYbjxxhv9cePG+QMHDjTGD/IO74iDcs51lGbC+8gjj5j7qd+IB8pPnJHH1TmUF/5jHMEgRFqRZs2aNTPuKNtRpk6dar7LGTUx+D3wwANG8XXGrdGjR1vfFVDHUMZJi+uuu87kSeKJ+ox6gzyXK6UyOmBcIP4wFFNX8S0u7gjTTz/95O+4444m3Iceeqi5jj9XtxIHcYapQuMoCb6T+oP8sv/++5vyxPOuvfZak9d5Hu17HEntS6nDKIQQQiyJLBVGh5NOOsk07Bwokw5602nsOXJV/HKhFEYHhB4EtKggS4/RYYcdZvwguMSBcrbvvvvas3RQbLgXBTgKPU0nnniiuf7yyy9b1woIE4IjwmxSz5MTvPA7fvx461oBBgOEfowG+KN3PQoGAxQSBPzo9zOKoU2bNmYkwldffWVdK/jggw+MMo5wHyWb0QHFGeUj7tth0qRJ/sMPP2zP0kEB4tlRZQujAO5JvahhY1A2XN4gfbfZZhv/+++/t1cqoJeZ70eZjBpASA/uJ/9ErwE9rvS20+sbBSWNe6+55hrrUsE///xjvtP14MUZHVAeuB7Xy0o5QbmlxzlaZtw3o3igaEZHYjDig3xCb/fKK6/s9+jRo5KCxLdihCPf0VudK6QNxqE4ZZJ8Rn7ZaaedrEs6u+22mwlPJoqNk0LriNtvv91cS8oH999/v4kr8kKc0aHcdUgSxaQH76XcYKR66623rGsFjCphlEec4YKyy7MxyMTF1z333GO+F2NClHB9SLxH+fXXX41STv6N1mekI0YzesmjEA6UY+rJaJgwOqHMxhkKKKtxRsUkSmF0oOySjxmpFAVDF/cyioB8MXnyZHulAuol/GCMiFJoHGUCYwcjauJw5SpuJF5S+1KOMAohhBBLGtXe6EAPI4IAB4pqWIBnuK27lmlIcL44owPvQ/hLOugdjOIUChSpJEEP4QUh9sgjj7Qu6SQZHVDYUYQQBJNAKGXIJ4JrFN6JAPn2229bl8o4wQuFKgmER/zQc54EvYD4iQp/9Aji/uKLL1qXyjglgOkdYbIZHbiGEFwoxC2KSZgDDzzQKCylEChd3mA4+5dffmldK+OUyrBSSLoi+DMaI5MCwWgA7g2PMnnjjTeM2yGHHGJdKoNg7UYTRY0O7n568JPge1A6MF6Ecd+MESVO2QRG0eAHg1GcYA/PPPOM8UOvfKmgjNGDGUc2o0Mp4qSQOoKh4YQrWz5gxBHviBodqqIOKZRM6cF7+Z4kQy1QLxDf9LiHYcQIhjwMXElg/GGKCz32YVydk9Q7Ds4YeFtomlAu0GPOfdG4ZJQMRslSUAqjA9cwVMVBvcFUGfycddZZ1rUyfA9pkC9JcVQoTN/ieXGjJTO1L5kodRiFEEKIxZFqvZDkzJkzvSOOOML8rlWrlnfvvfdW6W4SgfBqtsRMOpo1a2Z9ViZQWrxAALZn6QTCl1kIky358oHtIlmoLlD6rUtlatas6R100EHeW2+9FbvwY5s2bbyNN97YniWz995721+VYUtPyMXPjBkzzH9HIOCaHRICIdS6VIbnslXpiy++aF1yp2fPnvZX/gSKsclzYQgni7H17dvXLOhWCvi+Fi1a2LPKsHsKeeSFF16wLp7JKyz2RziS8hWcfPLJ5n+gpJv/ECi55r+7FkegSHonnniiPUvHpQPhSoLvIa6SdkrYddddvWWXXdaepbPJJpuY/4GCbL47DrdNKmWgVJDe8+bNM4sK5ksp4qSQOsLVAdnyQf/+/e2vdKqyDsmXbOnRvHlzb5999rFnlWnVqpXZdeTll182i2M6SCvy34orrmhdKnPYYYeZxQb55jj2228/+6syrq57//33zf9c4XshWudQDsgzV1xxRcELSJaaPffc0/5Kh3pjww03NL8ztQeUcRb9JO/lQ1IcFYp73ocffmj+l4JSh1EIIYRYHKm2RgcEwH333TcldB177LHeCiusYIQFd/wc2nngiy++SLmXissuu8y7+uqrEw+nLMXRtm1b+yue1VZbLW9lZ9q0aeY/7+7atWvicdddd5kVtuMUtHXXXdf+ykwmf87YkoufHyM7PfANrJQeF253YNBZZpllUt+bK+SPxo0b27N4UOIGDhzo7bXXXt6WW25pFAZ3oDRgYAhz/PHHG8Vy7Nix5pvWXnttr1evXt7o0aO9r776yvrKj1wUNgT5qVOn2jPPe+edd8x/J+AnQRhXXnnllH9wvzfYYAPzP4mkZ7twHH300bHp5Q7K3nvvvWf8RkFRTSKX/ISxsXbt2nnvHIKic+GFF3oHHnigUebC6U2aQjTNc6EUcVJIHfHuu++a/9nyAfeutNJK9qyCqqxD4igmPbJ9M1Ans9PFJ598Ys4po+xygSEi7jvdccYZZxj/SXVO69at7a/KENcQV58vWLDAu/HGG02dsf3226d9rzPyRb/32muv9TbaaCNjOCLf8034xeiOUaaqoT7JZLDJpfxiMIK48ltIHGXj8ccfN4a5bt26eZtvvnnqeeQ5yPd55QijEEIIsSRRbY0ON9xwQ5qwPmrUKCOkh4877rjDXvWMEOvcs20RVhXQU5+NcG9cLtADCQjfO+ywQ+JBXCDYxykdKOa5UKdOHfsrmVz8RL+Rb2jQoEFsuMMHSsD+++9v78qNbN92/fXXe+uvv74ZQUAcHnnkkV6fPn1SR5MmTazPCjB+3H777cZYgRGqffv23sSJE71jjjnGW3PNNY1gm286osxl459//kmlNxAOyGWbNvwUci/vjMM9C2E7Lq3cgWHwtNNOi42PcuWnTNBr3bJlS++6664zow4YBRNO72J660sRJ4XUEfnkg7h85sJdFXVIlGLTI5dy4xQ/953uP6NG4r7THTvvvLP5XjeiJkohaYWBgPoC4wEj9bp37572vYy+iIN66O233zajwqgHUfjHjBnjHXDAAcbAgcEzVxiJkI1s7WUu5RIKKb+FxlEmDj74YHMfI9M6d+5s6mr3PIyE+VKOMAohhBBLHEEjXi1hUS8+r5Djt99+s08pjFIsJJltNeuOHTuadSHiSFrTgfUReHbcfNRcCBSWjHOTIRC8zTsyzWtlG0r8sKp6EqyxgR9WXw/D9mnM3Q8UCOuSO5nCFigOZteHJALB2qzNwCr1SWRKkyiEweWTq3NcZ8DlDVaCzwYrpbOugMOlfdKuAg4Ws8MfOwI4Ro0aZdyybWPqFhiMrunA9+FeyJzlXMoDq9rjh51MMkH6sd1irrDmCAvcsdhfHHwn741bEDHbmg7ljhOIy4/Tpk0z92bLByzmij+eEaYq6pAkikkP3tusWTN7lgwLDbPrSJhVVlml0lotuZJLfcgaGPhhsdYwrHGA+1sxC1/CU089Za7HLVAZhQU+Kb/sqsI95INcYGcT/H/66afWpTIsBoyfpDUdMtWrECje5v5M60a49jy6EGwp4wjYahT/Sfk7Ka0gKa1LHUYhhBBiSaTajnSgN4Ee5kwHwyYd5513Xsrd9bj88ssvXiAweIMGDfJmz55t3JZkGMXBMFV6uph+siRCjyLpEh6lUhUEgqTpBWUefRz0on777bf2LDvMH7/pppvMkP98154YP36899lnn9mzytCrydShLl26WJeKtL/mmmvM8PEkGI0BO+20k/kP2223nfl/ySWXmP9x8P2BoG7P0iEc9LAz2mhJgpFSDKdO6pnPND2GHvKkkR+wqOKEfLDqqqtmzQeXXnqp/ZXOoqxDikkPoHwy7SMJ1o957LHHvG233da6LITpE4Fi6H300UfWpWrge0mrpGl4+UzPIq9tvfXWqfL9yiuvmP/ZaNeunfn/+uuvm/9xMG1jUVHKOAI3OjJp9EG+z4NSh1EIIYRYEqm2RgeEJebSZzoYMutg7qZzd0Nq+/Xr51100UXe8OHDvcMPP9y4LckgeKLosvYA38Nc5SgI1izotbgaWRjq2qFDBzMsFUUgiu/73rBhw0yalRLWYmCosVtUMcr//ve/WEMAxpHw2gphPv/8c2PIWGuttaxLbqDgs1DfrFmzrEsFDKk+5ZRTvPXWWy9t4UfSHkURAZe0j5vbjcENJZhnM2TcwVB61qbA2IHhgTgOwzeccMIJqXnwUQgLhjuMISizccPcmXLCfOe4a4sKDENvvvlm7Fzrp59+2hs3bpw9qwxTZyhfrBUTx6KKExbjxOCQKR/ceuutZl2A+vXrW5cKFmUdUkx6AAY+5s+zPkMUyiLTNaj7r7zySuu6kJEjR5pFN1mEMi6PE4fERXjh1lLA97L4a9w7Sb9zzjnHnqWD8S8p7t2aRbnWOdQDTGfD+M56GlFoH1977TV7VvUUGkdJ8DyIyyPkO9qdfCk0jExboY1jPQghhBBiSafaGh1KQVhIoKc7X0aMGGEU4EzH/fffb31XDRhXeO+ECRPMqtkopixwhWDNCuz0xtDjl+8q4VUFij/KBQuz0RvPopEIvihKp556qhm9wjzmUod/+eWXNwoLijkKxhNPPGEUIBRxRtWgiLEoWBiE1AEDBpi55uxkMnjwYLPYHWHlNz2qLKKGQp8PGDhQADCsHXfccSb9yGuskE8POnO477zzTjN/OAxxdfHFF3sPPviguZew3Xzzzd6QIUOMckH6EyYWCYyCsYFvYH0BFtBEUOY7OGe+Mr8zKX0XXHCBWWOD72aRO9KIe3BnxwBGkPBNi8tq+8A3UgcQp/Tmkt5PPvmkMUayGj/xmQTzwgF/5BniBqU1rOQvqjghn/DOBx54oFI+YI0Jdvzhd9LinYuqDikmPYCFhdkNhIP1DVDOWfsHRZK1Wtg9gHLsdhNwNG3a1Lv77rvNQo8YizAE8a18M2tuEIeUqTilvBiobyjLlE3WsZgyZYoxbAwdOtTUc3HrR7CWA0ZHjF58I3mJ0R2E9cgjj/ROOukkE3+kcy7QQ0/dQvtHfuDZxBlpwcgJ6iLCs6goJI4ywUg66jeMqOeee673/PPPG6MKxkGeh8E1l/U5whQaRup22rjzzz/fugghhBBLMMyxWFph3QOigIM1BKLcf//9Zh74Msss419//fXWNTturn4uR3jePZRzTYcw06dP93v06GH2+ndhCYRrv3///mb9gjiIh0W9poODubXDhw/3A8HXzMHGb82aNf1AafafeeYZ6yudYtZ0AN7JnuqtWrXya9SoYZ7FuwNFy//mm29MWkbTBHfm9Hbo0MHsM889HMR1INiaufO5Es4bgfLqBwqA2ZMfN759gw028AcNGpSYfo6pU6eauevNmzc399avX9+ELymuwwTCt/HLPdxbp04dP1CczVxr1kLBLbqmQ5hHHnnE79q1qx8oM8YvR6C0+ddcc431kc6iXNMBJk6c6G+11VbmXt5BPBN+8udll11m3OLWEIBx48b5LVq0SN234447mjUzopQjTiBTHQGTJ0/2u3Xr5jdu3Ng8j/JN+XnsscfMdeb/R9d0CFOuOiQThaZH+L3EK/Hrwhwo6GadlGxlcc6cOX6/fv389u3b+7Vq1TL3Ug5YZ+bzzz+3vtIpZk0HII732WefVB3HseGGG/pjx47133jjDXN+e2QtANYJOfroo/2NN97YtAX4WXbZZf3WrVv7w4YNK2jNokBJNmtquHLP83bddVezTsE777xj3BbFmg5QSBxlgnQeMGBAWnnkG6jHCSNxms+aDlBIGEkr8hn1iBBCCLGkU4M/QYMnEqCXkbnZ9FRUV5jbzRDuQCCyLkse9KqSRoFyYV3KC0NeyRtxq/NngvUoAqG10iiEXGDvfXppmSbRu3dv67pweDfDvxk+ni/cW+huAnPnzs37+8Ow7gRxUUi4qxqqSfIY35tvHiOO6R1lakM2FlWc8F6G0Rdafqq6Dsk3PWrWrGmmDYVH4/z111+mHBcSZtoE0rWY/J8vlDemvOSbN1w85bITRS6U+nmlpNA4SoI6nu/kmaUinzAyWm5JqB+FEEKIbGh6RRYQSKuzwQFQcpZkgwOwF3xVGRwAo0EhCgf75hdicMgERoNCBdNCDQ5QrMJFuVpSBGoUj0aNGhWUx4jjXAwOsKjipFiDXVXXIcWkhwNDXaFhJj2r0uAAvK+QvEHdWEoDQamfV0oKjaMkyB+lNDhAPmFcUupHIYQQIhsyOgghhBBCCCGEEKIsyOgghBBCCCGEEEKIslDzfyw/LYRY7GFaRosWLbzOnTt7jRs3tq5CiGwwJaBr166pLRGFEEIIIUTVoYUkhRBCCCGEEEIIURY0vUIIIYQQQgghhBBlQUYHIYQQQgghhBBClAUZHYQQQgghhBBCCFEWZHQQQgghhBBCCCFEWZDRQQghhBBCCCGEEGVBRgchhBBCCCGEEEKUBRkdhBBCCCGEEEIIURZkdBBCCCGEEEIIIURZkNFBCCGEEEIIIYQQZUFGByGEEEIIIYQQQpQFGR2EEEIIIYQQQghRFmR0EEIIIYQQQgghRFmQ0UEIIYQQQgghhBBlQUYHIYQQQgghhBBClAUZHYQQQgghhBBCCFEWZHQQQgghhBBCCCFEWZDRQQghhBBCCCGEEGVBRgchhBBCCCGEEEKUBRkdhBBCCCGEEEIIURZkdBBCCCGEEEIIIURZkNFBCCGEEEIIIYQQZUFGByGEEEIIIYQQQpQFGR2EEEIIIYQQQghRFmR0EEIIIYQQQgghRFmQ0UEIIYQQQgghhBBlQUYHIYQQQgghhBBClAUZHYQQQgghhBBCCFEWZHQQQgghhBBCCCFEWZDRQQghhBBCCCGEEGWh2hsd/v77b++vv/7KePz333/Wd+mZM2eON3PmTG/27Nklec+QIUO8GjVqeJ988ol1qZ58//333rrrruv17NnTulQdXbt29Zo3b27PRDZ69+5t8uS///5rXaqG3XbbzWvbtq3n+751WbJp1aqV16lTJ3u25DJ06FBTfl555RXrUjizZs3yateubZ65tLK01PnlYFHVTUs648aNM/H29NNPW5eqB9ltwYIF9qw8xMmDHLx7SeK3337zPv30U++rr75a4sIuhFh6qPZGh3r16nl16tTJeFx88cXWd2l47733vCOPPNJr0qSJ16hRI69169Ze06ZNvRVWWMHr3r2799hjj1mfIolvv/3W+/jjj0uiuIjqx6uvvupNnDjRO/vss41wLBYfKLPffPONMbYWC8aLXr16eZdccok3b9486yqEqM58/vnnXt26db2GDRt6P/30k3UtLRjx4uRBjuWWW87Ia+3atfP69OnjffTRR/auxYfvvvvOGzx4sJEvCStG6zXWWMPIvNtss403ZswYGduEEIsV1dro8MMPP1RppfvPP/94J510kte+fXvvzjvvNP8HDhzojR492jvnnHNMD/rLL7/s7b777t6OO+7o/fjjj/ZOEWWjjTbypk+f7r311lvWpQIs+nvttZdROpd0HnroIfMt9FCI3Ln00ku91VZbzTv44IOti1hcuPvuu70333zTO/zww61LcZx++une3LlzvZtuusm6CCGqM5dddplXs2ZNb/78+d4111xjXcvDzjvv7N1+++1px2233eadf/753tZbb21GfTCibsKECfaORQ8y5VprrWXawQYNGnjHHHOMiacRI0Z4hx56qJEtGeWz6aabel9//bW9SwghFjF+Nebdd99l3LU5OnXq5A8dOjT2ePnll+0dhfPff//5e+yxh3nXNtts43/00Uf2SjqB8OwHwrjx16pVK/+nn36yV3LjwgsvNPd+/PHH1mXp44033jBxcNVVV1mX0rLDDjv4gUJrz8pLIFyZb3nvvfesy5LHUUcdZb7hn3/+sS7l5ffff/fr1q3rH3/88dalerD22mv7HTt2tGcizEYbbeRvtdVW9mzpQnV+4VR13VRdCBRvE29PPfWUdak6kImo30m7XXfd1V9llVX8+fPn26ulg/LEN5500knWJZ5Zs2b5q6++ugnTzz//bF0XHRdffLEJd/Pmzf1HH33Uulbmrrvu8hs0aGDSUgghFgeq9UgHhp85mP992mmnxR4dOnSwvgonEAy9Rx55xDviiCO8F1980axHEMeKK67o3XrrrV6gMJvhfYcccoi9UjjM4WPucyHzH4M8YNabyBfilnmEmfjjjz8qhenXX3/Nebgk94fnJzJqJVA4Te8HcI1zd2SC9TSYslEVI19yeZcLu/s+vsl9x59//mnckiDNWPMiF+LSgHVGCh1lw72B4GXP8qcUo48ef/xxE1/77ruvdckM35otzHHxxH2Z1mEh7YiPQiB/uHycL4sy/SnzvJswJMGIr2zlEZg7nWvds99++5kpNUzbKIZy1ndJxMUHZYA8wLVSkU98ljpfUK/zzHzg20nPaDgKZXGomxzEBembqZxEIe2y1f3g2o5MUG/hJ5fvIay51idxFJL2maDHnrpx0KBB5iBPIjMtKhhRx4hVwvTaa69Z1/zJp95O4tlnn/XOOOMMb7311vM++OADI9cmceCBB5oRlKWQMYUQoiQEFWG1JWiojEWY46abbrKupSdoSPx69er5a6yxhj9v3jzrmp0dd9zRhO3pp5+2LtkJ93o988wz/nbbbefXqFHDuNWsWdNff/31/QkTJljfyYwdO9bfcsstjfWee7GIb7vttv7EiROtj8oQTt5Xu3Ztcw9Ho0aN/H322ccPGkPrq4JlllnG9EYHgo8/fPhwf6211krdt+qqq/p777134ogQ4P6DDz7YnlX0viQdgXBifS6E8/79+/tBA+3XqlXL+CGO2rdv7z/44IPWV2UKGemQ77tcD1zc0a5dO+srHXo16AmvX7++8dewYUMT1ilTplgflXFpEAig/qmnnmri3b1npZVW8o888shK8Rblk08+8QMF32/atGnq3pYtW/qXXHKJ6UHM1ps4Y8YMv3v37n7jxo2NP/LPpptu6t9yyy3WR34Qz+T5QAi0LpV5/fXX/W7duqXeyUHP0Jlnnhl7n4unX375xT/uuONM3HJPoGxaHwthRBOjU0jXZZdd1vghr/Ts2dMPFCjrKx7KD2VshRVWSIVpiy22SJXXbCMdFlX6B8qT36tXL3/NNddM3bv88sv7hx12mB8ItdZXBZl65t9//33/gAMOMPnH1VvUQTvvvLM/bdo066syzz//vPF73333WZf8qIr6LgkXH8Tz9OnTTb3n8g51xYYbbuiPHDnS5K04yhGfpcgX5PdDDz3UtHvcx/vXWWcd/4QTTjDlKA6+8YYbbvDbtGmTCi//6Unmvg8//ND6zI3FqW6iF/z000/3mzRpkgoL6UubwIjK6KjGBQsW+FdeeaW/+eabm/Lk7iEuqGP+/vtv6zOdPn36GH9//vmndanMc889Z/wkfQdyCj38pJdLB8pE3759TTizjXTgW4899thUm84zWrdubb7/r7/+sr7yh28iLai7HYxyYlRoUvkolFxHOsCdd95p/DJ6IF8KqbeT2GSTTYxcwWhPIYRY0qjWRodhw4aZSp4j0zC0YrnmmmvMO+655x7rkhso3NzHdItccQIojTv/ES4RaBCqzz77bL9Zs2bGHSU/jj/++MM06Pjp3Lmzf+mllxpBfsiQIaZBw/2II46o1MA/9NBDRrDAz3XXXec//vjj/t133+2fd955Rujs0KGD9VkBgi1CzC677GIaSgTAG2+80R83bpw/cOBA0/gut9xyiQYh7g8bHb788ksTVgRKwsnzOHdHWEibOnWqUe5WXHFFI6QxFeOBBx4wwhzKHfePHj3a+k4nX6NDIe968803TZhR3Lh++eWXp75j0qRJ1lcFxCP+SLOrr77a5GcUFdKDeGLIZRxcI39tsMEG/sorr+wPGDDAxPeoUaOMsM4zUcaTlITbbrvNKDEIpCj7nHM/34lA3bVr19Q3xAn2CL2kMcIp6fbII4+YPIDixj177rmnEb7zoUuXLkZYTgLDAnmVd5511lkmnxK/KBe8EyE2ahwknshPGO34VuKM8FJeHHPmzDH5nGdwHaMmBqULLrjAKBqk/5NPPml9p4NCxX2E+5xzzvHvvfde/4orrkiF6dxzz81odFhU6T9+/HgTHyhFJ554ovlm7ieu6tSpY8pwVLlNUpK5j/Csu+66Jhw333yzSRvqMsoP+QmlPA4UIZ5JeuZDVdZ3Sbj44H7KAmlBniEc1NPUN1xn+gh5LEo54rNU+SJaL5BPUdxph+KmLVLv82wMLyi2TzzxhKkjyFvkMcKeK4tT3YSiTZ7geXwLaYtB69prr/V79Ohh4jtcN6Bco6Tjvv/++xtZhTYD/+RT3h9u+8IUa3R4++23/RYtWpj8fcghh5h3okyfdtppxvhEursh/HFGB9ou/JBegwcPNt+KUt6vXz+T9m3btvW/+OIL6zs/rr/+evPecBuIbIMb8VNK8jE6YIQjvjBy5UOh9XYcGBh5FukvhBBLItXa6HDyySebSpqDXjoUCnoVmCd4xhln5N2AJOGEit9++8265A4CI0JsrjgBlCNurt6vv/5qesoRxuJ6IRGIuBdDSRRGJCBEcJ0emDDEG0pRnKCDQDd79mx7VgFxwggQeqHeeust61oBPWX09CYJx9wfJ3jlsqYDSgSKRVxvHT3dCHwIq3G93vkaHYp5Vy5rOrgROxdddJF1qYA0c2kaJ+QThxwoND/88IN1rQAhnXsRGKPMnDnTKJYISHF5CWWTXjnSj2dEBXuMagihKNZx346RjvswmuUDc3z32msve5YOginPRJgOGwwcKBX0siLAhSGOUBj41q+//tq6pkNvP98a18tNzx8GA4R2fodxvYYoQHHxcP/99xujHL3fcUaHRZX+KA4oFhtvvLEx+EV57bXXTJ2A0hEmSUlmbjTGnzhF7oMPPjB5ZaeddrIulSFuUQTzoSrruyRcfFAXYnyK+36Mkvgh30YpR3wWky/IC+SLpHqBskWbhmIbNu7xG8WNUUFxYOBg5EUuLG5102OPPWb8U7/EQVpFYcRHtB5yOGPJK6+8Yl0qKMbogGGekRcYCydPnmxdK8C4h7HGxVvU6IBxhfoTeSou3sl3jAaiMyRfaEcxymIIC0P+xojFSKVSkovRgbKBrIi/fA2exdTbcbjOrUyjs4QQYnGmWhsdDjzwQFNJJx0IXSgSxQwHBBQFejoLgcYZZSNXnACa1AsC9ELhh56fMG5hzTjBNgzfg9EirETzfSyQmQ/EL+/L1ENBw4+yx1STKNxfqNEhG9zLM+j1iZKv0SEbmd6VzehA3qQnkjAlgUDNcH8UpSjEIQotwmASDO+mty/K7rvvnmgQciAAEX6OqGDP/QigLJ6aBEN0UR6iQ48zwbvient4P0NzGYobp0hkgnhCIYpLI3B5jh7qJFDGyMuDBg2yLguFfNKPMGVSEhjizvOjRodFmf70RmdL/ziSlORs0MNOD30SKCNbb721PctOVdd3Sbj4wHiDspGEmwoQVULKEZ/F5AtGAmTLF/TqE2bytYOpE7gxIq9YFre6yfXQM+WxFNAe8DyMSlGKMTowsgZ3jEpJMJ0KowT+okYHd/+LL75oXSrjDDYYYvLByS1xozPcyIuXXnrJuhSPMzqQD8jr4YP6FCMn1zkYDZIPxdbbcTCCj7DkOwVJCCEWF6r1QpLsX7znnnumjkDB9zbZZBNv+eWXN9f/++8/s0BR//79zXkxBHFpf+UH9wXKjj3LHRZWS2KzzTYz/99//33z3/H888+b/yeffLL5n0S/fv3Mokmvv/66dfG8QDD3Jk+e7F1xxRV5LajWvHlzLxBS7Vll2Fs6EADNVqKFxmEhrLPOOub/zJkzzf9yUsy7AqHaLJDGNlhJBMqDd9BBB5ntRQNhx7pWwHZfHEmwrRb7ogdCrHVZSCDgmW1eWbQqiV122cWkYRwsqLrrrruaxVOTOOyww8x747ZGjWPevHnmf6BMmf9hiCsWg+vbt6/Zaz1f2rRp4wWKoT1Lh2+BQIE1/+No0aKF2R+dcuJw6UeYlltuOetamaQ6aFGmP/VFtvQvJZQT0pc0jIM0/+WXX+xZdhZFfZeJE0880QuUfXtWGRarA8pdKcgWn+XMFzvttJN5f6D8WhfPLK4cKHheoKB7jz76aFGLaC5udZNbjHrw4MHeu+++a34Xg2szAgXT/C8VpF29evW8I4880rpUpmnTpl6PHj3sWTqk5+qrr27quST23ntvr27duqk6M1eGDRvmNWnSJHYb5GOPPdaEGz+lBhmF7wkf2267rde9e3dvjz32MGGijmALyrj6NY5S1NtJVKWcJIQQpaRaGx3YZ/nBBx9MHU888YSp4BHC2M/Yce2115pVfguFRphnFiKcfvrpp6bRyxcMKkmsttpq5n9U2HTC0wYbbGD+J9G+fXvz/5133jH/gTjaaKONjHLUsGFDY7xBiL733ntTimAcG264of2VDM9i9Wt28yglCxYs8G688UavV69e3vbbb2+MMe4g7MBK4KWgXO+aNm2a+X/11VcbITvpuOuuu4wRDWEnSqa8AuQXBBmEJAflAQUvl/SL88P9rGqOMSkuvO5gJW5w35kNl9caNGhg/oeZOnWq+Z9LmONI2nEG3LOPPvro2O9wB0rCe++9Z/yCU0CyhYk0WGmllexZBYsq/dnbfe7cuQXHZRI//fST2emHldVR7MPlZOzYscZPUjnB6ECeypVFUd9lIltcYgCoVauW9/bbb1uX7BQTn4XmC85zyRfEK/mXfAkY1ydMmGD+o8xRhqkrzz77bG/SpEkpf9lYHOsmvvXKK680fsk3jRs39vbaay9v+PDhGdOTnXgwSHbr1s3bfPPNU2lHWkKp2icH9RHlIVtHR5Lxle9jV4y4+HIHxh6Ma7nEm4O0mDJliiljlIEoGIdoWx9++OGSG2LIg9Sv0WP06NHmfewMNnLkSG/MmDEmrXLBfTvPiYsjd2Sqt6OsscYa5n+p5SQhhKgqqrXRIQl6QQcMGGB6Yxz5CHpRaDwQzmig8uGDDz4wDUiXLl2sS+7Qk5CNqEXc9bL9m2UbLXcdS7wDaz9xRE8HwhhCAI3wAQccYIRTGug4chEknWAVfl+xoBggCKI0IMTQa9GnT5/UQS9XqSjnu1ycIDzvsMMOiQdKB8pHnOKaS16BcH7JNa9AXI+lCzeCUlx43cHoI8JNr2ou1K5d2/yP9r5CPmGOI270hMN9DwJq3He4gx45tuF1cZlPmOLKypKQ/rmCEaBly5beddddZ0aF9OzZM62cJCk6DnoD8xnBsijqu0xkqwu5ThqEw5GJYuOz3PkCP/gPK7j0IqP033fffabnGOV/6NChph5Ya621ctqSMJ8wVGXdhMKMUQbjM4o3Iw3Z8pH76TnHQBSGHn3aBrZj7dy5s3fMMcek0g7jZhK5jIzEMBAHcVdovAFxh7EoLr7CB2Vm//33t3dlx41geOGFF0xdFne4kZuXXnqp+V9V8M2MdMCIhCEPY2w2XB4rpt6OQtsD999/v/kvhBBLHIFAsdTCVmNEAQfzEAuFucAsrMWKztFF5DLBdmy8O2horUt2ggbK3JNpfi9zBfHDHOEwV199tXGPW5wqzG233Wb8Ja3E7wiEF/OsQKgy/qdFVrEPBByzAFQ2WBSQ+IvC/YWu6cCiT/gJBHPrkg5zVbketxhnIAzktaZDMe/KtqYDC41xPW5uby4kxWEYN1c0uoAic1IzLeznYIs67iffhWHBRxZqKyV///23eRcL8kVxcZXPiuCObPHkyk6giFqX3KBM5BImFm3EX8fImg6LMv1Jv1zSP0pSHdWpUyezuB+L3caRFA4H9QxHrlR1fZeEi4+kRQYd7IKDP+qEMOWIz6rIF6wHkcsaHCz4ymKkrMfCkQuLY90Uxw8//GB2xqhRo4a/3377WdeF27ESrqRyndSGA7vfcO3TTz+1LpUZMWKE8RNdH4H1OFingrycCda64v7omg58A+s9/BfZ7aUY3Fofbdu2NWtcZTrIUywAGt3KuBDcmg657F4B559/vvH/6quvWpdkiq23k2DhV/JSdN0XIYRYEljYZVANoSeUIYvMHY2DEQZMt3DQGwFBnHjXXHONd9xxx3lvvvmmccsG81QZIsowPO7LpXef6R1Y9Zn/SC9IVcCIikDY9AIhyLpUhrAHDaXp9d1iiy2sazw8KxAqvUBINueBQG7+h/n222/NEMIkZsyY4T322GN5xYHrRUjqjQGGuK+66qoew6LjoLetVBTzrmzfwpBrpt/QsxrXu19O6H0LhOO0YedRxo8f7wUKsz1LhxFAgdDqffTRR9aleBhJQm933Nx+4opeaIbGM10nCcp4vriyM2rUKOuSG4SJvEGdkilMSb13izL96Yl75plnUlNL4sgnLiknDBtPGlGSrUyS5kx1yJVFUd9lgiHameosF87tttvO/M9GsfFZKJTrbPXCQw895H322WfGbzYYccEaRQxdZ0pgLmvfLI51UxyrrLKKd+qpp3qdOnVKW+uFtIOkUXCZ0q5du3bmf3gNkihMA4qDMk09Qn2UBO9Ouj9Q/E05vOOOO6xL8VD3MXrjkUceMTJZpmPcuHFmZCRrrVQ1Ll+6aQ6ZKFe9zXQdOPzww3MacTF79mz7SwghFgOwPFRH2KaIz+PYcMMNzT7LrLzMtkOsSk3PurvOPu6OMWPGpNyx6OezCj5bZ3IfqxEn9YJ9//33KX9sXRU04PZKbhQz0gHcKvnsCx7trfjrr79MDzLX2c4rDD0nSb0LrOzMPeG9tSEQ0k2vBL1KcdtzBUKpWdGdnhe2QIvC/XG9cYwm4X30xiTh9oOPiyd2GaCHkOulGOlQzLvcit1sr5XE448/bvywn3tcfqGniNEicemTFIdhkno0P//8c79+/fpmC9a49KHHh1X+A6XH3E++C8Mq6CuuuKK5Py5u6KFla7jnn3/euuRG+/btTY9PHG7Fenrk4uJq1KhRZru3uFE52eLJba9Iz2VcTyGrtQfCYKVr9OK6MMX1StMbWbNmTRPX0ZEOsKjSny1tXfqxxWAUVrBndBd79IdJqqMYIcAuHtQzUehRJaxx4QC2zWOXn0AxtS65UZX1XRIuPqgLqZPj2pRAiTJ+4urscsRnMfnC7W6QVC8EyrDPCDe2HA1vW8uIQL4zUMKsSzrkb9I4fE8Si1vdRM8zdXkcfA91TocOHayL7wcKtgkX8kYU0pNRHFyPyw9s18oWzOuss07sNs1s30x9wv3RkQ7Ew0YbbWTkn0CJt64VUOapg1y8RUc6UIb4DrZ/jcv/XGeb0ehonST4FsoFO+XkCnU/aRfdopxRaNSFuUK68425jHRgm2TCGd3OMxPF1NuZcHUFu2vce++91jUd2iB2VGE3pehOJYzIjKvPhRCi3FRbo8PRRx9tKuZsB8JAeM/1M+yezO6IE9iSoKJHMUGgQ3iiccbAwTQAttFjW0jXmLPffD5TMRzFGh0Q+NhKjesYR9i+DMGEcLP/Nu7Roes0UgzpwzhAA8owQxQNBPUjjjjCbF3WpUuXSvvFEw8HHXSQESi4n3sR5mkMjznmGCO4IDiOGzfO3pFOJsGYoZZcJ9xsyXneeef5I0eOtFcXGjQQTNgvHiWBYdEIkAxzp7Em/vnWUhgdinkXwgh+2LYLYQIhonfv3pW2JENpIp4ZfoyQRNwzdPPQQw818UjaTY/ZPq4Y5QJQmMmzpD3h4vuIZ9KVZ++2227+ySefbO6PCvaAYEuYCTsKOWEm7CiPGGMQnjNtqRoHWyDGTcdxEO+UP9KQuELoYqtLyh/hZL/3qGKTSzyhDJCHeQbC5+mnn27KDuWBeMCdrfjiBEzyKWWAb+7fv79RNijLnTt3NvchqKNExhkdYFGlP0YcjIYIrxhuqcvIp6S/MyhGBf2kOsoZ2PhGprMxTYr8QX3DN7g4jAuHm6ZC/suHqqzvknDxwXv5TgwFtAc333yzf+655xoliuvbb799bN4pR3yWIl9QZ0XrhZ49e5pnM62B8IThOs/DIEFeQjG9++67jSHQKdlMVcuVxalucnU8BlHin86NO+64w5RrOhcwAoSVfKaJUQ/VrVvXTJdgi0sMJdRVPIO6imtxbTiMHj3avI80wOhNm0reJi/xPZdeeqm5HjU6AEP/yYNcJ9wYUZn6c/zxx5t2DJmIc65HjQ7AtA46C7hOhw1GDt5DnqYOo+yQd3LB5bG4TokknBGXesjhpqeRF+LKUBzO6NC1a1cTn9GD6VmEj7KOP+q6THJXHIXW29kgb7mOM+L8tNNOM3mOuoJOLWQRriGDhuVb0g533p00LUsIIcpFtTU6AA0ZvRX0CDjLPweNIkIRykm014Vek6ZNmxp/2fZ3TwIrMg24m0/qjpVWWsk/8MAD8+7ZDZMkgIbJZHRw0HCj8CBk4BfFF0Ue4ScOehEw5CBs0GBxD4pd69atTcMa7XWAsGBLg0ivEvdxINggoCIsJJFJMKZ3AGUCZYjnIRDwjjA05sxhDY9qYdTL2LFjU+tClMLoAIW+C+gZRCEiX+IPITVunQ/egUDBvFb3DvIqSuzvv/9ufaVTrHIBuCMkhd+LsITQR8+WG+kRJ9jDnDlz/H79+hlhGgEMvxib6PmnxzJfENp4RqYygJJKejjhi4N6gBFQCPxRcoknB72UCKqUGfds8nY0/0WhPkJIRwDlHt657bbbpvazz2R0gEWV/vSmYjx1yhN+UXZQzsICrSNTHYWyimKEwQI/PI+4nDJlSmp9k7hwUI64lst86jiqor5LIhwfHLQBKJS48WzWPUBpTKIc8VmKfMF6BX369DF1AXUX8UMZR/lMyo8PPfSQqbeJR/zzfOKCOECRypfFpW5i9ArlH2OBG9nGQX6jNxtDdBTePWDAgLR6hHYHwwtyCXkjUxtOG8G6HoSXe4nPXXfd1RjN3nnnHeMWZ3QAwovRlO926UC9hJEGpd2NxIgzOgDxychR0s21eeQ96rNnnnnG+soMeQSZCONLPtC5g/xA3e7SlTqKupB8nWtnDuWJcCcdyBaM1qHeuPLKK/Mq82EKqbdz4aeffjJGS0auhMON4YV2Jm6dMuKGd2M0jxutJ4QQ5aQGf4KKqtoTVLBme0q2NmTv7kx75gcNmVlpmhXMiyUQHrygQTQrPnMsjvz66695h41t01hxORA2rUtlAiHE7EPNPEzHX3/9ZdIgEFSsS3GQfQl/trnezH8MhLPU7gflpNB3MVeVvBcIm9YlGdYHCITqksVjrgRCkhcIqRnLTyb4Pnb7yGW17iRYj2WdddYxc/HZMSQbvI+0KDTMmQiEOJNe+aY191HmAiHZuuTHokp/8ihleIUMO33kAuXW1SG5xEEgtJt9/7/77rucVu/PRLnquySGDBli1vwJlBzT9jioJwKltOjvgXzjs9TQzlHfB4q7dckObTJpUUxdEGZxqJscxAfPy7V8st02+YB2oxCKyZ+0x4S3mDLN+8nLiyLvOQYOHGh2dGHHmcWVctXb5LXvv//e5H3WGMsEfiknQghR1Sw1RgdR9cQZHYQoBWxFhpDLYqyieoORY+WVVzaLp1177bXWdckhyegghCgdLAR76KGHeieffLJ1EUIIsThRbXevEEJUX9jL/qWXXjK7n4jqDSvl00N4zDHHWBchhKhg/vz5ZieTPffc07oIIYRY3JDRQQixxIEC2rRpU+/CCy+0LqI6wlBkRgp07949ta2xEEKEYYoI23yutdZa1kUIIcTiRs3/BdjfQpQUhkSzH7qGFItSw5xUhtOylgL/SzEvXix+ME+Zee4nnXSSqU+WROrWreutv/76XqdOncqyrogQSzuUq7Zt29ozIYQQiyNa00EIIYQQQgghhBBlQdMrhBBCCCGEEEIIURZkdBBCCCGEEEIIIURZkNFBCCGEEEIIIYQQZUFGByGEEEIIIYQQQpQFGR2EEEIIIYQQQghRFmR0EEIIIYQQQgghRFmQ0UEIIYQQQgghhBBlQUYHIYQQQgghhBBClAUZHYQQQgghhBBCCFEWZHQQQgghhBBCCCFEWZDRQQghhBBCCCGEEGVBRgchhBBCCCGEEEKUBRkdhBBCCCGEEEIIURZkdBBCCCGEEEIIIURZkNFBCCGEEEIIIYQQZUFGByGEEEIIIYQQQpQFGR2EEEIIIYQQQghRFmR0EEIIIYQQQgghRFmQ0UEIIYQQQgghhBBlQUYHIYQQQgghhBBClAUZHYQQQgghhBBCCFEWZHQQQgghhBBCCCFEWZDRQQghhBBCCCGEEGVBRgchhBBCCCGEEEKUBRkdhBBCCCGEEEIIURZkdBBCCCGEEEIIIURZkNFBCCGEEEIIIYQQZUFGByGEEEIIIYQQQpQFGR2EEEIIIYQQQghRFpY6o8Off/7pvffee96LL77oTZ8+3Zs3b569Uhr+/vtv76+//qp0iPIxa9Ysr0aNGt5ZZ51lXRZPatas6R1yyCH2bOmkVatWXqdOnexZ9eTSSy/1tt9+e2/cuHHWpTC4n3z99NNPW5dFz1VXXeV17tzZu+mmm6yLqGrmzp3r9ejRw+vevbv3ySefWNf8+P777711113X69mzp3VZshkyZIgpK4XGh6gavvnmG5Nv999/f+/bb7+1rvmT1I7sscceXrt27bxff/3VuoiqYnFsr/JlUeSf3r17m3j7999/rYsQ1ZelxugwefJkb7fddvMaNmzotW/f3ttuu+289ddf32vQoIHXoUMHb8KECdZncay11lpenTp1Kh3LLbec17ZtW1OpPfjgg9a3EKK64Pu+169fP+/cc8/1jjzyyGpnYBo8eLA3cOBAo6giKImq5+uvv/Y6duzoffjhh96IESOM8lUIKHwff/yx98orr1gXIcoLeXbrrbf2fvzxR2/kyJFes2bN7JXS8M8//3hTpkzxPvjgA2/OnDnWVYjcUP4RovwsFUaH0047zdtmm228iRMnmpEIUahoaBBLBY0pjWr4OPvss41xY8aMGd7ee+9tGl9VbEJUDxYsWOAdeOCB3hNPPOG99tprXq9eveyVJR96YI444gjv7rvvNkrqsccea6+IqgRhmHZjyy239F5//XUzUqFQNtpoIzPS76233rIuQpQP6kSMZfvss48ZZdq8eXN7pXQsu+yy3vvvv+/NnDnTW3PNNa2rELmh/CNE+an2RocLLrjAu+SSS+yZZ0Y7XHHFFUY5GD9+vOmVZMTDCSecYH0UT+PGjb2TTz457TjnnHO8m2++2fvoo4+866+/3nv11Ve9ww47zN4hhFiSYZTDqFGjjNDCSKrqBN82bNgwU3dtttlm1lVUNShqb7/9tnfrrbea0XPFst5663krr7yyPROifLRu3drUH8heKHflokmTJt4666xjz4TID+UfIcpLtTY6MHrh//7v/8zvZZZZxrvzzju9Rx991DvppJO8nXfe2Yw4OO+888waD8svv7zxV24IR58+fcww5ccee8x75pln7JXKsBbE7Nmz7VkyDAv7/fff7dlCuPeXX36xZ5XhuaxvUSp+++03M08YBSUXCNvPP/9sz3KHXlfmhRYy/y3X+EwiLp4JB0OVuVYK/vvvP/O8bN9HPBMW/Dtw++6770xa5AtxU+qRN3zH/Pnz7Vl+MKfyjz/+sGeFQ7qQXxiJkAu5xj/Xw/Ffu3ZtI7DwPwx+4kZXReFbKT+FQLoXem8uoCSstNJKlfJ+PpC/ovUNzyNt8qWY72Vodz71TiH5MJ8ySJkjTLnAVEDyWy71NmGO5nneE64v8JNL3ixl3cA7KV/lbiegmLr5hx9+KKgO5p5c0zNKufNamLi2jHzF9B3SOwnyC2U2/M25sOKKK5p7ssVpHPm0I4Q9V798Rz7tUyHlIJ/ynY1sdVdcmhLmTHIg6VlI2SafFtPmFFq+cCs0z1MfkuaZ6oNc8g/hyUVGiIO4LrQ+49vzlV/zrW/DcG+0DSk0PxcS9ihx4SEPkpcy8dNPPxUU5+Woj6u63oVcylqVEmSGassxxxxDSTNH3759rWt5WW211fwNN9zQniXz2muvmXANGzbMuizk/fff9w844AC/ZcuWfo0aNYyfunXr+jvvvLM/bdo06yudCy+80PgLKgP/kUce8bfYYgtz3qdPH+vD94PC6l955ZX+5ptv7i+//PLmOsfqq6/uX3bZZX6Qqa3P3AkqM79Xr17+mmuumXoezz7ssMP8r776yvqq4NFHH/V32GEHv3Hjxin/gTBiwhkUDOsrnquuusrfeOON/UCpM/cFipC/xx57mDgJCqxxO/PMM63vCgqJzyTC8Tx9+nR/7733NuHArVatWibdR44c6QcVg70jnWWWWcY/+OCD7VkFPK9///7+euutZ57D82rWrOm3b9/ef/DBB62vdF566SXj77777vM/++wz/6CDDvLr1Klj3DiaN2/uDx061KR7EkFlZ+KsXbt25n3c17RpU/NdH374ofWVH08//bS/7bbb+iussEIqLOTHCRMmmOtrr72237FjR/M7StAw+Mcee6y/1lprmftIr9atW/unn366H1TI1ld2iP8bbrjBb9OmTSrN+U9eP+GEEyp9WyHxf9dddxl/jz/+uHWJBz+HH364PUtn3rx5/kknneSvs846qXAGiqWpq4KG0r/99tuN21NPPWXvSIfyRFzWr1/f+GvYsKEpX1OmTLE+ioN4pG4gHlw+p37r2bOnHzSA1lduEC7yGVx//fUmrnkeB/mW69nKY6Hf+/rrr/vdunVLq3coH+T9QMC0viooJB+S77fbbrtU/cTRqFEjf5999vGfffZZ62shH330kYnDcD3MN3Xq1Mm/7bbb0uriQutt6prjjz/eDxQO/7jjjjNxxX2BUGR9JNdHUMq6gfgk7po0aZIKP+WMPEAdRV4PU0g74ermjz/+2NTNe+21V6os51I3w4wZM/zu3bun3ktabrrppv4tt9xifaQTroM/+OADcy/lhLySK5SjQw891F9jjTXMs8hr1AfUU6RdHPnktSTCbdljjz3mb7nllqlncfB8ZBTHQw895Hfo0CF1nTjdaqut/FdeecX6iCffOHUU2o6Qb6ijkhg3bpy/9dZbp+oQDvLGzTffbH2kU0g5yKd8ZyOfuisXORAKrdeLba+KKV+FyjjU1+eee66//vrrp76Vem/HHXf0J0+ebH1VkJR/CpERHJ988om/7777mnzjwo48eskll/iBEuofddRRxo3fcYwdO9aUT+RW/BHnlI2JEydaH+nkW98m4dqQQEn2Tz31VH/VVVdNPW+llVbyjzzySBMvmcg37JkIt2nUj7QJLjzUf5QJlxfmzJnj9+vXz4TT+SHfDR48OLbNd5S77a+qevfVV181Og7h4D7Chv40YsSIjG1gVVCtjQ5USi6xUEyrglyNDmQ6wtW7d2/r4vs33XSTKVjrrruuP2DAANMQ3n333SbD0/iS4RCooriMfPnll5v/NKqDBg1KZXgaTgoOz95///2NoeOBBx7wr732Wr9z587mniThM4nx48ebCoSG9cQTT/RvvfVWE34qUBoGhNywEoHixXuocM4++2zzXTQ2GC0o2K1atYqtDKhgaKy5l7BeeumlphEaMmRIygjBe7lOpROm0PhMwsUzz1huueX8DTbYwL/gggtMeIYPH24aLK5TKVDpRSEs0XieOnWqCYsTqjGukDYIBQhWPG/06NHWdwWuQT7nnHPM/QhFxCuVPOmLksL13Xff3d6RDgIA8ULcH3LIISYvoEifdtpppnHk+6677jrrOzdoCHgnQgnhuvfee/0rrrjCCBq40/gnCYtvvvmmKa/kJxoG4vTOO+80DQdp3LZtW/+LL76wvjMzcOBA8z4EQwShJ554wuQ18inPJ/0dhcZ/sUaHt99+22/RokVs/NO4ExcXX3yxuT9OiEPQ4xpl4uqrrzaKGkrVJptsYvIZ9xYD+dc1doSf8o1wRX5HmCG+nnzySes7O5QN8ijlHWGN/6NGjTJllHxDfsM9yYBQ6PdSJxDHCBFnnXWWKbvUky5PbrTRRkaYdhSSDxEMeAdhocyQJ3jPeeedZ5RJ4tGB8IwgQBm76KKLzL3EK2Gi3iYvOsW6mHqbe6iLEbapp0lDhNw//vjD+kg2OpSybkBQ4/u5h/JHfCJw8swePXqYMITzUaHthKubMTZG62YELZQMrifVzbyD+8gnxBNK24033mgER+7bc889Kyk3rg7mPSiV1BcYeJKUqCiuDeVAoUEhpTyQ18lrzZo1819++WXreyH55LVMuPgiD/Kf7yQPjhkzxpRH3s+B8Hr++ecbP126dDF5kO9DCSGv4p6kQBQSp1BMO5KkNJLvd9llF3P/NttsY76DvEG8bbbZZsad8hKmkHKQT/nORr51VzY5EAqt14ttr4opX8XIONSf+MFgQbtBmClrGG35Fr4/TFz+KVRGAMo0Cne0jPMc5M+uXbuaTjqeETU6kGcxOHEtKvtS/nE/4ogj0pTIfOvbTOCXPEJduvLKKxsZmrDTbmNE4f2ke5xxtJCwZ4PwYKClM4k0Iu+RfuQnV4YxNqPrkb7oIMQ5dRqyAvUXfpLqyHK3/VAV9a6rN6L1J2WM+zB0zJ492/queqqt0YEeHSKYg0QCMigFHOsqFkoKIYWolJafXI0OCBOEDWXVMWvWLJMB4xpielLIjDvttJN1qcBlZCoaKpc4EMbo9Y/DVXrZrGcOCh4FE6X/yy+/tK4VYKmjMqbQOiZNmuQ//PDD9iwdjAG8P05xcFbga665xrpUQCVNo0rljZ+o0aHQ+EzCxXO9evVMBRH3XBof/NAwR4kT8sl7VMRxFmOEaxpNGqyooO0aZJ6JZTYaFp7r0pUGMgzxRhmgUo6z9iOYEC8ogVTEueB6OXhnnFJw//33m+fR2xAVFmkoaUgYMRM3Qoa0QpDDcpsNhDAqXHpt4qCBxHLvKDT+EV743kKMDvR00euQFP/0RCCMuHwdFeKox3Cn4Yry77//GmGD61GFJR9Q8nh/XM8pvQGkIcImv3MBYY68ivCCEBflvffeM/UX9XKUQr+XfI87ZTGsbDsQesl3rl4sNB8i/FLfYSSIQlkLN/DUV4SJ3tA4qLPCFFpvE9fEJ8JQksE9rj4qdd1Abw5hJK7jiH5voe2Eq5upX+iNjaub3f3Rupm0oC1AmYuru+655x5zH72EYVwdTDxTxuPuTYJ2kzaU9InLa6Q5QiuKXlixzCevZcLFF3kA40cU0pY0RgjHH4abKMgB1I0oktH4LjROi2lHIMnogOLAc1GYohBvyBkYpn777beUWyHlIN/ynUS+dRfkIgcWUq8X214VW74KlXEoW4T5xRdftK4VfP/990b5QokLE5d/CpURZs6caTrgkso4nXIoxy7eCHMY167Fyb60eyjGXGcknCPf+jYTxDsHhto4Qxm6E++ibEUpJOzZICzIdhgxooYOnrnffvuZZxKnlI24bz355JONH5T8MFXR9kO5612eyX1J9Scjxag76ZBbVFRbo8O7775rIp+DxpsGwp1HDwTdfApjJnI1OjA0iXdTseYK1kVnQAnjMjJWvkJA4Od+FPRcIMNSUeYzSiAbKCM0SmHeeOMNE644Bd5Bg4BFH39Ro0M2kuIzCRfPGFuo5JJwhpKoEkRFk9QzmQRWdZ5FT0MY1yBT8cRVeEAjyTvJa2EQvLiXRiMJKkss+wzRzAZCCelHL2RSWIAGnvdGhUUMb7jHCQcOJ5jQqGaCIa/4o0ekFCTFfzFGB/e9meKfqUsITPgLC3E0jsQ1wlESNHbUaTSIheDKHb1fSaA0IdwiZOcC4eWZST1C4ASVcKNf6PfixnDKpJ7xOArNh/QQ0nuaCwceeKARwHMNUyYy1dtOQIvm2zBx9VGp6wam0vC8Z555xroUR1w7Aa5uRlHMVDcfffTRxl+4bqanFIFy7ty51qUyKD0oEOGhya4Ops0PGzJzgR6ubG0oPZI8P6wY5ZPXMuHiCyU0CXoV8cNIwySoZ/ETNYwVEqfFtiMQpzRi5MR/Pm1voeWgFOW7kLoLssmBhdbrxbRXUGz5KkTGQZnl3kztTRxx+ScbSTIC352tjNNbzb0cpLvD6S+ZZF+gDDCSwhlESlnfEq8owCjcSaDrkD5hCg17NggPCjPGnDg+/fTTVFwy5SEOjIq8EwNFmKpo+6Gc9S75B4NhtvqTESLcmzRSotxU24UkA8HD/vK8oCL1Jk2aZBYz6tu3r3fxxRebxRwbNGhgrk+bNs1sdxcosOa8nLDIyFlnnWV2sujZs6cXZCx7JTvrrLOON2/evMSFU4JCbn/lB8+FQGEz/7Px/PPPe127djWrn5cKwsBWRWGCRsf8Z/ePJALB2guUFXuWH9niMwneF1SA9qwyLBIKLvzF4NImGjcOdmMJhAR7lk7Q0HtrrLGG2WovDIuX1qtXzwsaautSmaDy8nr06OEFgkrWxXSCRtUsMETZSgoL9O/f3/5K57nnnvNWX311s61tEnvvvbcXNBZmu7VMrLvuuua72SHm0UcfLWgRuTDZ4r8QKD/Z4r9p06Ym/qO4uA4aJutSmUBQ8A466CCzHWKgtFvX3HFxnKk+adGihUmvyZMnW5fcCJQt+6sygfBu/ofza6Hfy32Ua/JkIMwat2wUmg8D4cnEAyvzZ1vgjGcHypUJF4tOFUO2ertNmzbexhtvbM9yo9R1Q4cOHcz/wYMHe4Ewan4XQ1w7EaZfv34Z6+YBAwaY/+G6mbTcddddjXyQxGGHHWYW/IrbYnTPPfc0cZYPubShO+20k/le8qUjn7yWC+TnJNxONbn4mTFjhvnvKCROi21HkiCuIZ/7Ci0HpSjfhdRdYZLq7ULr9WLaKyi2fBUj4xx11FHWpXwkyQjUMdnK+C677OIFSqI9q8Dl2UyyL1DfzZ8/32yhDKWub9u2bWuOJDbddFPv888/N2nnKDTsuUBcuviOstZaaxmdjnTfYYcdrGs69evXN/dH66uqaPvDlKPepQywsGa2+tOlC2VkUVBtjQ5kwDAoIx9//LF33XXXeaeffrpRSqgkyGhABVEKJRFYZfSUU05JO4455hhvxx13NJX6RRdd5HXv3t278cYb7R0V/PTTT96FF15ojCBkaDKXO8aOHWv80KjFwTdm4vHHHzcZslu3bt7mm2+eei7vgaTnhmGV1blz53obbrihdckdCgUK+V577WX2mg9/2/vvv1/p/e+88475v8EGG5j/SWQKSzHxmUS2b6eSrlWrltneLhcWLFhg8kKvXr287bffPi2MzqCSFMZMDQKsttpqlYwqxCtxisEmE+zl7/t+1sbLXc8WL4SFXRCiYPRjRV8a6KSDxhllAr+Z4JsmTJhg/u+xxx6mESJOzz77bGN4jDMsFhP/hUB85RL/cQqj+/6rr746Np7ccdddd5lvRYDNl6lTp5r/Rx99dOyz3YGyy84/uULar5xhi0byB4Tza6Hf674hn3qq0Hx47bXXmrKCUtOwYUNvk002Mfnm3nvv9TBqhjn++OON0E/d06xZM2/ttdc2+W706NHeV199ZX2lU2i9na09iKPUdUP79u29K6+80sQX9zRu3NjU/8OHD0+sH/NtJ8JkS28MMbVr1069mzhnlfKXX345Nr3dccYZZxj/4XR38Mx8oA1Fuc4lbxJ/vNPVW/nktVzIlEfIn5CLnx9DK9oXGqfFtiNJuLTOJkeEKbQcFFK+oxRSd4VJSq9C6/Vi2qtSlK9CZBy+NZcw50q+MgLf/csvv+SUhnF+nPElW56lfgAnKxdS32aidevW9lc8xD35n/rMUWjYcyFbm4bxK8ko4aBchusrIL7K3faHKUe96+IxW57jXuSwfOK9lFRbowMZINwwnXPOOcYqGgZLNdtnOrBYlwIUXRqZ8PHEE0+Y0RdYg6dMmeI99NBDxuoWhsLasmVLYxjBOMFICEZkuCNbr9UKK6xgf1Xm4IMPNtZmrO+dO3c2RhD3XBqhXHG9SOGRJLmAkWf99df3XnjhBVMosJqHv61JkybWZwW5viupN7vY+Ewi24gYrlMR0wObDSomKl8qLQwVGKPCYSTNMoHlNRuEJQzxmkv6OT/ZviOfPBEXdzwf4wDW6UwHgsn+++9v70oGazWN/n333ef17t3bCD1Dhw412+RijHzttdesz8LjPxdhJqkXONf4j8vXLi0oQ3Fx5A6MbBjb8hHOHe4dCFdxz3bHscce65122mmV8lcSueRVCD+v0O8tpJ4qNB9SdyHQ0VvCNXr0xowZ4x1wwAFGKKP+dxCu22+/3SjWl112mcl7EydONPXxmmuuaYwL4e8vpt7O1B4kUeq6ARDCULQR2hHcMBwMGjTI9JJtu+22pr10FNJOhMkWduofDhdu95/e0ri0dgd1B/mLMEfJN57zyZv4wb+rb/LJa7mQS096Ln7iymy+cZpPvGRrg8Pk81xHoeWA+/Ip33EUEt4wSfnRhTHfej3XuMjUXhVTvsop4+RCITJCPmkYF2+53u+uu3iGfOrbbBTSZhcT9myUo74CwlDutj9MOb4jnzyHn3zivaQEga62dOzYkRQxR9JccBbqcn5YBbVYgozmB8KSPcsP5vCwCEqgJFmXdFizgHBGFwYLKmvjznZhcTC/ietJazYElZ65Hl29OYlVVlklrwUYme/KPEdWT02CtGJBljBuXmW2BS7dQnPRNR0Kjc8kXDwHlbl1iWeqnUPK6sZhgkqh0rxSVqXG71tvvWVd0mF+JNdZYCvMS3a+Y1CpWZd44uKV+WxBhZZx7jMEAr8Jc7Z5pdOmTTNhSdpBwMECOPgjTGEID/NBA0HSupQeFuNiYVPmynI4Co1/FuLCPbogURieiZ/omg7M584l/nv16mXuD8+RZQ4fbrmuv1IIrPLNO4LG1LoUT9BgZ50rGxfXhX6vuy9bngxTynxI2lJvBYKeCQdlJBPU3dQN+CX+oZh6O66uiRLnp9R1QxI//PCDaW8DZTo1v7bQdgLyrZuZw+ugPYtbJyIbudbBceTahjJfmjWLMpFvXoNsMgPksm4Nu83gJ7qLQyFxWmw7AnH1jKvPcl0oG0pdDuLKdxKF1F2QLU0LrdeLaa+g3OWrGBknSlz+KVRGYH2SXMo422dyP/W5I9c8e9tttxl/2XakiKtvs5FLGxInQ5c67I5cwsOiniwQmgkWg2TtgzDESVW0/eWsd3OtN7766ivjL7yLW1Wy0DRSTTn11FPtL89Yn+O455577C/PDOV0uCGtDJOpKhjSFlSgiZbqXIfnRXFD5ZJ6bfN9LhY/5gO54XpxBHnL/vLMtBaGnjE3Lw56Lb799lt7VsF2221n/geVpfkfB/cGQrk9S6dc8Tly5MjE0RXgwuvCnwnCyIgbhmXFUWgYM0GvAnPwrrnmGutSmVmzZpm8zxzBoPG2rvEw/JFv4HmZ5nhfeuml9lc6hIehiHfccYd1KT1Y7IOGxZRphmK6+ZeFxr8b8vnqq6+a/3GE65YwlJ9s8c974+oe3tu8eXNjQQ/PoywlXbp0MVbzUaNGWZdFR6Hfy330NDD8MVOeDNdTpcyHxF+gLJreTgiEEPM/Ceb13nTTTWbov5szWup6OxdKXTckESgipn1mTSM3f7zQdiJMIXUzQ2cDxcH76KOPrEv54Z1PP/10xiGujIb87LPPjN9M5JvXqoJC4rTYdiQJevaJo3zuK3U5iCvfSRRSd+VCofV6Me0VLIryxXoohJk4TCLX+CtURmBkWrYyPn78eO+LL76wZxW4tMpF9kW+deshJRFX35aLUoe9KliUbX+pcLJStvrThYsyskgICl61JmgQjFWHo0ePHsYqyRY+9CJhfXXX2M+cldIhUEiMVc1dy2axC4OVtNCRDljGWHnUhSMM4XZhynekA3sicz2uV5Z3YY3leq4jHb755huzajP7JhOXUYJG1Wz5wh63MM9uY8iqrHGwlyzvj+vBOv7448019qkNKirruhDCzqrHQcVl/ERHOhQan0m4eKY3jriK691gP1z8xMUl74taagcOHGj8x6UdK0kzUoPrpRzpQDzSe8aWbU888YR1rYDtZrfZZhuz8nLQ4FrXzDCKgPBgMY4bWcIewzVr1jT72ROmMISHclqvXj2zZV4UrrOdVnTkSByshEwaBAKHdUln//33NysgB5WyOS80/gGLOs9iVfAo1C/LLbecyffRkQ70aGy00UaJ8U/5+n/2zgNMimJrw42ICcM1KyqKCUEMmDEhomKOGDDniDlguHp/MwYUE5gDioqoeM05XgMq5hxRjBgQBbP23+/Zqt3Z3u6ZntDLunzv8/TOTk11d3XVqapzTlcgj7xcI6uF4AEnnGeJbx0F7ODBCuaUo4c8fPTRRxutDl4Mv6VVpDgkvi1i5BjPlfVNUqS4VjTSASp5XvArgyOTSecxkootsvybiErlkG2t4vf2REqvpcFfb/jw4WGkhNr/cd5++22Le9xxx9n3atrtpLYmTlIcnrGWbQO7RCRtDQbUQfKfPIdq+gnfNlNnSrXNe+21lwupg5X3fX+W1A7QnrEF2RNPPOFC6qhmpINf7Z97om/EeeGFF8L555/fntW3VVCOrBUjzzduUGmeVtOPQFo743e8oP4i44X8/vvvVg/WWmut+u1JK60H5dTvYpTbdkGWMq2kXa+2v8q7fpXScZLkl93qeCa2UCwkSX4q1RHGjh1rcppWx0ePHm27H/h8KxzpAF5m03Rftm3nd0Zre8ppb0uRpQ9JGy1cSdpLkSU9lY50II159/2Qd7tb2G4ktZ/XX3+95eMOO+zgQupgFE+SLZcHrd7p8OGHH4YrrriiFUTaQeeP4upBSAp/TzI40qjG6eD3WKURveWWW8yYoZGnglIZNt54Y/u9XKcDnSoVccYZZzTF7fHHH7cGjy2QlllmGdufmt+yOh0A4WbYHIYVQwzZNgilDmHGKOe3wjxl73TSSOdCZeLZ2Ft50003tTyjjJKUSba4IX2cy5Z4bBWD4kHnSQNDuu+88077Pe50qDQ/0/D5zP05H4cGW0ux//tJJ51k+xnz+zrrrJOoKCQ1mh9//LF1yB07drRGCgcXnS9DpGgYGWrMNWvpdADqBWXPNbgHSghDk3HyzD777PZ8TFspB8oEo4FO+LDDDjNjiTxjX2XuQ6ONI4g0xWG7o+WXX97i9enTx/bFJp/JX87huvHyTWLw4MF2DRR25JJOYsSIEaakeSON4ZKeSvMfUPgYwonjYffdd7d70MkyHJVzTj75ZNtPOe50AIbCIT/Ei+c/6UE54Du/x5U44D4ovEwVoW7ReTMMH4ONsmPP6bcKtuqis+FaWRUOFAOMfM7p1q2bDcWjPE455ZT6esOWYElynkQ1Tgco93k9lCPlw705jzaPLeN8m0K7WGjUlSuHdNaEIQfkF/mDs5X0IROkuVevXrafNnmKTHHt3r17m2JGHeP6/E+bidyOG1e3ZWg17XYWBS0tTi3bBl9/uB7t7pAhQ8Ibb7zR2gL2/seALDRkKu0nfNtMm4+in9Y2UxZJMksakC3Ki/qKbFGG++23n7Vn1GPSUUg1TgegD2UrQWQHRwjtD+1Xv379rGwYdl3o0CxH1kqRt/ILleQpVNOPpLUz1D0Ucc7nXOow9e7II4+09o3w/v37u9h1lFsPyq3fpSi37cpSppW269X2V3nWr2I6Dro416D9QG641j777GPGPm0PemEhSfJTjY6AEw2nQryOoydTx8lzHB+cH3c68OKEbd35La770t8RTptaSLntbTGy9CFpTodK0l6KLOmp1OkAefb9nuZod327EW8/SQvn0I4WvnzyW43SniU5KmpNq3c6AIWO0kajR+b6g8bggAMOsPlOhdAwo5wTBy9lVsUaaLAqdToAiggKEoY796eRoANDyDCgCCvX6QDff/99ePjhh9d3ihykFQOMBgKBK8fpALxVZqSBb8y4JkoUHQl7WBdCg4pjgo6LikpcvNAol3jKaXyTOg4PFYcyQaHkXF/R33nnHXNMEJZklFaSn2kU5jPH9ttvb0o/YeQfnnX2SU4jrdHEWMJQJT+4FgcyNGzYMFM6+V5rpwNQL8444wxT5HEecT3mEKP04qWvhKefftoabF/XeGbeIPk1VdKURUBGmGvt31BwPuXF+bylzwpOKDo8OiAaX65DOXFdOuA4leS/h3xiBBUKpT+3e/fu5uiANKcD8DYWpQ8FwaeTfEMJoc3xb7qTlDgg3dybMvP3nm+++ayjYX58IeQfdYC0lQNpoL4Uthu0iSgz5VCt0wHKed5CcA5RviiN/rzFF1/cZB/DPk65csgc6b333tsUFtoB4lOeyB/OEtonD20dbS5tGW2lTw/PgRLGfPVCKm23syhoxeLUqm1AxpEVDCWUIP8MKPGMTomPIqy0n/BtM30SbxWT2maUwWKQ1xie1EcURs6lv8FYTXrmap0OgO6x7777miLO8yI33B9FN0mmy5G1YjSH8gvl5qmn0n6kVDuDUwrlm/n2XJc8RzZ8ex2n3HpQbv0uRTltV5Yy9VTSrlfbX+VVv4rpOLQn1IuVV165vj2gHDHOx4wZ42I1kCY/1egI6Jc4xwv7Leo7L+l4g+5HUpDWJHBcYCjSZhKPMsNwxgkdp9z2thhZ+pA0p4OnnLSXIkt6qnE6QJ59PzRXu8vaRZQ3I86JRz2jTUqK/8MPP1j7hBMy68jVamjDnyhRUw3Mn2KbkahhCdg6pBjMH40Ko2bb7pQDxRI10rYae1TZXGhtiCqCPVMkiC6keqIO0PbInyVl/YRCoo7c0uBXmi8Xtuws99xa5Ofpp59uWy9GDUajvZVJT9So1kROuBblEhmILqR5iDo/2zO5ljIRNWa2InCl+U15ka/VyH/UiNruFVnlpZr8jxQv2yM6UqhcSHaoE5ERman+JPHzzz9bGUYdpQtpSqSo297PJ510kgspD8qT52tu2Uwiy/MmwUrkpD9SPF1IacqVQ9/OZGkPypGZPNrtLNSybUDGI8UuU7lV209ApW0zaURWqrl3uZA3kYJbVvtRjqxNaSrN02r7kTSQDa5LnmehknpQTZ8Qp5K2KwuVtOvV9ldTon6hA/Ks1d6zGh1h8uTJQWSUVlyG6DLIbFbKaW/zpty0twTy7PubC+pZqXqKjCCXzcFU53QQolLSnA5CtHQw3mabbTbbRpZ9pYUQQgghhGguaus6FkII0eJ49tlnbWVjORyEEEIIIURzI6eDEEK0cjp16hTcfPPN7psQQgghhBDNh6ZXCJGRF154IXjmmWeCPfbY4x83N00IIYQQQgghpgRyOgghhBBCCCGEECIXNL1CCCGEEEIIIYQQuSCngxBCCCGEEEIIIXJBTgchhBBCCCGEEELkgpwOQgghhBBCCCGEyAU5HYQQQgghhBBCCJELcjoIIYQQQgghhBAiF+R0EEIIIYQQQgghRC7I6SCEEEIIIYQQQohckNNBCCGEEEIIIYQQuSCngxBCCCGEEEIIIXJBTgchhBBCCCGEEELkgpwOQgghhBBCCCGEyAU5HYQQQgghhBBCCJELcjoIIYQQQgghhBAiF+R0EEIIIYQQQgghRC7I6SCEEEIIIYQQQohckNNBCCGEEEIIIYQQuSCngxBCCCGEEEIIIXJBTgchhBBCCCGEEELkgpwOQgghhBBCCCGEyAU5HYQQQgghhBBCCJELcjoIIYQQQgghhBAiF+R0EEIIIYQQQgghRC7I6SCEEEIIIYQQQohckNNBCCGEEEIIIYQQuSCngxBCCCGEEEIIIXJBTgchhBBCCCGEEELkgpwOQgghhBBCCCGEyAU5HYQQohn4888/gx9//NF9E0IIIYQQYuqg1Tod/vrrr+C3337LfPzxxx/uzMrAoKj0Gn///belISvcZ//99w/WW2+94LnnnnOhlbHYYosFa6yxhvvWwMMPPxx06NAhuPjii12IaAlMmjQp+Oijj4Jx48YFv//+uwtNJy7nHFnOK4RzwjB038qDe1EXp2befffdoFevXsGMM84YzDbbbMHCCy8cPPTQQ+7XqZdNN9006Nq1a4t3xCDDn376qdU76l8piB+vcxzlkHaNpGNq5vTTTw/atGkTfPjhhy6kgd69ewcLLLCA+zZ18M033wRHHHFEcMIJJ9j/njPPPDOYPHmy+zZlOeecc4J11lknGD58uAupPQMHDrSyf/bZZ12IEEKIKU2rdTrsu+++wQwzzJD5WGqppdyZlbHbbruZQfHZZ5+5kOxsvvnmloYsxhlK74Ybbhjceeedwcknnxysttpq7pfa8uabbwZffvll8OKLL7oQMaX46quvgmOOOSZYcsklg1lmmcUcRR07dgxmmmmmYM011wyuvvrqRNlBEY/LOcf0008fzDrrrMHyyy8f7LTTTsGrr77qzmiKv8bBBx/sQrIzZswYu9dJJ53kQqY+fvnll6BPnz7BO++8Yw68O+64w+r7HHPM4WJMneCkxWH69ttvB99//70LbTlgzF900UXWviL/OIqod9Q/HCXI9MSJE13sxnTq1KlRffMHdYF+BmfLf//7Xxc7mbRrJB2ff/65O0tM7Wy77bbBe++9Z7JJ+37vvfda/3D++edbfzElwXHdv39/qzt77LGH9T15gbPhiy++CN5//30XIoQQYkrTJuoIKnuF2cLZa6+9rLPNCgrlBx984L6VDx3ojTfeaJ3+Lbfc4kJL8+CDD5pRAijibdu2tf+T4M0FcXFujBgxIphnnnncL5XDc88333zB008/7UIawOGw3HLLBe3atXMhLY8ddtghWHHFFYOjjz7ahbQurrzySjP4f/31V3vOFVZYIejevbt9x1mA4cab9GWXXTa45557ggUXXNCdWecwWHzxxYO11lor2GabbVxoHTgyxo4dG9x///3BDz/8YPWFe8Xx15hmmmnsft26dXO/lKZHjx6WvuOPP97eSE6NUCYYmbfeemuTMpja+frrr4OffvrJ5KslMXr06KBv377mQMb4x/FAncNR99prrwWvvPJK8MwzzwSzzz57cPvtt9tb20J4w0q3OmDAABdSByM6GC3x1FNPWb1addVVzShMckClXSOJvffeO2jfvr37NnVBu/Lvf//b+m76skIY6YCzb2pxyjACkv6afhsHw+OPPx4ceeSR5oDA4cnLiikFaUNHevnll63OLLPMMu6XfKB/fOutt6y/FEII0ULA6dAa2XPPPXGm2HHIIYeEp512WpMj6vjq4+yxxx7uzMrYcccd66/1xBNPuNDi/Pnnn2Hnzp3rz+N7MSZPnhxGxmL4999/u5DqWXTRRcPVV1/dffvnESlX4dZbb+2+tS7OPPNMk4vIAAkj49WFNuXmm28OI4MovOGGG1xIHZEibucj/2lECmkYGS0W7+yzz3ahDfhrcETGlQstDWnx5x1//PEudOrjggsusDwgH0XLJzLUwnbt2oUzzDBDeO6554Z//fWX+6UxY8aMCZdcckmrO3E6dOgQLrvssu5bU7jmZZddZnKx8cYbu9DGlLqGqIN+PK1+rbvuupaPYsrz22+/me7CpxBCiKmTqWIhyQMPPNDmOBYehx12mM3T9fBGoFp4G9y5c2cbQsg6DaXg7QNvqRkGmQXeXjAvnCHblcB0iaznRrJhc0CzTPngLQZDGRmpkRWuz5vOSiFtfo4qafTfOUrlPSNGsjwXQ6x5Y1IIb4141mL3YApMNc8Gjz32WHDccccFXbp0sSHokXHifmnK9ttvb2s8VDJclbe3kQEUrLLKKjYiIf68HoaU8+bstttucyHp/PzzzzYdpFZvmXhDzDVrSVYZQKa9nHmQd96e8pkGc/K9PMa/p+UxEC/LdANfPwvlkOf59ttv3bc6poQMl1O/0tojyjuevzxbWpoJp33Lct80vvvuu2Crrbay0WYvvPCC9Qm06Ukg20wfuvzyy11Idrgm0/+Ye89Ih0cffdT90vwga8hDIeS7l9s4hBeTe0DesvQzyPD48ePdt+aB9CP7lVBJO0T+xutkJXBf5Js8y0I19aHavhm4b2H7NN100wXzzjuvfRZCHNq8OJW2u56k89PgeuXqL7RdlUwLY4RhlnVhhBCiNTLV7l5x1VVX1StbLMi49NJL2//Vwjzg119/3Qy5YqDg/uc//7G5jaWMM9J5wAEHBIsuuqhNrZh55pnNuYFRmtRhF4JCu/baa5txycKQOC4wMEvNKWb4MPe59tprXUhjuC/pZ7g912Q4MHOW119/fTs3jeuvv96GFTMcmGkdPA/pY5h/VlA8SBsHyhjP4r9zjBo1ysVsAOcOc+mZksJBmpmucN1117kYTcHQJw5K2ODBgy3///Wvf9mz4vzZcccd65UzlKvzzjvPhooz75tn45Nh2pUM78Xgwfghv7hOKSjfSsEIIp0oXQwfT6Jfv342XQJDqZjRDKeddpoZnuRHpVQj82lUIgNnnXWW3Zv6itOFofTIOdNYkAHkP6kukXbOw5EDOG28fHLPQpCvQYMG2RQZ6sWcc85pMoZ8YTgk4esnss4Qcr8uTHxR2OaS4UrrV9rUCu6LYxhDD6cxaZ577rlNrjyUyeGHH255y7PTvlE25CNr3pQLQ/UnTJhgi9BlmUZE/rOIYaUwNQyae90cpngw1Wf++ec3WSNvF1lkkeDss882Y/HYY4+1Z4sbrMgJ4UxnKAZTAIutkYSjBTmljDFEuT9TIZjWkhf0x74Oetnnnm+88YaLkUwl7RDrCFCveD7yF7nlPNbfueGGGzIZzcC9uQ/1kHbByzfPQbsUN3qrrQ+16Js9TCfjmUstmEucffbZx31roNJ21+PPZxpTEpXoLzgaeGGFrujbaeoQjkrW0UgDHaxnz552feIjF3PNNVew9dZb27MJIcRUQ6SMtkoixSp87rnn7IiMJBdaR6Rch506dbJhmRxRp+p+qRymV0TGm/0fKd/h7LPPHkZKgX1PIupow6jzCSNFrn4qSGT0uV8bYBhv1CGGUQcaHnPMMWHUmYc33XRT2L9//3C66aYLI+Uu/OSTT1zsxhx00EF23UixD0888cRw5MiRNtx7s802s/CTTjopdXrF//73P4tz5ZVXupAGIiPHhhbze6Q4h5dccokN8Y+MhDBSCsJIEQ8jY8PFruPnn38OI2XUzok64PCcc86xZ4kU/bB79+4Wvvvuu2eaOvLLL7/YuRxRRx5GilL9d47IQHIx67j22mstHmXOFIK77747vOKKK8JIWbD7Ul6RIuhiN8Dw3EiBCyOD287ff//9w8svvzy8+OKL68/t2LFjGClG4XrrrWfPvfPOO9vvxNttt90sLFKqbWhpVt5880279r777utCKiPL9AoP+UbcSPF0IXX4azCM+aWXXrLnOfnkk92vTfn4448tr5DVzz77zM4td3pFNTKfRqUy4IdvI698brDBBmFklIbDhg0LI+MrjJRICx80aJA7ow6egXTvsssu9vv5559fL5+RIu5ihdZG9OjRw+LsuuuuVm8iZTo89dRTw8ggM9l58MEHXewGfP0kXqQAWz2OjCN7zkKaQ4arqV9pw99pS2kXIwXfpg6RN1ybdgReffVVaz9JF/WE9N5+++02JYK84L5JbVcatDvzzDOPyVa18ExZpkZ8++23ls6kqX1Zr1Eu1O/IaLO8O/TQQ+37VVddZf0R00ook4MPPtjSFe+PKH/CqZPFiAxVk6kk9ttvP7sGfQD9BtPGBg8ebH0AZc6UsnLIMr0C2Wnbtq3J8kUXXWTPS9+IzBKOjpBEJe0Q7V9kjIaR0R6eccYZYWTsW32m/q+22mqW7998842LnU5k4Fq7QBopD+593333hUOHDg379u1reVXYLlRTH2rZN3vQBzivlG5FHMonTqXtrqeYXFSiv3DOEkssYb/ttNNOVg6cM2DAACtryunSSy91sRug/DmHfOR38mPEiBHWh1JHKGMhhJhaaLVOh2Lcdttt1uFwdOnSxYVWR6HTwRteGAFJvPLKK9YRnXfeefY9zemA4tG5c+dwkUUWCceNG+dCG3j77bdNwaFDjuPn1GP0YKTHIQ9QuKaddtqynA6kkQ50ttlmC5966ikX2sD48ePDVVZZJTz66KNdSB1ekR0yZIgLaeCvv/4ypY7fL7zwQheajZlKrOnw3nvvmYKIoyUpH2655Ra7LwpNHJRWyglj5N1333WhDfj5+igqlPfTTz/tfmngjjvusDgYclkhjzgHJbMaynE6oCAT99FHH3UhdRQ6HYA57Mx3TzP6MTRRwiZNmlSR06EamU+jGhnwyit1O75mBvz4449m1GPIJaUXpZ/z33jjDRfSGAwhjL3HHnvMhTTwww8/WN1E/vi/EF8/kTuU9qTngrxluNr6VczpQHpoa5CjOBhAGEUY7nFIB0YFzoq0fInz1ltvWTrj7VYlZHUYPPPMM3ZPjKg4eTgd3n//fau7yy+/fPjpp5+60AZee+01M7JpU0lXrZ0OGHKcT1sThz7A9xHkS1ZKOR34bY455jCjPA51Ehljbac4lbZDRx11lN2TepFE3CGexr333mvXwXmXRPw61dSHPPrmWjkdKm130+SiEv2Fc1ZYYQU7J6l9xHG8/vrrmz6Fo6qQlVZayZw+8RdfwHV56SSEEFMLU6XTwb9Z5Ejr1Mul0OkAGFp8R5GLs9Zaa5kS4N/+pTkd8OITntQ5erxSj5Li+f33303RWmyxxRI7Ow8dK+eW43RA8UgKLwZ5wDm8ISgG6UCJSFKc0ijldNhkk01MOZwwYYILaQpvf1HGedtbiFda4289PCh6Cy+8sMU54YQTXGhT1lxzTUtDVpAdrplkJJZDVqcDMsIbZd6UTZw40YXWEXc6UDa8Tdtmm23seyEYzsTl7SlU4nSoVOaLUY0MeOWV+p3GqFGjGj13IcWcDi+++KL9xmiFNDAOMYwwZgrx9RPjdPLkyS60KXnLcLX1q5jTAWfJyy+/7ELKgze9PFPW8x9++GGLzwKP1ZLVYeDb/SSHE9fAGYXBUuwop62krHAyM5IqDUYekCaOWjodMOLpkyjzNLgfDgAMtaxkcToU66u8wR03XCtth7bffntzwmV1dqXhFxqNO4ErJa0+5NU318rpUGm7myYXlegvjI7hHEbIpIHzgH5x5ZVXdiF1MFqNtlMIIcRUspBkIc8//7zt4QyRshzssssu9n+tYd5rpDjaopKFjBw50rZMizq/IFIAXWgyzPdjDiNzQdPYcsstbY4j1/SwVRTzPffbbz+bR5gGc6bLhfmJzIGMFGYXUponnnjCPg899FD7TIO8ipQ1W8StVpAvG220kc0bTgMZYJ2Cl156yYU0hrnqSURGkc2XBcohje7duweRwVX2wlNR/XT/5UekbAfbbbddEBkitj1fqbUhqDOnnHKKLShZOB81Ml5ta0+2F9x5551daPlUKvPFqIUMFNvu0q/RQB6Wg09/sQVAF1poIcuLpC1tAdmkPpYiLxmuRd6m0blz58yL7Mbxa0WUu09/c9Q5Frg78cQTbUvnyDBusuWmh7rINofFjmLte5z//e9/to4Bc/7TYJ2NRRdd1H2rHb5PKtY2sIYN61wgJ7/99psLrZ6tttrK/deUyEi0TxbrLaTSdoj4rBdA3/vVV1+50PJh/Rw45phjUtfZKYe0+jAl++Ys1LrdrUR/8eew/lYa88wzj619w/osrDPlWX311a3tvuCCC7SApBBiqmeqczqcc8457r+6xd7KUdrKAWVk0KBBwZNPPmmOBkDxZoFA9u1nsa1SsCAlCiqKYtqB4jnNNNNYXI9XUrwxkQZOEfaaL4dXX33VFl/CWMmKNzZKLc7m9+5mH/xagEHNQnQsDJWUd/5gsS4ozEMPe+gXM6hYGAqWWGIJ+0yCRarg24yrmHfs2NE+0xbBKheUHhwKhcfuu+9ui1uxt/1dd90VHH300bZIVhYOOuggW0wLJwPOBmChNhZlu/jii+17pVQq82nUQgZgySWXdP81hXoEhYscZoG6BHvvvXdimvzBIo1pC95hmJciLxmuVd6mUSw9wIJ8V1xxRbDbbruZ4Y4R4g9kE7IuOoqBCeU6KdJgAdB4naO/QXap36eddpotWldsMTzy/JJLLil6sFheFigrFiYs1SfAcsst5/6rHb7sSXOSjPjj5ptvtjYFJ0UtoH9D/tNIq7uVtkMseooTcdiwYVavcOAgn1deeaWVQVboC3kxwbUpDxaj3GKLLUynePnll12sxlRSH6ZU35yVWre7legvPHOWcygnnJaFTqKhQ4daOC94WJgT5y1lgU74008/uVhCCDF1MFU5Hdgi8/bbb7f/p5tuuvqOOC94g8zqz6z4z1sCVgfn7QeryGeBNz+87eJtWLEDpX7bbbd1Z9XtRgDx1ceT8EZjVrh2lusWkjU9/neeuxb466DkJ+WbPzbYYAMzApJ2EZlhhhncf8XJEi/rW1T/5jPL9pRZwGBF6fUHO7fw9ua5556zdLP7AbKZFcoT5wLXRan64YcfbGQPb4JQcKuhUplPoxYyADgRS1HuW3KfNso7KU3+2H///c1oTbr+LLOU3tkkLxmuVd6mUezZUNgxhFDm27VrF2y22Wa2DaU/GH1RDjhvWLGfVf7LbROTYFRIYZ3jwMFAneONP8b1gw8+mNlpUC2+Dc7ybH+mbB2Y1VDDWI/jZQWnR5KM+IPtf5GVcp3haWSptxCvW5W2Q+QzO1QwcuLcc881Gb3vvvtshwZ2CGEERNZ2Av3ks88+M0cCDg7e6B911FFWj9Zaay2TMU+l9SGvvjmLrBSOCEij1u0uz1uJ/pLlnKQ8YncWnESMnEFWcP4ywgndEKcJ7YIQQkw1RA32VAOrE/PIHCzgVkviazp4mDNJOPN3ow40cT5s2poOzJtn8aJIUXQh2Xj99dfteqVWAmcxQOIxXzNO2poOpCkyTmyBqaxccskldq1nn33WhSTD3EziJa3Wn0apNR3mmmsuW+SuEiKlMnXOuSdS6CzNrIuQBovoEYcVsLPCjhyR4lbWompxSq3pwHom/M6uAGnE13QoBFmIlCibD8x6EPFFsSpZ06FSmS9GNTLAc/MMSXPGPdRb4lCP4xRb08HXi0rWLUirn3HyluG86hdtZrH53Kw/QXpeeuklF9IYv0ZD0iJ0aQwYMMDOOeuss1xIZfBMkXHtvjUGOWCNjsgIdCHJFLtGpbCjEgvelcKv8RHvj1iDKDKoSi6KS1vQMbamA+tIcE12caglxepnFtlPk5Nat0OkD3nmXtT7SmHnC9pr+gbS6Km0PuTVN/v1fSID24U0hbQSp9iaDpW2u2nnV6K/ZD1njz32sHar1HoeXIf8ZnFK0oi+JoQQUwNTzUgH3gQUepV5Y5AEQ5kZPs5bCoYrVgtvH3i7gXeb4XUnnXSS+6U0vCFkSOyNN97oQrLBHunMMRwyZEjRtwmFU02ywpBgponwhjuNSK7cf3X06tXL3hYUe5vOG7hIIbW3m36ebRZ4q5D2Zg4YBhspXEX30W6JMIwWIoUsmDBhgv1fDPbQLxeG9TPf+fjjjy97vj1QXsjC8OHDg5NPPtlkrloqlflitFQZ8PXioosuciH/PKZU3jLKBnljuHIS5Qxl9/Amkmuy3sKYMWNcaDq8afZvN7PCtCTaXd5+M9WgOWE61SOPPFJ0iPyoUaOCTz75xH1rDGsQMV2gWN489NBD1tfGoU9iugh9MG1GS6fW7RDT2BhhxgjLrGvRJDHXXHPZVLg11lij0TovldaHvPpmyhtGjx5tn0nccsst7r/moxL9BVngHPSpND7//HObMsFaHKVGjJHfrH2Ejgl+jTEhhGjtTDVOB4Yo+oV8UJTT5jDSKdG50LGfd955LrQ6Tj/9dBu6i7LZvn17F1oahmTSiTE8EsU+Dp3jWWedVW+gelAOeQYUDYzWJCXwuuuus463nPQAaaHDPPbYY4MHHnjAhTbwxRdfmOJTuEhlly5dbC0LFFqUm3inzjzTQw45xAxfnqXY/PM4DFlF4UIxSoKpLKzbgXGdtEYCeUMesfZGSwKlkrR/8MEHpsDdeuut7pfG8NyXX355sPDCC5tjq1xQhFFW+/XrZ1OAyoFFDplW4dd3qAWVynwxWqoMUC9wflJutA1JMoxxyhztNPme0kypvMWIGz9+fOI9afdwHJQLTmGmQGAUIIOnnnpqqkOTBfho51gbpVyoKwyXp02s1doFWaCsMIhYc4B2JQ6LLLPuBIZxGpQzUweSHGUff/yxrWmQNASfPKWtYYoA8sBaIHFwXLE4YyUO1FpTaTuEk8Kv1RJn7Nix1td16tTJhaSDIXrHHXe4b42hnWbaReF1Kq0PefXN6DurrLKKlXmSk4rpfTgysk7ZqRWV6C/IAufglGRKVBzklQVQWfyUtY0K4RnT5JkXXFBYjkzFqNW6MkII0eKIOplWD8PZGO7J43KkbbXHtl4MW/TxkobtpZE2vSILadMr4KOPPrJ91fm9T58+thf3tddea1voMTyP9KYNX2cqB7+zBz9TSxjqyLDDnj172vUYMs01ypleAZFiY0N/+X3TTTe16xAv6pxtiyiG4N5yyy0udh2//vqrTYPgHLZEY296noM0du7c2cIPOuggFzs7ftg31x45cqQNF91rr73cr3VEykU499xz2xZ0kcJrQ3wjQz3cb7/9LG9mnXXW8Pbbb3exG8gyPDdSYuz+PF8alUyv8ERKbDjzzDPb+ZQVQ8DZT51y7Nu3b71cRwpyk+kNDC3lt1JbZj7yyCMWj/KL46/B/cqlkukVUI3Mp1GpDFQ7zLfY9Aqgzdl2220tTrdu3cJIGbZnPeWUU8KNN97YwtnqML6VaUuZXgF51C/a0mLTKyID16b2IP9Dhw614cpPPPGETSmbZ555ws0339zSW870Cg/TXdhumPO5fmSIh5HBbs+1++67h8stt5z9Nv/884ejR492ZzWQZWoEdZWpKZQ5MhCHa0SGm+V7qeP55593Z5WGNpLpDwwXp50k73i2yGiyPEfmKEOeL6k/+vnnn8MllljCfqduMhWF7RhpO5jq1rt3b5PX+PQKD/GRE+SFdgk5IV+ZssH59AVvvfWWi12aYvUzi+w/XGQaTrntEOWI7BGffGBLaraq5Rz+p7yRmXGx7TmT8PK7zDLLWL9Im09fQHl36dLF+ljqnaea+pBX38y0AeSMbVqpN2w9SflvtdVWds2TTz7Z2gbkLU617W6x8yvRXziHsuAc8pIpLkxPPPDAA23aErIb35aY6SPICHlAG0+bftNNN5nMkx/Ug169etVvnY68cX2u9eOPP1qYEEK0JqYKp8OIESOsMedYaqmlXGgyRxxxhMWjA3/hhRdcaGnycjoA4YMGDQpXW221egOUjnGttdYquY/3008/bQoTSh7nkUbO846XSpwOQJpQINiXmrUqiMtcZTrkMWPGuFhNufXWW83pQf5yDgrRBhtsED7++OMuRnnQYWOIo7xwPTp4lId4Xn7//fdh//79TXGgsydu+/btbb7m2LFjXazGtASnA3z33XfhSSedVG/s+INnpWzjCpLHOwxKOR3Ay/0dd9zhQurw12hOpwNUI/NpVCIDeTsdPHfffbcZKt5o4ejatasZG0m0JKcD1Lp+lXI6AMYpBoyXDw6MiWHDhoUvvviifa/E6QC0K+QtRoF/Hg6MCNo8yhUDPAmeKct6DPfcc49dM6l+cg1/z1IHaSkHjF6M/E6dOtVfA+PywgsvtDUMSvVHkyZNMsPbOzw5FlpoIasr5Bt9QJrTASg3HKaF98fBgmN88uTJLlY2itXPap0OUG479MUXX9j6CjiB55xzzkbPh+HOOkpZYF0A6v56661njjt/HfrNLbbYInENhmrrQ637ZqDuU9Y4XHyaunfvbjoZTAmnA3BuufoLsn3GGWeEK664osXlHGS4X79+qW0cDsy9997bnFc4EzgHJ8ySSy5p96cueX744QeTExyR5aw5IYQQ/xTa8CdqCEUBbMEUdYa5badZLax+HikGNmS1HNhlgOcq97xSIEJcu9wVxxliS3pqBWkgX0oRKRw27LtWK6Q3J6SdYbTIZqTUutDWT6Uyn0ZLlgHkOFJQiw5zb8lMibxl3ROmiuWRZ7RvbBXKc0WGWOYV/P8JsNME0/EK+7q99trLpvzwvKWelaH+TP0pd5qehzWHOD8ylF1Iy6bcdoh1IajL7dq1cyGV8euvv1p5ZM2nautDrftmqFVe1JpK9BdkFtkvV+6RH+7TJmVaCWVMfRRCiNaInA5CCCGEMMpxOgghhBBCZGGqWUhSCCGEEEIIIYQQzYucDkIIIYQQQgghhMgFOR2EEEIIYey44462vaamVgghhBCiVmhNByGEEEIIIYQQQuSCRjoIIYQQQgghhBAiF+R0EEIIIYQQQgghRC7I6SCEEEIIIYQQQohckNNBCCGEEEIIIYQQuSCngxBCCCGEEEIIIXJBTgchhBBCCCGEEELkgpwOQgghhBBCCCGEyAU5HYQQQgghhBBCCJELcjoIIYQQQgghhBAiF+R0EEIIIYQQQgghRC7I6SCEEEIIIYQQQohckNNBCCGEEEIIIYQQuSCngxBCCCGEEEIIIXJBTgchhBBCCCGEEELkgpwOQgghhBBCCCGEyAU5HYQQQgghhBBCCJELcjoIIYQQQgghhBAiF+R0EEIIIYQQQgghRC7I6SCEEEIIIYQQQohckNNBCCGEEEIIIYQQuSCngxBCCCGEEEIIIXJBTgchhBBCCCGEEELkgpwOQgghhBBCCCGEyAU5HYQQQgghhBBCCJELcjoIIYQQQgghhBAiF+R0EEIIIYQQQgghRC7I6SCEEEIIIYQQQohckNNBCCGEEEIIIYQQuSCngxBCCCGEEEIIIXJhqnI6TJo0KXj99deD0aNHB19++aULrQ2///578Ntvv5V1NAeff/550KZNm+CEE05wISIviuX1wIEDgwUWWCB49tlnXYhoCSy22GLBGmus4b6JlsjFF18c9OzZM7jqqqtcSGWklfXDDz8cdOjQwe4jRK2RfJWP2mWRxvjx44Mlllgi6Nevnwtp/UiPF62FVu90+Pvvv4Phw4cH3bp1C2aZZZZg2WWXDVZbbTVTAvh+xBFH1MQBsdBCCwUzzDBDWcfEiRPd2aK1g7Phiy++CN5//30XIoQoxTHHHGNtNArmXnvt5UJry5tvvml9wIsvvuhChKgdki8hagd16YMPPtALHCH+gbR6p8O+++4b7Lzzztbxx2Hkw/nnnx907949+PTTT11oZZx++unB4MGDGx3777+//bb11ls3+Y1jxhlntN9FHTvssENwzjnnuG+tixEjRgRjxowJdt11VxcydXDnnXcGW2yxRTBu3DgXIkRp/vrrr2D33Xe3eoNy6dvSPDj00EODF154IbjiiitciBC1oyXK10cffWTt8n333edChPhnsNxyywVvvfVW8NJLL7mQypF+IkTz0qqdDrfeemv9kNyZZ545uPDCC4N33nnHHAz3339/0KNHD/vt66+/DnbccUf7v1L23ntvUy4Kj759+9pv6667bpPfOKabbjr7XdRx1113Bc8995z71rpgZMsKK6zgvk09MLKDjv3HH390IUKUJgzD4Kyzzgree++9YMUVV3Sh+bHSSisF7dq1c9+EqC0tTb4mTJhg7TLOByH+aXTp0iWYY4453LfKkX4iRPPSqp0ODzzwgPsvCM4777zg4IMPDjp37mxTIfr06WNzLWeffXb7nbdpkydPtv+nNN9884296SsXzmEIfyXnAoo+DphawhSSH374wX1Lhnz3eU/a/XcOpscUg87i559/dt/S+fPPP+vv4fnjjz9srhyf5VJuXifd30P642lg3iJyUIzvvvuuZN6mkVXGWHvk119/dd/q4Dl49mKwxgnx+IRffvnFvnPErxcnDzkEhmWSjkogTZRJNfg8KQbyTpykskmSIfLys88+K7pGDPelvErVpWLw/Ny78Bq+DhRT2DiPfC9V5nGmnXZaa5tL5Vca5ZS1f7asdZlnLkeO8pDnLO1qKXiGUuVCu5RWBkltA+kqJWuMMKw2P5LqAuVHufNbOZBWzsta/oWQPzxvsXuWI19Z+7Ok+kjYV199ZfmbBmngPC+/vk3yRykq1U2KkWe77OWEeKVAnoulI2vZZIF0ITfl6B6lnrWQJJ3i22+/zdwHJNXtUs+PLH3//ffuW3kgA3H543pp9yOc34tBWnjmJLzc+2tQ7r4OJLWJleQnbVy5/R5Qv5CNSusZcpKH/sTzltvnVNOe+XzIQ78QU5Co0Fot66+/Pj2NHU8//bQLbcwKK6xQH+fdd991obXh4YcftutefPHFLiSd0aNHhxtssEE455xz2jnTTTdduPzyy4fnnXdeGFVEFysZrk9czuHcSGEPN9100/D1118PI4PEwo4//ngXuynDhg0LV1lllXDGGWe0uLPOOmu41lprhffdd5+LUR733HNPuO6664Zzzz23XY/jX//6V7jvvvuGkdLiYtXh05d23HrrrS5mA1HDF+6///5hp06dLE6bNm3CJZdcMjz22GPDqLN0sRpz2mmnWdyo4Qwfe+yxsGfPnnYeYW3btg2XXnrp8I477nCx06k0r/39P/jgAxfSwDTTTBMeeOCBYaSwhwcddJDlFXE5kAeuF3V4FjfqSMP+/fuHkUFWH4d8PuaYY8Ko47Q4abzzzjvhZpttVl8uPAPyf+2117oYTaEcu3btav9fdtllYZcuXervO8MMM9jvPHucPffcsz5e/PDXi1NrOYRHHnnErjHLLLPU33/llVeuL+tFF100XH311e3/JJBlfm/fvr2dO9tss9kzP/fccy5GdpB/rhF1kC6kKY8//rjFSSqTQhm+9957La/47o+11147fP75513sMLzzzjvDHj161P/erl27cNVVVw2fffZZFyM7//vf/+wa1EfayS222MJk31+b+nf99de72GH4xhtvhFtttZXdk9+pa4sttlhRWQPaunPPPTdcZpll6q/foUOHsF+/fmGkgLhYyVRa1v7ZrrzyShfSlOHDh4errbZavRxwLLvssuE111zjYjRlSrarWaDMSF8xTjrpJLvP2LFjXUgDvm2gzM4///z69piDtoUyi4xgixspkOGgQYNMBnycmWeeOdxmm22s3SyXwrrw1ltvhVtuuWW9vCBzlM3gwYNT+07OO+yww6w98zJKP4Dc/fe//3WxkqGPIV/oM/w9acPXW2+9RD2jlHxV0p8V1sePP/443GGHHaw9JoxjgQUWCAcOHFjfb3huuOGG+jhJB/kSp5J+oxTN1S4/+eST9vs555zjQpKh75xjjjlMZguppGzSQBYvv/zysHPnzvW6B58LLrig9ftp+mclfVChTnHAAQfYOZzr62MpCus27fEiiyxi5998880uRh3VtNe0g2ussYa1A5zHwT2HDh1qv++4445WJknwfPwe57333rN7F16TfOM+9E+///67xStXP8mSn9S1Cy+8MFxppZUa3Z/yJY/8vdNoaXo8vPDCC2GfPn0a9Tm0LaQjTd+k3HfeeeewY8eOFh8ZX3zxxU3Gyb8kmku/EFOeVu10GDBgQL3QopjFefnll+uFFiOuVKNQLlmdDlRgXzFPPPHEcOTIkeEFF1wQbr755nY+DcnXX3/tYjdABaYxJQ5GNB0rlfb000+vb7yuuuoq+z2psfr555+tQUk6v3v37ha+++67pypuSey66652Ho3dv//973DEiBHWEOy22271DUNhY8X/3JNj+umnN6PIf+f4/PPPXcw6xowZY40ejTqGNnFuuukmM8R53qWWWir85JNPXOwGvJLKM/KJgweljIaadM4///wWjmKcRLV5XcrpQCONMkKHjdxed9114dlnnx2uuOKKdh6NMB0PHRgdHgrz1VdfbYp1r169LA4GZhqUAfmL8sR177777vCKK66whptzkbW4ggpe+aD8UMr5vOiii+xZ6US4JuFxBYhyIn922WUXuz5GiS/Thx56yMWqIw85BNLHufF6hQJNOIZDMeV2v/32q0/TJZdcYsof+U2aKLMzzzzTxcxGrZwOZ5xxhn1SduQrcsCzIoMcODBPOeUUi4NsnHXWWXa9o48+ul7JL1cR8UrBcccdF84000ymWJEe6g95O99889nv5O8DDzxgcoGiQN0iDmVJORAH+U4Ch5p3ktCOUAcwAE899dRw3nnnNQP7wQcfdLEbU01ZFzMKkc0NN9zQfl9zzTUtL5HNk08+ub5uosAW0hLa1SzUyumAkk95Y5xhVNHf+XYFxfO7774zg5x00s7xO/F82inXrMaQx9cF8oF7d+vWzeSEfKYNJ238Tn+CXBXy6quvWj3wDhvSc/vtt5thgIxwXpqDAAOcfCMOhj7tAoYY7TFtM8+D3BZSTL4q7c/8NZF1noVy8HUNGaV+8vsmm2zizqjj008/tXvQB/A7sst3f8R1oEr7jWI0d7uMg2ShhRYK//zzTxfSlEsvvdSuSXl4Ki2bNI444gi7Bw4ynD+0k+TvwQcfbPfAkRGn0j6I3yhbHGMYn7QflB9tUxZ83eYayDT6B23e+++/72JU1157vQCdh+siA5TBHnvsYfoEeUT9KsfpgPONlzT0RfSRON1JD30kDmPqiXfOlqOfQKn8pE+nXSDetttua3WQNgUHCmXHPZKcJNAS9Xjwdgl1/4QTTrC2lnzy9XS55ZYLf/rpJxe7jlGjRln+cNAm4igg7cgxz4Ge/cwzz7jYDTSHfiFaBq3a6UADgzKCIHLQ8CCkNAg0Nggu4XjUbrnlFndW7cjidKCSEof0JCmNeP5JH41wHBpBzh0yZIgLaYAO9qijjqp3qiQ1VnR2aefzZoqOlt/x3maFBvuuu+5y3xrDW0Gul9ZR0thsvfXW7ltTeLNAJ4XXfdy4cS60gbfffts6HRwKcbySSqdAhx/nxx9/tE4WL3HStavNa3//NKcDjTsdRtwTTDnwNpBzUWp5/rgjBg499FCLgwEaB+8/DT6dRZKMIfucixMmDsoH6aPzR1mPg8eZesSbjiRQ5Lk28dLIQw79G720enXbbbeZckPdSlJuUaA4H+UlDmnyaU7qQNOoldOB8qDdiIMixTOhKBOPUVJxUJJRCFAkyjEWvFKAnB5++OFNFJgJEybYNak/yErfvn2bPCflgBFIGjHe4mCEUocYiRSHN46U0zzzzGP/F1JtWRczCjEw+A1HWxzqPe0CBvWkSZNcaMtrV9OohdMBeaBMkt7SoiByLu0WbUTSKAD6N+LgjCgHXxfoMzBik2SZ8iTOTjvt5ELqQHZRUpPe6iM/5At1JC5LlDdKPE7fp556yoU2MH78eMtPnHuFpMlXNf2ZvyZtAc6e+PPzjN6gwviJ8+KLL9pvxXSTavqNNKZEu8woJcKK6XiUAw49TzVlkwTGGXUlPpLCQ78/efJk962Oavog5II6h7xWMpKIuk3ZI+tpfVyl7bVvF2hbk170oSvQh3H/cpwO6GBcF7lNIklvyqKfQJb8xJH65ptvum+N8XUxaZRhS9TjaTM4h7YzyVGF45H6Ufi8ODRxnpFHSXWGuDihcQDGnRXNoV+IlkGrdjrARx99VD/cKO1AgcmDUk4HGhQaZd5SFTNE/IiNwreTXmmIK1SFUHFxtBAv3li99tprJc8HOg7yL0lBqwQaDJSYJEo5HXiDRZqTFD6PV4QYfl6IV1LTvM3gHUDXFwzjgmrzGko5HVCyCt8iFIIMcy4Hw1KTwOihnHBQxOFtFwoSDXcaKK4Mz+WtZCH+jWHamz/wnV5SR1OqU89DDlFkkLNS9QrjgHvHlVsUTs7n2dOg7uJowSOflVo5HVD20sB4Iw5vTtLA8UqcNAUpCa8U8DYhzVmBw4s4KKpp5fToo49aHN7aFeLrGG/J0kCpQfFDCfNUW9aQZhTiZCO8WJsRpyW2q2nUwunAb/E3+x7axIUXXtji8KYsDUaQ0D6Vg68LvAlEsU7DK/TlOAfprzmHkZCFoLQTXqwtTCJNvqrpz/w1UcTT5B7Zom/h7XGcLE6HavqNJKZUu0x7xQhCDJIkyFvuVzitppqySQKnHHFpe7NQbR9EuWPAxWU4K75u4yBIotL2GgOWMKbSFKu3XncmD5JIcjpsv/325qhIcmalUY7ToZr85Prch5EChbREPR65YjpFuaPn/HQHprulwcgX0pvmmM1LvxAth1a9kGRU0YOoo6lfHCiqdMGyyy4bRBU4mHfeeS0Moo4gOOWUU9y35uPtt9+2hYH222+/IGqIXWhT2OkCogplnxBVUvv0vyURNZK2eGYSTzzxhH0WOx/69+9v+ceWX7UgalRsxeBKiAyyYMEFFwwiJdWFNGXLLbe0co6UBRfSmMgod/81xa+SH99etdq8zgKrMZM3SUSKZTDrrLMGM800k+2EkkT79u3t/HfeeceFNEBebLTRRsG//vUvF9KUXXbZxRbjSduGKupQ3H9NiRQI+0SeyyUPOWQ7LRaRKlWvDjvsMPdfY/z5kQHvQprStm1b2+KV/IoURBfaPCDjaXgZzhInSVZKgRxNO+207ltjunfvbp+RghNExor9H8fv4EIeF+Lra6Q82WcSLABM3X/66addSPVlXQwvm+Wc+09sV6tl8803d/81hjaR/haKySNyw6K4lGO50OZGBoH71pQjjjjCPn0bngXfDsfzk/6XNnjPPfd0IdVRi/5s4403TpV76mDHjh0rapehFv1GIVOqXaa9OuSQQ4LRo0fbEScyPIPIwAo222wzF1KbsilkiSWWsPK47LLLgnvuuafkYqe16IM6d+4cLL/88u5bZfTr18/915hK2+tXXnnF0rrbbrsVrbe9e/e2/C8H7vX777+bfLGgaq2pJj99m/Luu+/ap6cl6vHIHgvGko/supYV0kK5ocumsf7661teUL+SyEu/EC2HVut0CMPQDEwqD+y7777WEL366qu2UwX/33333cEss8xiv//nPyaOrdIAAM8uSURBVP8JHnroIfu/uaABBq+YpTH//PPb9kA+Pvj/u3XrZp9ppF3bKwmlzl9mmWXss/DepUDJQdlj/+NVVlnFjBx/YNDTMVTC66+/bivc0rClHRtuuKF1ZsRNYskll3T/NaVDhw726WXGU21eZwGlpBjzzTdffceVBnLybWy15nHjxtnqv88880xifvnjuOOOs/hJ+cYuAshfGmn5loU85PC1116zz1LlQbr97jWF+Dy45JJLEvPKHzfffHPw999/N3sHV0xWkAHIEicuK1lA8Uojy71nm2022yo4fm/aZWDr4aS89gdKG85kT7VlXYyXX37ZPkvJZiH/xHa1GmgXihmlWWRigQUWsM9K5LFUuS+11FK2VaUvS88ff/wRXHHFFWb8rLPOOo3y0iv48fxERilXjIBaUIv+jOcrBnJfSbtci34jzpRslzGgcBixi1khtCU4kw4//PBG5VqLsimEa99xxx32uemmm9pLBOSOF17onaS3kGqe1VNKpygFuvHcc8/tvjWm0vba/7/00kvbZzHKaXfhwAMPNCfIsGHDrN1ZdNFFrX5feeWVJs/VkiU/2YofWevTp49tk+vbFAxliLcpLVGP92Vbqp4W8tlnn5mTLMs5pAX5jss85KVfiJZDq3U6UBnZ4x3wYuNhpqEvZJNNNglOPfVU9y2wxqo58Z7evzJsjUMcPNuerOemedSznu9/L7x3MchnOpQnn3zSGqA99tjDHD7+KBxhUi6kgTLkbX+xA0Vo2223dWc1hjcTpcBhVUi1eZ2FLB7lLHHiafflxhuvpLzyxwYbbBCcdtpp9Z7iQrLkGcTvnYU85LCcepXU8fl7IL9JeeWP7bff3vIsqzGbxVhB0S1FXrKShbzlFEU8Ka/9sf/++wcDBgyoP7/asi5GOdf25CHPkEe7Wgt5zFLWkJc8lipTfue6hfn8008/meLLG3UcErzhLsxL3rYlQdmWIwulIE1Toj/Lgs+vavqNOFOyXcYxhgF62223mYHkYZQDv1GfCqlF2cThTTzG76233hrstdde5tQZOHCg5SGjGZ9//nkXs7pn9fgXapVS7HyfvnLba+9gZCvEUrCdeTkgXzfccIM5ZylX6vh9990X7LPPPsEiiyxizoBK6oKnVH7uuOOO1nbwQrNnz552X9+m4JxJImudaE49vpx66innHOIQP6n/yUu/EC2IqHBaJX7uEEfU+LnQprA4l48XNRgutDaUWtOBOdX8XmoBMObKE69wdWMWNiOs1PZ3fjGi+Fww5jxlOf/666+3eGmrEBcSKag2p44VrdNgbhkrUydRak0H1itgPlekkLiQ7EQdsz1H0poKHuayEYd5wIVUm9dQ7P5RA1xy3niW+dcsasUaIXHmmmuusud7e6g7HTp0cN+S8XKetEBnqTmTecjh66+/bnFL1SsWVSQeMlmIr5fx+ZfVwirMXJc1OtJg8UfiFFvToZgMs5I+ce6//34X0hR2GiEOq4Vnxc+5LDafnR0IiMPCVcWgjdhuu+3ctzq8HJQ7Z7basoa0Z8sqm4W0xHY1DRbOY5HHYrBlG+lMW9OhVNsQKdx2frE5/CxESJxyFv/ydYEFzYrxqluXg3bIw/oShL300ksupDFp7Rn9T6TwFp2LnkSafFXTn2Wpj5AmF1nWdKim30hiSrfLrJkUGTr188nZEYx6ldReVVM25cAaB+w0wBx6Dk+1z5pFpyhGqbpdaXvNdoqcl7TOSCH0JaxzVc6aDmnQXxKX+5LuQkrpJ55S92OtrWLllZdumUd/k9UuiUN7sf7667tv6bAODWtUFJK3fiFaDnXuqVZIoeedeUxpntVbbrnF/RfYcCjPxIkTg0g5CY466qgg6pxcaG1haCSe3yFDhgRR5+NCm4LXFpgP5Vl77bXt8+yzz7bPJHhbEDWC7ltjevXqZd7GLOfj4fXz9osRNe42fIx5pklwvS+//NJ9awpe2GKjBXgjQLnceOONLqR5qDavpzQMc4wU6fqRP82J96ynlWsecki9mmeeeUrWq3POOcf91xhfL6MO0OYr14quXbvaZ7F5lSNHjnT/TV14OYiUMBeSjWrLuhi8xSNN5ZzbEtvVNMg73vryZi4JhuUzsqIlM3jw4KJ9hi8H34YDQ7yRGT9HOE7aUGz6X9qDoUOHupCmRDqV+680U6o/g1LtMtS635jS7TLTExndevnll9v9L774Yqs7SfPhm6tsGKnCNGDewlPf/DoiefVBtaLS9poh8kwPu+aaa1Ln9VOHGAlSTDbLgZHOV111lQ27j6+/kaUeZMFPG0kbJZXWprREPR7ZY4oT7Vyxehpv62gvHnnkkaJTOO68887g448/trhi6qTVOh1YaIQKCQynZGgbczipEDTsDzzwQNC3b9/g+uuvtzg0SDT+HhZeOeOMM4JBgwYFu+66qwutLTQWdCo0SNyDdMZhuBgNOwsGrbtuwyKCDLtjDtuoUaOswYk3ACipBx10UPDhhx+6kMaw2MuRRx5Z9HwWX2KaCnlQbN6uhzl0DJn6X8qiXf/3f/9nDU4aDIGj8aaRTILhaj169LDhaihDcXiGs846y9JbS6rN6ykNijkLd7EYZFIakTvkLw8DgzIFP08wTh5yyEJEKLbF6tV1111nnSoLcMahXqKkvPnmm3Y+w2DjoIizkFg5DknqL0N2cWaycF4c2pvCIbZTE8gBDt6rr77ajI6kNoChsgyRLvyt2rIuBk4iZPP222+3diUum6wLwBxiFMdJkyZZWEtsV9Pw/R3piSvdTKtgSHCW6T5TEvpyDLYkw+zCCy8Mhg8fbgs/FirbGCEs4JzUFiJHJ554ovvWGPodFqE+9thjTX+Iw4sNHBlZFx6dUv0ZMJwf4mtdFFLrfqMltMu0MTgTmK7EfbbbbjszsOLUumxo75HHtEWHWfuA/PGLJ+bVB9WKSttrQOfF+cS6B6ylNnbsWAvHwEWWqGM45tG7ygEHUZqewT1oe73ce0rpJ1mhTQHWQInDfZGjJFqiHu9l79NPP02VPRx29Eve2QK0Fzg26BNxlMd58cUXbboN56EDiamUSEhbLWzjtPjii1MLSx5Rg+XOqiPqcOp/SxqemIWos7Lziw1hBIYxMZSMoa6RwmJbwzB8tFevXnZ+z549E7ekYptE9ognDtsmsR0Tw7IZfsRw/BlnnDG888477fekIf+RombTGZLOZw9ewtkDvRyiBs7OY19ihngzjJM9fxmmy3C9FVdcMTU//TBb0jRy5EgbOrbXXnu5X+tgaDrbpBEv6rRsv3XSzLZMK6ywgg2fLHd6gydSvC1OpKS6kAaqzespOb0CIiXZhm+ypVHUkdgwQPaVjhR2k7vIGE7czz0ylKuaXhEpeJamOeec07bfolwp06cKtiLLQw6B85GHeL2iPnFN5A2ZiQ/j9URKpeUX+YZck1/kG9tSMhWItL1VZHuoJCKFy+5NfhxxxBFhpPza87KdG/eKFDj7neePk0WG/6nTKyBSyMNtt93WrtGtWzebTkY+nHLKKeHGG29s4Wzjh0zFqaasiz0baWKoNb9zPnWbNEWKnqWR8P79+7vYdbS0drUYkYJo1+VZmP6DPLJPOltdcl3aVX5vqdMryFfqYqT0W1qvueYa2+aT+sTv66yzThN5+fjjj8NI+bY94yPD04YmP/HEE9YP01YxjYVzk9qzSPkPI0PBfifvSTtyExmp4bzzzmt7xLOVYiHF5KvS/ixLfQTkPU0u6C/oe5BLZOnkk08OI8PB/VpHpf1GMaZ0u0x+o29xr7QpNlBp2SRBvnKd+eef36YWMKx/xIgRNryeIen8lrStbKXPmkWnKEaWul1Ne800C9+ucqA/+f/J27ffftumO1Onkog/H2mh7nJ+7969bQoNUxJID/8z9J+8Hzeu8bbeWfQTKJWfkXFv+hnPQTv6+OOPh6NHjw4j4922NUV35Lc8dMu89CdvlyAHyB7PwhapPq08788//+xi18G2/uQl09DIR9pXZL9fv36Wh/Qr9F1xmkO/EC2DVu10ACoF+2snOR9mmWUW6wCSlJ3bbrvNhJeKgiJWCVmdDsDc0y222CJcYIEF7Jz27dub4yOLYUCnTVzO4VwqPJ0Bz0WDRlixzpE5hXT4KGLEpRFGIaHhLBcMd54XJZBOmevNPPPMpizT0dAZpSlB7M87YMAAU2T8c6DMcc1C+D5o0CCbF8a1iYuyxxxl9ulNIovBVszp4Kk0r4vdP4uCUK3TAb7//nszkOgEUWRID89B559kVEC1Tgd44YUXrDP08tClS5fwySefdL82UEs59Dz99NOmMKK0cU3yGjnxe6sXU24Bha5v3742D5HzOeabbz5TlplrXwk8+xprrFEvQ3TsKFgowK+88oqFoTTEySLD/2Sng+fuu+82xdErkRxdu3YNhwwZ4mIkU2lZZ3m2UaNGmROYOcbERZZpfzAc0mgp7WopeG7qpDfEaH9RGMePH19vLLVUpwN1gYM9+r3hgjFG2RTrt6nX7Cvv+w8OnAnDhg2rX+8grT2jLDAGV1555fp7Tj/99OasGDNmjIvVQCn5qqQ/q4XTgfqKsULauRaGWVIdq6TfKMWUbJevd/Pb1157bReSTiVlkwaGI/lNX+7rGvLDteMvvQqp5Fmz6BTFyFK3PZW210Cdp8/CUGc9o2eeecb9EobLLbdcqs6T9Hy0gzhu0M8wfAvzCqObtUKSyKKfZMlP6gkO28J8IA9JE+0f7VIeuqUnD/2JdVhoJ3HQ+mfCljrjjDPM0ZLEN998Y+0+Dg/yFFmn7cBZlyavcjpMPbThT1SQUwUMNWLIEENGF1544ZJDjaKKbsNOS8WrNQw7ZJhSJUyYMKHsreEKYSgVQ8BrAcOPycNK0vPDDz9kzne26iFu1DG4kOah2ryekiDXyFlzpp/6x32jzteFpFNLOfQgU1yzUjlh+CdDRSPl04VUD7JLGUSdswsRhVBmyEukSLiQbFRb1sWg3nNtPx84Cy2lXS0Gq4qTzn9Cm3b66afbdoMffPBB/dBmoGzoC8qpT5wTKfplyxigPiFrtcyz5u7PeAbKne3mSpFHv9ES2+U0alU2lda15nzWSqi0vY6DnJE3m2++uU2RqoSJEydaWtq1a+dCilOOflIK2mfaINqVSmhJeryHek+5MuUqK7/++qv1k1nLQLR+piqngxBCCCH+2aQ5HYQQLRscJ48//niQtjAusE7EMcccY2uasUaAEKJ10DyudCGEEEIIIcRUCwsasovIeuutF9x///22sKiH/4866qjg+OOPD9ZYYw05HIRoZcjpIIQQQgghhMgVRjAcd9xxwZgxY2yLyY4dO9p0EYbt8z9OiX79+gW33XabO0MI0VrQ9AohhBBC/GNgSz22p9tjjz1qPndZCJE/v/32W/D222/bdqEczPtnqtRyyy0XdO7c2cUSQrQm5HQQQgghhBBCCCFELmh6hRBCCCGEEEIIIXJBTgchhBBCCCGEEELkgpwOQgghhBBCCCGEyAU5HYQQQgghhBBCCJELcjoIIYQQQgghhBAiF+R0yIHhw4cHbdq0CR555BEXIgrp3bt3sMACC7hvQgghhBBCCCFaK3I6CCGEEEIIIYQQIhfkdPiHcOeddwZbbLFFMG7cOBcihBBCCCGEEEK0bOR0+Ifw/vvvm+Phxx9/dCFCCCGEEEIIIUTLZqpyOvz222/B119/7b7Vhp9//jkYP368+1Yef//9d/Dll18Gf/31lwtpyu+//x5MnjzZPuGXX36x7xy//vqrhaWRx/OSju+//959qx08zxdffOG+lQfPmTVNxI3nG44cyjEN8rBUXpfLN998U7TcPUnpnThxouUV8pPGpEmTal72pJf7xtNN2f3xxx/uWwNedovBMxAnS17kIXvlyE4af/75Z5PnpMw+++wzu34aPE+pckyjlMwmwXN+++237lsyU0LeKnmWUoRhWHF6kGWel3LNSjlylJTH8Twg/chUYZ5TR0qVX9Z2hX6kVJtGPpSqv0IIIYQQWWj1Toe33nor2H777YNFFlkkmHHGGYP55psvmGmmmYI+ffoEb7zxhotVHijYhx56aLDEEksEM888czDvvPMGs802W7D//vuXVDy/++674PDDDw+6du0azDDDDEGHDh2C6aefPlh22WVtJEOcAw44wO5x/PHH2/eVV17ZvnOsuOKKFlZIHs+LAjxo0CBLY/v27YM555zTFoLccccdzWlSDZdddpnlBc/DNUkzC02WSiuK+wknnBAsvfTS9Wmaf/75g6222ip47733XKymbLzxxpZv/pk6depkZXfXXXe5GHVG5EUXXWR5Pcsss1gekq6FFlrIzkkysLPw7rvvBptvvnkwzzzz2EG5kJbrrrvOxWhKYXoHDx4cLLroosG//vWv+ryiDLxxhYFy3nnnBYsvvnh9uvns27dv8Pnnn1ucSrjkkkuC7t27W3q5L3K72WabBa+//roZJZTd//3f/7nYDRx88MH2WzHD+6mnnrI4N9xwgwtpTB6yV6nspHHWWWfZM1C377vvvmDVVVetlxfyqmfPnsELL7zgYgcma6uvvrrVe5+fq622WvDcc8+5GMlg/NMeIAPILPfs3LlzcNxxx9U7JeMwQoq8Qg54zrnnntvOW3PNNS3P47LcXPJG2e2yyy7BwgsvXP8stKf9+/evajTX9ddfb/lPuZIerr322msH999/v4uRDPn3n//8J+jWrVu9nFM+66+/fvDMM8+4WI3Jsw3inuTJqFGjgnfeecfaDeRkjTXWcDEaqKRdWX755U0ui3HaaadZGj755BMXIoQQQghRIZHi02q56qqrwmmmmSaMlNkwMvTDa665JhwxYkR47LHHhpFyHLZr1y6MjHQXOxsvv/xyGBkTYZs2bcKddtopHDp0aHjzzTeHAwYMCCOFL4yU1fDMM88MydqHH37YnVXHq6++aveNlPhw3333DS+++OLw9ttvD88999wwUu7tnCuvvNLFrmPMmDHhrbfeGkYKuv1+/vnn23eOhx56yMWqI4/n/f7778MePXrYvXfdddcwUmTD//73v+Gpp54azjvvvPYsDz74oIudjXXXXTfs0KGDXa9t27bhbrvtFkZGvqX/oIMOCiNl38IjI8yd0ZhICbdnTCqDyNCw8y+99FIXuzHcu2vXruGee+5p52+xxRbhySefHEbGmf3+66+/hksuuaTl47bbbhtGBqWVEfeIlHTLh8jwsrjlcO2111q6IgMjPPvss8O77747vOKKK8LIQLFrRkZDGBmALnYDPr39+vWz8/fff//w8ssvN9nx53bs2DGMDN5wvfXWs2faeeed7XfikbeEUU5fffWVu2o2IiM3jIwcu0dkuIXnnHOOyd3pp58eLrfccuF0000Xjhw50n4//vjj3VkNIOP8Rp6m8fjjj1sc8idOHrJXjeykERlnlsYzzjjDPikX6unVV19t8kw+cYwePTo85ZRTLE6vXr1Mtnjuo48+2uon4ffdd5+7amNoB2hbIiMwPOaYY6wcbrrppjAy0u3aSy21VBgZhy52HR9//HEYGcL2XKTtzjvvtPwjbauttprd85tvvnGx62gOeYsM6XDWWWe147DDDguvv/56q/v77befPUtkuIeR0e1iZ+Pnn38O+/TpY+mjnhbKavfu3S189913D//++293RgPIBHWeODvssEN4ySWXmEyQtgUXXNCeB9krJM82CP73v/9ZepD19u3bW/9wwAEHNKknlbYrPO8qq6ziviVz0kkn2TXGjh3rQoQQQgghKqNVOx0+//xzU7CTlK63337bFNz111/fhZTm999/D7t06RLONtts4dNPP+1CG0AR7927txn3KGtxpwMKL0rwt99+60Ia+OWXX0wRRBHn/zg4JrjmG2+84UKaUuvnBYwInuexxx5zIQ388MMP4eqrr27OFv7PCko3zzLHHHOYIyYOz4givcwyy7iQBv78889whRVWSC0DDFWeEacFhloc7k0+cH6aYYPx9Oabb7pvjfHOn2effdaFlOa9996ze2622WaJZXvLLbfYNQcOHOhCGiC9GCbk8bvvvutCG7jgggvsXIwj8iwpT+644w6Lg3FYDhhFnIdDKA7lgGNrpplmsjh5OB1qLXvVyk4a3umAowqDOg7X4po4DYh33nnnuV8awGFA3cd4jNff3377LezcuXO4yCKLhOPGjXOhDVC3cS5ssMEGLqSOo446yu6H/CVBexEnb3n79NNPzXGCIyDpWah3ODVw7P70008utDQHH3yw3XPIkCEupIG//vrLHDX8fuGFF7rQOpAJ0oJMPPXUUy60gfHjx5txjmPI0xxtkHc6kMc43JLajWraFTkdhBBCCNGctGqnQym23npre9uXlUGDBpkSxlu5NL788ktTJokXdzqUgreFnMdoijhZnA6lKPd5X3zxRbsnb9vSwIhAMcbAyYp3OsRHdRTijYi4YYIBTHixMvj666/tTevKK6/sQhrw98Z4qgTyn/Nx7mRlk002MaNwwoQJLqQpvFGeYYYZzHFViE9v/E2rB0fWwgsvbHFOOOEEF9qUNddc09KQFV/2vPlNg3tjuBCv1k6HPGSvWtlJwzsdcJKkgQFOHEaOpPHvf//b4sQdXr7dSTKKPd7AvPfee11IGG6//fZmlCYZpGnkLW+8gS814orRK1y/0NAvxmuvvWbxGXFQDJxUM844YyOnL04Izi3WFsVpjjbIOx0YETZ58mQX2phq2hU5HYQQQgjRnEzVu1cwF/mnn36yxbey8MQTT9h82T322MOFNIV5xMxprgTSA8zDzoNyn5f59hAp8/aZBPPWmR/+9NNPu5DsRAaI+68prKcAb7/9tn16Hn300ZJlMM8881gZRIZr6gJ1/fr1c/+Vhy8j5lFnhXzcaKONbG58GsxvZ2G3l156yYU0hjnbSbRp08bWO4Att9zSPpNgTYbI8Mi82F1k9Ngn64+kwb0POeQQ96225CF7tZKdNIrlP3PsIUsc5vAX8vjjjwcLLrigPWsaXJc1F3y+AfFZq2C//fYLvvrqKxeajbzkjTaUNVu6dOniQpqy/vrrWz3jubPANYF1dorBehG//PJLo/U1vEzsueeeLqQ0zdkGUQ7cK4latCtCCCGEEM1Bq3c6oPiyIBaLK66++uqm2Ptj2LBhFidtEbY4r732mi00huJdDBbpSuOPP/4IrrjiimC33XYL1llnnUbpYeE9yJqeJGr5vK+++qp97r333mYopB0Y4KUWfowz++yzB3PMMYf71hQW2IS4g+SVV17JVAbLLbecLdRGmcWZZZZZbEG9YrDwHMYaC3CutNJK9XlInkLWPBw3bpwtjMfCcEl55w8WAwQWZ4xDPhUzLFi8DpZYYgn7TIKF8aDU6vce8hnI62KQz3mQh+zVQnaKUSz/s5SRjxMvI79gZ9Lz+2PDDTcMpplmmkbyc+CBB5rThnrPtVkUknbnyiuvNLlMIy95YzcPnBDeaVGMZZZZxp7l7ww7e3iDupSsck3wsg3IWRaZKKS52iBgodAkatGuCCGEEEI0F63a6YAyyurol156qb0V5c3SvvvuW38Ucw4kgVKfZTuyP1O2WmOUAYrvYYcdFrRr1852AChMD2+tqqHWz9u2bVv7xDmy7rrrph77779/MGDAAFOws8Jb2SzEr5m1DHwc/wyFoPAXgxX6KQveDrPC+z777FOfhxjB5eDv37Fjx8S888cGG2xgzqIVVljB4hfCqvVZyBIvaxmRz1DK6EuTdchiyKVtyZeH7NVCdoqRJf8rKSPSMeussyY+f+GBgbntttu6s+qelx0qGC107rnnWtvD7hrIM7vb4FRLyre85M3LVNYyIH4WGcp63aRyzSoThWQ9J+l+nlJtkCctnr9mpe1KNXVTCCGEEKJsIqWw1cL8aRY8+/HHH11IY5iHThZ89tlnLqQ4zEeOFG1bmKwYzO3muvE1HZgDTfhLL73kQhpDfH6PDAUX0kCWNR1q/bys4k78pDUmqiFShm2ucjHS8mKbbbbJVAZ77LGHLewXn89e6t6PPPKI3TdtzQYWkeN3FlnMylxzzWWLvVVClrzaN8PaCSwmRxxW3c+Cn+teasFM5v4TL2lNhxNPPNF+++ijj1xIU1hUkTjxNR3ykL1qZScNv6bDBx984EKaws4GxLn//vtdSFPYrYU48V0PSDfrxLCeQi0gnezAwr3I50LyljfqQpbFbFlQkx02suBlpZSsXn/99RavcMeTrDJRSN5tEPg1HYqtNVFNu7LWWmtZX1GMTTfd1NKgNR2EEEIIUS2teqQDw64ZDp/2tqjYEOMkImXR5scOGTLEhTSFa44cOdJ9awzpYa4v852TKJYe/2ar2JvlWj9vr1697K3eRRdd5EKmPLy5K1UGn3/+uZVBjx49Mr+19fih+mmjTsrNQ2CY88MPP1x07/6Wxtprr22fZ599tn0mwSiI888/331rSteuXe2zcA59nLS6kofs5S07eUG6J06cGNx4440upDoWW2yx4Kqrrgqmm266RmtANAfUhUceeaTRFIc4d955Z/Dxxx9b3Cx4Wckiq7SNfr0YYP0IZGLo0KEupClRP+n+q6OlyFE17cpSSy1l013S1vpgWtuTTz7pvgkhhBBCVEerdjqgXI8ZMyZx/j2K7/Dhw923bBxwwAE2T5dhzA8++KALbeDLL78Mdthhh8ThtEB6xo8fH3z44YcupAGM2RNPPNF9awrDocHPdU+i1s/LYm9HHXVUcPXVVwfnnHNO4lB7hmszT7zUMPxawdDw1VZbLbUMvv76ayuD3377LbjssstcaHbIQ2CudBzylSkW5TJ48OBg+umnt4Uzk8qeaTe77rpri1LykXPkfdSoUWbMxQ0v8uKggw4K3nrrLRfSFJx0TAs44YQTbK2ROGeccUbw/PPPu2+NyUP28padvCDdGK/IHkZmHMrmrLPOCgYNGuRC6sBJkdZejB071sqwU6dOLqR5oC5g+LPWxAcffOBCG2DhRabMsP4EcpMFZOXII48sKqsseMr0M/KocL0K8hSZOPbYY4MHHnjAhTbwxRdfmJOYKXGeliJH1bQr22yzjX2SL3FHNtMqmEaWNr2CcOSQ9YmEEEIIITIRKWitFvbM5xFXX31121KObfgixTKMjKVwpplmCjfeeGP7Pet0A2A7u8gwtfM233zzMFJywyuuuCI88MADbYs09tLnO78zRaCQjz/+2OKwD/3QoUNtOPATTzwRnnnmmbYvPtfjvKTpFRMnTrQ4bJHGVmsjR44M99prr0bb6OXxvJHiHG677bZ2Xrdu3cJIObeh8Kecckr99di6jfRlJcvwYvIuLS8iBTtcZpll7Pd4Gcw+++z2rGlb/pW6d2Sg2FZybK3H9AC2dBw9erRtj8c911tvPfutnOkVQDnMPffctl0g++4zfePyyy8P99tvPxvmHBnn4e233+5iN5Alr/KYXgGTJk2y5+W8lVZaybZ0pOyPOeYY23KPIebDhg2z35OmVwDDw/kduT3iiCPCyAiz66y66qqWF+ecc479Hp9eAXnIXjWyk0be0yuAKSrLL7+8/d6nT5/w9NNPt7xgu9AVVlghbNOmTaMyIO9oL4jfu3dv236S5+Ic/mdo/vzzz99kS9rmkLf77rvP5AH5oQ2jLYwM6LBfv342HYEtOWm7yoG0sCUw94zLaufOnS2cdjAJZGLZZZe1OEwpIO3I7T777BPOO++8Ydu2ba09LSTPNgiyTK+AStsVYItR7kHdoq2jbh5++OGW/6QP2eL3+PSKXXbZxcLJYyGEEEKILLRqpwOg4GLgsF89ihIKJEo4Cr5fJ6EcIxyYo4sBhNI57bTT2jVQ/A499FAzgO6++24LizsdgP3pWRti5plntjgcKLwYbyjafE8ytOGFF14whRoDg3hdunQJn3zySfdrHXk8L/BMXMcbMhxdu3YNhwwZ4mJkp1qnA/zxxx/hGWecEa644orh9NNPb3GZB47hUmwOcpZ7f//996Z8Fz4r57AmB8YNBkW5Tgfguv379ze5wUjguu3bt7c54mlpnpJOB8/VV18d9ujRw9LKNTAW+/btG7777rsmS4SlOR0AGWW9EX8+dWajjTaytU1eeeUVC0tyOnhqKXtQqeyk0RxOB2A9kUGDBtlaB779oH4zP//RRx91sRr44osvTGYpO4x84nPMN998ZoB/8sknLmYDzSVv33zzjV0HhwDtGTJBvcDQnTx5sotVPrfeemvYs2dPc+5yf2Rmgw02MOdhMcjbs846K1x55ZXNqci5yAYOhTFjxrhYjcmzDcrqdIBK2hUP16cf8f0YTgocQePHjzdHEGHxa5BP3Gf48OEuRAghhBCiOG34EykWrR4ek+3a2KqR+b+1giGmkfKduo5CMSZMmBBEyqHNrS4HhgszJDYyfl1IU/J6Xvjhhx/s3uWmOy8YXs/+++RlrZk0aZKt9F7ra1N+DH+mfP5JILOFaWbu+oILLhgcf/zxwemnn+5C0/EymWX1/CRqLXt5yk7ekJdMFchav1kXgryLDEYX0jKg/WRKWq3TxZaSTO8pF9pO5KycutlS5KjSduWvv/6y/Mp6Hn1QS2n/hRBCCNHymWqcDkKI2lOu00EIIYQQQggxddGqF5IUQgghhBBCCCHElENOByGEEEIIIYQQQuSCnA5CiIphTQG27ttss81ciBBCCCGEEEI0oDUdhBBCCCGEEEIIkQsa6SCEEEIIIYQQQohckNNBCCGEEEIIIYQQuSCngxBCCCGEEEIIIXJBTgchhBBCCCGEEELkgpwOQgghhBBCCCGEyAU5HYQQQgghhBBCCJELcjoIIYQQQgghhBAiF+R0EEIIIYQQQgghRC7I6SCEEEIIIYQQQohckNNBCCGEEEIIIYQQuSCngxBCCCGEEEIIIXJBTgchhBBCCCGEEELkgpwOQgghhBBCCCGEyAU5HYQQQgghhBBCCJELcjoIIYQQQgghhBAiF+R0EEIIIYQQQgghRC7I6SCEEEIIIYQQQohckNNBCCGEEEIIIYQQuSCngxBCCCGEEEIIIXJBTgchhBBCCCGEEELkgpwOQgghhBBCCCGEyAU5HYQQQgghhBBCCJELcjoIIYQQQgghhBAiF+R0EEIIIYQQQgghRC7I6SCEEEIIIYQQQohckNNBCCGEEEIIIYQQuSCngxBCCCGEEEIIIXJBTgchhBBCCCGEEELkgpwOQgghhBBCCCGEyIWpxunw559/Bm+//Xbw9NNPBx988IELrS1//fVX8Ntvv7lvpSEu6RLin8ymm24adO3aNfjxxx9diGipDB8+PGjTpk3wyCOPuBAxNfP555+bPJxwwgkupIGBAwcGCyywQPDss8+6kPKQrLUOWkr7vtdee5k8oWeJlsmTTz4ZrLPOOsERRxwR/PHHHy60fNLKevz48cESSywR9OvXz4UIIf5JtHqnw7vvvhtsttlmwQwzzGAd55prrmmN1rzzzhsMGjQoCMPQxaye448/3u7z5ptvupDiEHe33XZz34T454HT7LnnnjOH3vfff+9ChRD/dHA2fPHFF8H777/vQsTUhtp3kZU77rgj2GCDDUy/xmHZrl0790vt+PLLL+2lYaWOUCHElKVVOx0eeOCBYOmllw7uvvvuRI/pUUcdFfTq1Sv46quvXKgQohymnXZac7JhmCyyyCIudMpz5513BltssUUwbtw4FyJE7TnjjDOCXXbZxX1rXYwYMSIYM2ZMsOuuu7oQMbXRUtt30bK4/PLLg5133jm44oor7JhuuuncL7VlueWWC956663gpZdeciFCiH8SrdbpgEd0xx13rHc2HHzwwaZAffrppzbcc8MNN7TwJ554IjjkkEPsfyFE+TBqaPHFF3ffWgYoyTgeNOVD5AnT9e699173rXXBSLwVVljBfRNTKy2xfRctiy233NJ07uZwwHbp0iWYY4453DchxD+JVut0uOuuu+qHA+JwuPDCC02BWmihhYJ1113XFMW11lrLfh85cmTwwgsv2P8thZ9//rnJnDhGZ3zzzTfuWzLfffdd8MMPP7hvlcFaE7/++qv7VsfEiRNtqO3ff//tQpoyadKk4Ouvv3bfyoPnKneuJiNUuGcxpkQ+VvIscZLSjQFNusqF8qy0XMhf8qvYNCSu/8svv7hvxcmaN0kyOHnyZJPBYvz+++8Wj08gXXzniF8vDudUO4Q4Kd18RyGrBK5XaZqQIcquUpA3rlELGKZN2ZUzzzdreSCblG9h24SMffvtt+5beWSpL16uvCx7GeMo9YxZ85U843qFcG3WYSgnHz2klTLI2jYl3T+NamWtGjn3JKWXZ6Xu8Vu5IFdZ282kel9O/UlKO9f77LPP7NppUEdK9ctJEJ98ySIL3L9U+85zcr1aTVdFFqrRY6rtgzmX8iiVr8TxfU0hzV2ehaS1h1y3mBOe8yjDuBxnYe65586sA8Qpt6yRtaQ8T4JnLjddtdDfhBApRA1Nq2TPPfek97Pj8ccfd6GNueiii+rj7LDDDi60co455hi71htvvOFCikPcHXfc0X1rzDTTTBMeeOCBYWTshwcddFD4r3/9qz6tc845Z3j88ceHkeJpcaNGO+zfv384++yz18eJOgFLT9TgWpxyWHfddcOuXbuGUacVnn/++WGnTp3qrzvddNOF/fr1CyOD3+JGjXM4aNCgcLHFFquPM/PMM4fbbLNNGHWwFieNd955J9xss80srf7aK6ywQnjttde6GE155JFHwrXXXtvi+vuRH1tttVX42GOPuVgNNFc+jh49Otxggw3smpxH+pZffvnwvPPOs3wsF59un7+FZTDPPPOEW265Zfjee++52E158803w+222y5ceOGFwzZt2th5M844o6Xx9ddfd7GSiRSPcLfddgsXWWSR+ntSprvssks4btw4F6sB5KVDhw7uW1MqKWcvg3DZZZeFXbp0qU/LDDPMYL8nPUdhvY8f/nqFUDbnnntuuMwyy4TTTjutxeNZkPFIYXGxslOY7rvuuitcddVV6+9PHq655prhAw88YL+nESl9Jpdcp23btnbufPPNZ2X+7rvvuljJ/PTTT+EhhxwSLr744vXlPuuss4b77bdf+N1334U33HCDhT388MPujMZEyl+4//7718sb11hyySXDY489NoyUZRcrG+Tt5ZdfHnbu3Lk+LXwuuOCCVheTnqWS8vjf//5n8W699dbw7bffNlnjXNKdlXLry6KLLmpxkg7qbZxK8vW0006zuN9++621bT179qxPG3Kx9NJLh3fccYeLnc7FF19sbZFvM8mbTTfd1J6LNpow5C2Ov/8HH3zgQhpTraxVI+dJFObXW2+9ZdfxMtSuXbtw2WWXDQcPHlyyPR42bFi4yiqrWPn7Z1prrbXC++67z8VoSmGfifz6tvPmm292MYpTmPZ7773X7s93f9DnPf/88y52GN55551hjx496n/n+Whrnn32WRejKVz7sMMOs7aU+JxHvlPX/vvf/7pYTUlr35Fp5HfeeedtlA6uP3DgQJOBcvjwww/Drbfe2mTAX4/6ePbZZ4eREV/ftvN/EpX0M2lQblzj/vvvdyHJEGfXXXd13xpojvJMo7A9pB5tscUW9fWAg3bn+uuvd7FD01fRn7xMUJfR57Lk2z333BOuvvrqYfv27e3c2WabzeTlueeeczGSqaas0Y3S9GYYPnx4uNpqq9WniYO6f80117gYTam1/iaESKbVOh1QfHyDQ+ObxHHHHVcfp3v37i60cmrtdNh5551NYafDHzBgQHjddddZo7ziiivauXQmKI0o8TT2KBRXX321KVa9evWyOHRk5eIVKBT96aef3pRljAeUVzonrtuxY0dTKtZbbz3rpEgrvxMPg5UwDHzvnIhDh8a1UcJ5prvvvju84oor6q+/+eab1zsDPHTMXJeyuvTSS00hGDFiRHjyySdbepKetTnyEcWZdKF8n3jiieHIkSPDCy64wJ6Bc1E4vv76axc7G6QbGd5www1NMaQTJn/oUI844ghLJ/l31VVXuTMaIIzzl1hiifDwww+3zpZ8QkGcZZZZTLlAKU9i1KhRpmRjIB988MGWV1yP+2Psc9+4EZamlEIl5QxeBpElnp9PnISkBYOVaxIeV27GjBlj9R0HCdfHacZ3joceesjFqgMnk1f0UBx5VpTvU0891RRp5PfBBx90sbPh033GGWfYdSk/nwbkFDkkfO+993ZnNAbFmXJDnnbaaadw6NChpgAjtyhoPDeyn8TLL78cLrTQQonn4qhaYIEFwjPPPNPun2QIknfEoexpy0jzTTfdZI44lLCllloq/OSTT1zs0iCn3AvjDwMUZwvygFxxD+SxkErLwyvZxEPRxCFwwAEHZDY2KqkvtD3kD0YNz+JljOOVV15xseqoNF+94XLOOefYJ0oxxhxG8b///e9w/vnnt3CckkngaF1jjTUsDg4LrsO9Tz/99HonBM/O7+U6HaqVtWrkPA2fXsqO87t162YywTOTR9RNfseYQ9bi/Pzzz2GfPn0sTjy/6HMI33333RONEF/vaSd5JvoU6vv777/vYhTHp923G7SPtBv0Q7R3lBUHxtEpp5xiceibzjrrLJPzo48+2mSV8CTnyKuvvmq/U4f23Xdf66tvv/12c5B4B9qVV17pYjcmqX3HUUZdJZ+pz+QT96Uc+/bta/WpnLYTIxgnD30P/S/fkU3SSv3r3bt3fZueZIhW2s+kUSunQ17lWQzfHqLfzjTTTOFKK61k6aHdQD/xhj46Cm0y+YYjgjaFOMg7ugxxqI9peB2bunLJJZeYAwKdibpC+VP/k6i2rLl2kt5M/aW/5Tyc++Qlckk99Loe9TNOHvqbECKZVut0oHGnweDAy/njjz+6X+rgzRaNno/D/9VSa6cDDSENOspjIbz9ZiQB52MoY8h8/vnn7tcGDj30UItDXpQDSgb3RnlMeuNEg+zvTYf19NNPu18a4A0ccTD44/CGng6XtxJJIwhuueUWOxcFuxA6TxQk3pDFoXNK6hjyzkeMdH6jk0x6FvKBtwwYXuVAulEYUBBeeuklF9oAb31XXnnlRIOIZ0DBSVKyeBNM3q+//voupAEMHwwjDJJPP/3UhTbAmxnyn468kCSlFCotZ+Ca5MEcc8xhCnMc6hiyx1u6JFCmuXaxuogjg/xLGiHDWzze4FAH+D8rpBvnDGnHQRQH2d1rr70sbShahSDDGLE4dpLqFIYS5YazBUO2kN9//93eMKadi4MQZY7n5d5xQxAjAvnnDW3SaBbkhrdAGL5Z4C049Q7HZRLUxcmTJ7tvdVRaHl7JRh4wAMod3VVpfYGNN97YZDSNavLVGy7IEk6bOPRpGLoo8EnX9m8LhwwZ4kIaQNaOOuqoenkox+lQraxVI+fF8Oml3cSwSypPDGvi4OiIg/HMb0n5RV/h+/cLL7zQhTZAvUdOeKZnnnnGhWansKzpU+KQD+QHzhzi8QY2Du03egyGd/zZcZRgTPLmPQ71BaOTc5PqTlL7ztt70oFhn0RSP5oGjhnaTIzVJDnGyU3/7OUpbohW08+kUSunQ17lWQzfHtL+4kSNO8kmTJhg16TdoO3CSRTXqchHnHOkEQdhHBzC3AOnShzqiq9L8bpQbVkDeZqkN+PE5RxeTsThOrSHvCSbNGmSC81PfxNCJNNqnQ4otHSkNCgcKHa8XcSbu+222zYabuaPpLcf5VBrpwNpTHtT8tFHH9WnmykHSdC40rFgWJcDSgbXpWNJgk6MoXDEOeGEE1xoU/A2k+9xNtlkEwun80uD0RV0ToVDNHnbyTXLIc98pCPDCGIoYpIjxMPbAq5fzhsL0s05vI1KA2MAQ4uOtBwY1shblDh0rHT2aaMg0khSSqHScgYvg2lv38ArNknKSymnw4svvmi/8yY0DRwv5C/GWVZ8ulGA0vBGGwolb2c8frpX3BlRCI413lbicCqEN7mlzmXaDEYR8eKGoD//qaeeciFN8co7BkcpcFYSl/Y2C9WUh1eykcG4I6MWpNUXKOV0qCZfveGS1keAV5p5W1iIz88k49pDO84wZOKV43SoVtaqkfNi+PTiNMXwScM7YwoNotdee83CiuUX4PiiL4gb777e45CvBJ92HG9p4MAnDqNX0qC+EYeXKuXAyAfOYwRLnKT2nSlvxH/00UddSOXQT5Tqd+g7uR9H3BCtpp9Jo1ZOhylRnr495M19mrPCv5SjjiY5ooCyJQ6jGArBkUqbh1ykQRnxQoAXRYVUW9aQ5HTgxQTxi7WVcfLU34QQybTahSRnmmmmIDLYgqhBse9RZxNEBkwQdQa2cGTU4AR77713ECkQ9jtMl9M2P5USGSapq0Z36tQpiIwWe86o8XehjWnfvr2d/84777iQ8th8883df41p06ZNsOyyy9r/kaFqn0l0797d8v372AJhkQIebLTRRkGkVLqQpuyyyy62oFHh1kiRwmerxUeKXckFJAvJKx/ffvttWzxtv/32CyJjyIU25dBDD7XPqBO3z6wssMACwVZbbeW+NQXZjjrxIFKebRGorPAsP/30U5PFNNnJpXfv3pZftaDSci6k2PNHBol9Ug7lQtogMjLsMwkWnV1zzTVN5srl8MMPd/81JVK6goMOOsgW9XrjjTdcaJ18IId77LGHC2lKpCQFffv2DSKjstEidZRdqXPnm28+OzeJxx9/PFhwwQXtedOgrtNe+rwrBnu1R4ZAEBknwT333FNyIb9alAftFXlQa9LqSxZqka/bbLON+68pK664on1GRol9eiLDwz5925ME7fjBBx/svmWnWlmrRs6zwDNFhon71pQjjjjCPn0eAc8ExfIL+vfvbwvTpS083a9fP/dfZRTrT31ZZ4lTbp/v+8f333/fPkvRo0cP+zzmmGOC1157zf6vFMqhVL/DbmNel4tTi34mL6ZUeQJ5Mu2007pvjUE3A3Qq2ukkVnA717z11lv26eE7Ot3OO+/sQprStm3bYIcddrD8/q1g4cxqyzoNX38PO+ww+8xC3vqbEKIprdbpAEsvvbQ11kOGDLEGkIa2V69epjg89NBDwcCBA+tXtkXpw7isBt/poaCWwsfB4E0Dxb0YKHZpxrRn/vnnr2gV9znmmKNoJ851oVgaMZqh8P7jxo0zYwtDmc4n7TjuuOMs/uuvv26fMHToUNunmY5lttlms/JEwcSJVCzP88rHV155xT69AyYNziU/ffyslLoukAco5R9++KELqQNnDw627bff3hQLlBd/DBs2zOIUrgDNqtoTJkzIdM8sVFPOntlnn73o1lgdOnSwz0qMwVdffdU+cTwmpcsf7777biPHQBZoRxZddFH3LRnkGHw6APno1q2bGYPF4FycTIXKPv9nOXf55Zd3/zWG/GfF86Q88AfKIMZcUlnFIR133HGHfW666abWzq2zzjrBv//9b2t7/46tzl6L8ujcubP7r3zKrS9ZqUW+Lrnkku6/pqTVAd/WIBPFqKS+Vytr1ch5Fko901JLLWWOv5dfftmFBPXGaKn8WmaZZewzqS2fZZZZbBX/aijWV2Xpc32cpD7/jz/+CK644opgt912s7pYKOPe+ZRVxskHdgRDZiknnnuLLbYIBg0a1ChfS0E/MXHixExymBSnFv1MnuRZnqUo1h5muTc6Fi/i4vf2eXjJJZck5rU/br75ZmvnvdOi2rIuhpe5UvW3EF+HS92LvKpEfxNCNKVVOx0AT+8BBxwQ3HTTTaZY4K286KKLgvXWW69RB7Tqqqu6/yrHN+AfffSRfRbDG4koQGnMMMMM7r90ssQp5y24J8t1odz74wGHjh072siCtGODDTYwI8B724H9wulceHuIEoFT5Oqrrw622247U74ZyZJEXvno36b9lWF7JeL4Z89K3DBLwiuJhddGzhdeeOHg0ksvtbfDvH3bd999648kY6CcZ8lCNeXsKRyFVIxK5NunD+U7KV3+2H///YMBAwaUdQ/KrVR8/+a/sNwog6yyBJWcmzbigGvhGEjKg8KDerftttu6s4rD230UzVtvvTXYa6+9zDjA0UuZM8Lo+eefdzFrUx4YfZVQSX3JSi3yNUs9qLRtKjUCJYlqZa0aOc9CqXbT1894/YFS6SqWpkrlr5C8+iqc8jgKcNjjcNlss80ayThvxcsFRwXOahwZOM4YbXPUUUdZW8525DjySpE13yFJnnw5VNPPJFHKIQZZRuDkVZ5ZyOvePs8x1pPy2h84cMlzXh5AtWVdjHKu7SnnHOKU2w4JIRKIGpSplkjBpTW1I2khn3Lx88qKrfjrGTZsmMVNmx8dNYgl56exZgUr6xaDBcqYt1YOUYeROEe/kEhRsfQXmwvHwk3EeSe2ENFcc81liz7VgqgzsG2lImXC7vV6bGeFPPOReZbcM22VZk9keFm8+Gr9xSDd888/v/uWDquks/hjIcwRZTGmyMhzIY1h/jbpYceOQiiXtAXzipEmL9WUcxYZZK44z5G0yF6pNR2Yp8rvSXOYq4F0c920NUQ8fjFW5t57WDMkUgKLzkeHPfbYw+SjcOErVkfPci5zjLlvfJ4992Z+b2SQuZB8YA0LFiJlWzsOTzXl4ecwF1v/oxiV1hcotaZDNfkaKex237QtKyFSzi1OfFV2v25CqS33/IJw5azpUAtZq1TOi+HTm7a4ocf307QRHi9/pfLr+uuvt3jxnRmytFfFyFLWWdYZYDcf4sR3/mDtJcJfSliUGIq1peU82zfffGO7R0RGe5M1kNKg/mTpd/w6Ush8IbXUJzwsZsu9ii3CTV4Sp9iaDnmVZzGytIfsKkYc1iErBgt0spVwIV7vYfHdcqm2rCFJp8tafwvJU38TQiRT5+qbyuBNx3/+8x97Yw68Md9nn33sf2AIWNRJm9f+66+/dqGl6dq1q81FYxpAMS9/pGwFp59+unmA/dzIqQmG3kVKTvDee++5kMqJOqBgtdVWCyIF0r5HnY59NgeMUmEKCdN3ir318GmLOlv7zMqXX35pQxTTYOrQvffea2+VCmH4OUPE09688fY5iUi5tJFAhUP+40RthvuvNLUs53LxbyXS3pgwzQrZYdRTHkSKt/uvKcxx5b4M2SwcDsrbOOYdI09pfP755zadiHaj8C0VZVfqXMqdc5Pg3rR7N954owvJB97aR8aIzaNlSoCfQ553eRSj0voCyFmxt3LNla9x1l57bfssJof0g5Hh4L5lpxayVqmcZ2Hw4MFFy8Tnic8j8PKXJb+QE7+ezD8FZJx1Mvxc/jjFZLwc5pprruDoo48O1lhjjcxr4fTs2TN45JFHig5fHzVqVPDJJ5+4b43Jo5/xI1BHjx5tn0nccsst7r+pC6/3MLKUelwO1ZZ1GoyQo/6ec845LqQ0eetvQoimtGqnA50Qc6tPOeUU6yBYWJL/V1ppJfv0MER/5plndt/qFos644wzbH7irrvu6kJLw1QOlGaGETNEN8lhwfxeHBzMTT7zzDOLrpvQWkEpZOEeFgmMr0UADAUl35988kkXUgcKX5oTiPwEhm03F3RydLwobKQ3aV2JG264wWSCNUVQ1suB+ZQMYWW+apyxY8eajGH0MLe2EBxfY8aMSZyfS4c/fPhw960xlAsK9Y477pi4oBiLQDH8vJgjpJBKy7kWLLLIIvaZ5kBhISucitR9FBUMijj33XefzX9O+q0YtANXXXWVDTuOQ/3fc889gw8++MDKrXABK9oFHGgMtX/wwQddaAPIPnKE04IFGgthChlzq9POxYHFuWlDRLk3Bh5DrVHg4+BsOuuss6xNzAJOV56vcBGxQqiv5BOLLEKe5VGKSusLIGe092lKcq3zNSsMfT7wwANNgceQjjsLeVYWM02ql6WohaxVKudZoO3CqZVkECGTlCd1sNBxgPwdeeSRRfPrkEMOsak4lNU/rd9Gxlk0L6m86b9OPPFE9y0bOPdZsyUJ1sli2kXWvph+HWcki8jSLsZhGhYyl+YUzKOfYZ2nVVZZxdpx2oY4OOdJd5ZpGK0N9B7yhek05CvtXxx0bxbIjOtr1ZZ1Grzwo/6i49Oexusv65lwTxyNfhHyavQ3+nHac64rhCiDqHK2Wth7l0dMO9i659prr3WxG4iUxPo4iy66qAvNDkMZowbNtvyKGjObZhA1trZlJ8N4ue4ee+xRdMgt57fW6RXwwAMP2PBqyoA8In8uv/zyMFIWLY9mnXXWRttFMpSRIZsMy2XL01NOOSW86aab7Jzdd9/drtOrV68mW0Q1Rz4yPC8yoCzdhx12mA3JZHgl6eH5e/bsmXmrLg/pjjo628aS5+aZmQLEVmWR0m570bdv3z6MFGh3RgN+G73VV1/dtuNjCD/5zd71nMeQcH5PGi7OtlAMV42UOJNRtlJjKgBpYaglv0UGo4tdRzF5KbecPVlkMOr07TmShgRPnDjRyout1Ej/yJEjw7322qvR1oWRUWP5yjW6detmwydpD5Atn0ds8cW1suLTTVlx/pprrmnXu+aaa8IjjjiifthoZMC4MxoTKc221RhxNt98cxuqzHDxyIAMZ599diu/tK1sGS4aGReJ59IWRQayfed38i4O28ey3SC/9+nTx/b1Jz/YopLpS8hh0jD8JCJDwK7DFCHkiKHsI0aMsGH/DK/lt/h2u5WWR7XTK6qpLwzn5bfIyLeh98gidbZwqkal+ZpliDbDj4kTGdEupAG2+mU7XX5n6zq23+O+DKmmzYuU//DOO++038u9f7WyVo2cp+HTyzNyPukjj6l7J510Urjqqqva70yrTKrT9GVsj0qceH517tzZwpGJJLK0V8XIezj+xx9/bOXSsWPHcOjQoSa3TzzxhPVdtJOUAedlnV7h41OG5MmQIUPCG2+80fr8Ll26hG3btrU6lBWmXEWGpvXvtNOkkTaEfoe+kDp46KGH2j2ThtxX2s8Ug6mapIe+HR2DtisyaG16Eek4+eST7brcL07e5VmMvKdXeMgL8pt8pz8jv8l3tgKl/lFnkrbGrLas03Q6+g+m9HAe7SptGvX3yCOPtP6E8KStrCvR37xtQRshhMhOq3Y60OCsuOKK1jgUHhgiKMIoPkncdttt1tjSuGHkVQJzk1GQacj8fencacgeeeQRFyudtIa1kH+y0wG+//576wRQXOi8iIshTccxduxYF6sB8hTHDQo8nRrx6SzIBzpAlOw4zZWPzBNmfYUFFlig/jlwXpWjLBRSmG4Uuq5du9p1OVDo+/XrF37yySf2exI4D1CykWPOQQns3bu3KTEYgIQlGVHw7bff2r7mXnkkLnUGBe7rr792sRooJS/lljNkkcFiTgd44YUXzHjAqCMez/Pkk0+6Xxu4++67LW8oX+JxkN/ke7kUpvuhhx4yA4ey5Jo4bDC4k9JQCI6zM844w9ounD+c26lTJyvztPzyMP8dY528pm5wLkohShyGFs9KWJIhCCh5gwYNCldbbTVbK4S4yMBaa61V9p78GLQYcdQvnxYMXa6NgZJGueVRrdMBqqkvOP4WWmih+vMw9MeNG+d+raOSfM1iuBRzOnhQommLqHPE9Y5b2mXaTMIqcXpUK2vVyHkShenl2H777U3eCKO/IO+z9OcYRRgaGOmcixzS/j/++OMuRlOytFfFaA4jFQMQg9nLHwfOMtaXwtHG96xOB8qe+oisF+o45Bn9YDlz6z3ULwxWZMBfD8MVpzEvaHDaEpZkiEIl/UwpOK9v377Wdvs0de/e3RyoMDU7HQCZIn8Ky2y++eYz433y5MkuVlOqKetSOh1OZPRs1o/gGvT/1H1fZkmUq795h0vSSx8hRDpt+BNVslaNH+7HMLBIKbIh4lFD5H5NhiFYUYNXk2GUDMVieKZfxVc0hbxmeFs5ecRe0cQvVZbNDc9R7vDAOJFBYkP6Cod2M9yY4XyFU4FKQfX2+RR11i40O8gt9632eTyVlHO18AzcNzI8XEg6P/zwg8WLlC0XUh7ML2atDeake5gOQNtTSVvCubRfkRLkQrKDrDDEvJqyQ3ZIdyWyUwjr2JAH5ZZ7teVRLtXUF+SaocORAe5C0qlVvpYL2+LmUfeqlbVq5NzDOklsyRoZeo32+eeZyetK+glkNjIs3bfWA3lCXteqXlH2tLHl9E3FQGeiHhVOPyuHPPqZiRMnWlsUGZsuRBTCugjU43JloNqyLgZyTv1Fn8pKVv0NvaK5+iUhWgtThdNBiH8aSU4H0fJJcjoIIfInzekghBBCiClPq15IUgghhBBCCCGEEFMOOR2EEEIIIYQQQgiRC23/L8L9L4RoIcwxxxw2VF/DhP9ZMH+ULRLT9sMXQuQD62ksvfTSwRprrJHL/HAhhBBCVI7WdBBCCCGEEEIIIUQuaHqFEEIIIYQQQgghckFOByGEEEIIIYQQQuSCnA5CCCGEEEIIIYTIBTkdhBBCCCGEEEIIkQtyOgghhBBCCCGEECIX5HQQQgghhBBCCCFELsjpIIQQQgghhBBCiFyQ00EIIYQQQgghhBC5IKeDEEIIIYQQQgghckFOByGEEEIIIYQQQuSCnA5CCCGEEEIIIYTIBTkdhBBCCCGEEEIIkQtyOgghhBBCCCGEECIX5HQQQgghhBBCCCFELsjpIIQQQgghhBBCiFyQ00EIIYQQQgghhBC5IKeDEEIIIYQQQgghckFOByGEEEIIIYQQQuSCnA5CCCGEEEIIIYTIBTkdhBBCCCGEEEIIkQtyOgghhBBCCCGEECIX5HQQQgghhBBCCCFELsjpIIQQQgghhBBCiFyQ00EIIYQQQgghhBC5IKeDEEIIIYQQQgghckFOByGEEEIIIYQQQuSCnA5CCCGEEEIIIYTIBTkdhBBCCCGEEEIIkQtyOgghhBBCCCGEECIXWq3T4bfffks8wjB0MZL566+/grfeeiv43//+F7zzzjsl41cKaeFeWfj7778zpb0lM378+GCJJZYI+vXr50Kaj9NPPz1o06ZN8OGHH7oQkcSkSZOCjz76KBg3blzw+++/u9BkvExm5c8//ywan9/iR6k0AHUi6Vx//JPrjBBCCCGEEK2BVul0mDhxYjDDDDMkHvfee6+L1RgMrmOOOSaYe+65g6WXXjpYa621gi5dugTzzz+/Ga1ZDKCsYPySliOOOMKFFOeKK66w+I8++qgL+efx5ZdfBh988EHw7LPPuhDREvjqq69M7pdccslglllmCRZbbLGgY8eOwUwzzRSsueaawdVXX53oHLvmmmtMJi+88EIXUpyddtrJ4iddy9eH+DH99NMHs846a7D88svb+a+++qo7o4EHH3ww8Vx/PPnkky6mEEIIIYQQYkqg6RURvIXv0aNHcM455wQTJkxwoXV8/fXXwb///e+gV69ewU8//eRCRbkst9xyNoLkpZdeciGN2WGHHSz/Wwq88d9iiy2C++67z4W0Pq688sqgU6dOlu8Y9/vss08wZMiQ4Lzzzgt23nnn4Ntvvw322muvYIUVVgg+++wzd1ZjcJzVyrDH0Td48OBGx0EHHWTOP5yFOB/23ntvF7sOfoufw7H11lu7GEIIIYQQQogpSat0Osw444zBwIED6w9GLhTj4IMPDt544w37f8455wyOOuooe8N7yCGHBO3bt7fwZ555JjjhhBPsf1EZGIhzzDGH+9aYu+66K3juuefctykPzqc777zTnA+tEeoFTgbk/Z577glefPHF4PLLLw8OOOCA4PDDDw+uvfZam1508803B2PHjg2eeOIJd2ZjGLnQt2/f4PPPP3chldO9e/fg0EMPbXSceeaZwU033RR88skn5nC46qqrGjmnGJURP4dj3XXXdTGEEEIIIYQQU5JW6XSYbrrpggEDBtQfnTt3dr80ZcyYMcEtt9xi/zOVAsMXo2aPPfYILrjgguCpp54KZpttNvt96NCh/wgj9Jtvvsm8XoTn+++/tzfbxfj555+DP/74w32r48cffwy+++479604nB+fpjJ58mQ7gDT77xysG1AMRqH8+uuv7ltt8Gn45Zdf7DvpLUxTKbLmPesNxNPOtKAvvvii6HMzDYjnrobHHnssOO6448wJ9Pbbbwcbb7yx+6Up22+/va3xwPSGJHBcIDdbbrllTacgxWEkxmWXXRasssoqwfHHH1/zchdCCCGEEELkw1Q/veI///mP+y8Ijj766GDxxRd33+rg7eu+++5r/7MY3mmnnWb/tzSef/75oE+fPsFcc80VzDPPPDYnn7Sff/75qYvpvf/++8GOO+5oc/l54816FjPPPLPN5b/hhhuaOBiId9hhh5lRzBD8RRdd1Bwy3HPeeecNttpqK7tmGpyPM8fD23Hux4FD4r///W/9d45Ro0a5mHWQ/xdddFGw8sor27Xmm28+G9Wy0EILBYMGDWqS3krgzT73Zqg/MH2gME1JDpZ333032HzzzS3ffd6vuOKKwXXXXediNAVDnziUDdMByMt//etfwQILLGDPRLl454LPb2TTPzeflY4wOPLII4O2bdsG119/vV2nFBj8aWyyySbBKaecYiMl9t9/fxeaD9NMM409M3Lw2muvuVAhhBBCCCFES2aqdjpgzD3++OPuWxDsueee7r/G8DbX8/DDD7v/Wg5M+1httdVsFMaBBx4YjBw50kZrMPQco5nfWLeiEIbMs44Fb715c8xUAox+nCq8qec6vHmPw28Ymiw+yDoXLHI5fPhwWwOAay2zzDI2NSULODpuvfVWO1g0cNVVV63/zkH6PIwMYJoMTg/WITjxxBOD22+/3UafsPghU2J23313F7ty1l57bbv32Wefbd+RicI0xQ1wHAusV8H0HJxWd999d3DJJZcECy+8sKWHdSEwktNgBMGxxx5rDiOmN1x88cWWv0wp4K0+I1D4jecjP/ideNtss409f7du3coa+cC6Gi+//LKt1YDToxaw5slmm21mi0syGiFPcM4Ai5IKIYQQQggh/gGEUwFbb701r/rtiIxCFxqGH3/8cX14ZAC70KZERmPYpk2b+riTJk1yv1RGZDDZdQ455BAXUpxLL73U4j/88MMupIFRo0bZb7vsskv4yy+/uNAG7rjjjnDaaacNt9xySxdSR2TE2nnvvfeeC2nM559/7v5rYJpppglnmmmmcL755gtfeuklF9rAF198Ea688sphu3btwsi4daENcP6OO+7ovjWG61JOxYiM7fDNN9903xrD8/M8zz77rAtp4LTTTrPfyPesvPjii3ZOZOS7kKaQd9NNN10YGdyJeX/LLbfYNQYOHOhCGlh33XVNpuaZZ57w3XffdaENXHDBBXbuggsuGE4//fTh008/7X5pgLIlzs477+xCSjNkyBA757777nMhlXHllVfadUgD/Pjjj+ESSyxhZf/MM89YWCHbbbedxacuxSmnPpxxxhkWd8yYMS4kGcqNeI8//rgLEUIIIYQQQkwJpuqRDrxF9jCsPQ2GojOk3ZN1DYNSsCge9y11sC5FEow62G+//exNv99WMw5v2hlOHxmHwf333+9CA5unz9oXTE1IokOHDu6/xjANgh0OmLoRhzUxeEPPMHgW4aw1jDjp2rWr+9YYn0fNuRglCy4yPWHYsGGJeb/tttvalIP/+7//ayRrnqj+2YgUtquMw+KmjJZg1whGOay++urulwYoW6bClLPDht+Fwo8YqBXkAyNlkCl2jmArzlrDOg5M+2H6CSNqhBBCCCGEEC2fqX5NBw8GYDEKF/dr06aN+686mCaw6aabljzSDCwWAWTaBI4HpiekwWr+8Oijj9onYKyy8B/nlmMg4gRh7YY0cIAwPYDdPkrlaS3xa3GwvkJzwSKjG220ka3FkMYuu+xixnLaVqGsBZEEMrbsssva/yzSmAbOH5xgSU6NYuRRNixMiQMGecLxUGxaSbmwe8V2221n00MuvPDCoF27du4XIYQQQgghREtmqnY6FG7fWGxBPkYUFK6JwFoEtYBt/ZgDX+pgvYQkXnnlFfv0xmkajEDgWX18YM0G1hPASOR33nzvtttuwZVXXmmjINIodS/AEGZExIcffuhCagejNXCUsM7BSiutZOsScPiRAHnuoFAIecTOHThXevfunXqwSwS8/vrr9lkIZVLMYUG5wBJLLGGfSeAEglI7j3hY5wPyKBvA2cDaFs8++6yN1igHnDiMyik8kH0cZDiVHnjgAVt/hK0zhRBCCCGEEP8MpmqnA8PX2ZEAeFM8YcIE+z8Oi9b5N8Ocw+4ELQGmMUCWLRqJwzQRD+cyVJ3REueee66NpmCYPlMYFllkETPsk96GF9vO0eMN/8L71QJ2dGBkAW/Se/bsaWllZxGO5jZE/bNhxOM8Sjs22GADW5xzhRVWsPiFJE3JSCJLvKwjF9ZZZx37vO222+wzDwYOHBist956waWXXhpce+21LrQ0LMaJ08sfTD9iVxYW72QBURwlp59+uosthBBCCCGE+CcwVTsdGMLO22gPRk4S7BbgWX/99d1/U57ll1/ePkttH8g8fnai8PELWWqppeyNMvPxGc2Bg2WHHXawZ2ZniDhZtiokDs4cpo/UCqaGsF4EW4CSVt544xjxh9/WtLlgzQu2CmUtA3YPKXXgJGkJdO7c2XYJYacJRiPkAQ6tESNGmEOGshkzZoz7pTgHHHCAyak/fvjhh+C9994L7r33Xlv7YsEFF3QxSzN58mT7ZEtXIYQQQgghxJRjql/T4eSTT3b/BWbY8Oa/kNGjR9sijcAieWzV6OHtMosqYixlNaxqCQ4DhteTBqYzpMFIBsjiMGFNBpwvPCvD3eN8+eWXwc033+y+NeWdd94xI3GttdZyIdlg5ECxNQB4Cw6MdEii2JSQSvAjGYqlCYcVW6hiGP+TGDRokH3uuuuuqaN7CilnS04PU0dwDuGAYE2Kb775xv1SO6h/aWtZ+DJBnoUQQgghhBBTjqne6bDccsvZ2gbAm/4ePXoEBx10kL3l5+05w9F/+ukn+71///71c+KBoePEZRg5BigLBjYnGHR+DQYMSJ/OQphCcdFFF9noBYb7e2688cbg1Vdfdd8aM3bsWJsikTRSAWcEc/VZyyAO5/Xr188Mdhb7KwemdOBYSJu+4Y3HpPuS1lqPdPDP/vLLL9tnEoMHD7YFPFlYM2mNBMqDcnnyySddSMtgjTXWsLQzqgXH1a233up+aQxlwYgXphRdffXVLjQ7jKzhfEbaPPbYYy60drBjySqrrNLE4YSThJEWrD/CSJRCGAGBo+iPP/5wIUIIIYQQQog8meqdDoCB7OfcM6ybkQMstMgIB+9I6NWrV3Dqqafa/57333/f/Vd3Xq220iyHDTfcMDjzzDPtrTLbSbKNI0PnmfuOk4HdExh1cMkll7gz6ox04mEUMvf+mGOOsQUlr7vuOvuf+CxiSB7EYaFAFvbjYDcBpjtgWGL0L7300pYnjJTwu0lkBcfPRx99ZNtMYgRTBoXrNLA2AgYmTp6TTjopeOKJJ2y+P8YwC0ry1putFGsFw/K55/XXX2/G7ahRo4JTTjkluOCCC1yMwLZRxbjlLT47N7AQJ8Y8csNWmZQH5TIl5KIUbGmK44kRMuQ5i3Eee+yx5mxDdgjD8cL0COoGu6hUAvKXJEe1YO2117ZdLSh/prDgYCPtyPWkSZPqR/gUwqgkRvxQlkIIIYQQQohmIDLWWj2Rocwqe3bcfffdLrQxv/zySxgZs2FkSNbH5Vh44YXD8847L/zjjz9czAYiA7s+fmQ0u9DSfPDBB3ZOZPi5kOJceumlFv/hhx92IU159dVXwy222CJcYIEFLG779u3DHj162LlJfPHFF2FkqFmcOeec087h4Hkiwz6MjDkXs4Fpppkm3HHHHe3/IUOGhJFRXX/eIossEvbr1y/xPE/h+XHI38i4D2eddVa73gwzzBDus88+4Z9//ulihOH3338fHn744eE888xTf98OHTrYc/z666/hTDPNFO65554udgOnnXaaxSXfy+Grr74y2Zl++unt/LnmmsueOw7p6t+/f7jMMsuE7dq1s7jk/zbbbBOOHTvWxWrMuuuua2kvxr777mvX4tnSGDhwoMV55513XEh5fPfddyb3yy23nF3HH+R/nz59wltuucXFbMyVV15p8e644w4Xkg5lu/rqq1v8wvL0lFsfCnnllVfCjTbaKGzbtq1dY9pppw27d+8ePvHEEy5GY8466ywro+HDh7sQIYQQQgghRJ604U+krAsH2cE0Ad5OR8Zto+kUSTDnn7jzzjuvC5nyMKw/Pqy8FIzUYFeOyCBzIU1h2gTTNCKDzYUEwW+//WZD1f0uILWABQSLbSUJvMlmIdDIuHch+YFMsD1mlkUJkQfyf/bZZ3ch/xxIO1OMmDJSq21hmwufduqhX48jDUb6ME1ICCGEEEIIkT9yOojMJDkdhBBCCCGEEEKINLSmgxBCCCGEEEIIIXJBTgchhBBCCCGEEELkgpwOIjPszMAODUIIIYQQQgghRBa0poMQQgghhBBCCCFyQSMdhBBCCCGEEEIIkQtyOgghhBBCCCGEECIX5HQQQgghhBBCCCFELsjpIIQQQgghhBBCiFyQ00EIIYQQQgghhBC5IKeDEEIIIYQQQgghckFOByGEEEIIIYQQQuSCnA5CCCGEEEIIIYTIBTkdhBBCCCGEEEIIkQtyOgghhBBCCCGEECIX5HQQQgghhBBCCCFELsjpIIQQQgghhBBCiFyQ00EIIYQQQgghhBC5IKeDEEIIIYQQQgghckFOByGEEEIIIYQQQuSCnA5CCCGEEEIIIYTIBTkdhBBCCCGEEEIIkQtyOgghhBBCCCGEECIX5HQQQgghhBBCCCFELsjpIIQQQgghhBBCiFyQ00EIIYQQQgghhBC5IKeDEEIIIYQQQgghckFOByGEEEIIIYQQQuSCnA5CCCGEEEIIIYTIBTkdhBBCCCGEEEIIkQtyOgghhBBCCCGEECIX5HQQQgghhBBCCCFELsjpIIQQQgghhBBCiFyQ00EIIYQQQgghhBC50GqdDr/99lviEYahi5EtTq35/fffgz/++MN9K03btm2DnXbayX2b8uy1115BmzZtgr/++suF5Evv3r2DBRZYwH1rvTz88MNBhw4dgosvvtiFNB9TSx5PDWy66aZB165dgx9//NGFlEdz1+9aMX78+GCJJZYI+vXr50JaNv/UfBZCCCGEqIRW6XSYOHFiMMMMMyQe9957b+Y4tWbs2LHBjDPOGMw222zBd99950KFCII333wz+PLLL4MXX3zRhQhRHn/++Wfw3HPPBW+//Xbw/fffu9CpA+rOBx98EDz77LMuRAghhBBCtBQ0vaIZOffcc23kwi+//BIMGTLEhQoRBIceemjwwgsvBFdccYULaeCjjz4Ktthii+C+++5zIVOeO++809I0btw4FyKmNNNOO605r95///1gkUUWcaH/fLLI2nLLLRe89dZbwUsvveRChBBCCCFES6FVOh0YTTBw4MD6Y+mll3a/NJAlTi3hzePVV18d7LLLLsFGG20UXHjhhcGvv/7qfhUiCFZaaaWgXbt27lsDEyZMMMML50NLAcOWNFU6jF/kw7zzzhssvvji7lvrIKusdenSJZhjjjncNyGEEEII0VJolU6H6aabLhgwYED90blzZ/dLA1ni1BJGNjDC4aijjrLj22+/Da677jr3a/UwXeSHH35w32oDjpJqromR8PPPP7tvtWPy5MnBF1984b6VB+t1fP311+5bdr766qtg0qRJ7ltTuC7p+vvvv11IHd98842Fl8KfXzjHm/8JQ26A9UD47o9ikA6GnNd6zrhPA59A2nx6SjnReEbm3mcBuYmvfcK55GcxmLZUbT3gmUo9C2lLK4MpmXbWpPHyUopq6zfPk0W+SFM8P8m7UnW4XFkj333cUnDvrPkEPEMl7QY0Vzua1AZRPvQ1QgghhBBTEk2vaAZQWBnZ0KdPH3sbt+6669pw4HPOOccUxUph7QkWAZxnnnmCf/3rX8Hss89ux3777Vexosnb9G222SaYf/75gznnnNOux1Bt0prFwMDQZTTHwgsvbGtXzDzzzLbAW//+/at+K37ZZZfZInlck4UPGa3C87/xxhsuRjrXX399sOqqqwbt27cP5ptvPkvb2muvHdx///0uRlMeffTRoGfPnsH0009v+THLLLMEc801V7D11lsHjz/+uItVxzPPPGPpGjVqlBkYPC95R9kQvthiixXNA3/+tdde60KC4Oabb7awtdZay74fccQR9t0f8XVB+H744YdbHrE2CQtTkvZll13W3hTXggMOOMDuffzxx9v3lVdeuT49K664ooXFQU7XWGMNyz/exCOrlNvo0aNdjKYQ97DDDrP88nnJueQnZXDCCSfYGgbASJCDDz7Y3nLzm893nImVjCZafvnlrdyLcdppp9kzf/LJJy6kgSmZ9o033rjoSIdq6/e7774bbL755pZGjplmmsnKvZgDlTR52bj88ssz1+FyZY1832OPPdy3ptx4441Bjx496u9N2mmHC+tcIUzX2H777S1/SCftBufQjpdqc6ZEO1rYBr3zzjtWTrQD1D0hhBBCiCmJnA7NAAo5bwUZ4eA58sgjgw8//DC44447XEh57LbbbsEmm2xib1RxMowYMcKUZ+Y+sy7AaqutVrbRcsMNNwTdunWznRR22GEHM9SvuuoqU7IxlPgstvMGz7LUUkuZgYthzvlXXnmlGRWkid8qXeiN5z3ooIOCVVZZJbjooossXawA//TTT5uRmGbA8jZzww03DHbddVczHE455ZTg1ltvNaOOkQtMdcFQiTt/7rrrrmC99dYLfvrpJ3MY4Zwgjw855JBgzJgx9YZQHN6gYsjgMNh7773N0MHQWnPNNYOhQ4ea0ynrYpE4RUjr2Wefbd/33HNP++6PWWed1cLhtddeCzp16mQygJPi/PPPD26//fbgrLPOsrefyAV5Vi2UAffGIALu49NzwQUXWFgh+++/v8kp00Z4jnvuuSc4+eSTzdheffXVbWpTGhhXlDdGFDJOPeIaGG9nnHFG0Ldv3+Dzzz83pwqyhowwhWnw4MEmx8TFwTclaIlpr7Z+8wzINgb30UcfHdx9993BJZdcYobx7rvvbjLmnSlJEOfAAw/MXIfLlbU0aAOo5+wCxLoXJ510kl0DOUQuqf+koxDKYplllglefvlla8v4Tv1n7RXasBVWWMEW7ExiSrejpIupWqzvsc8++6S2VUIIIYQQzUZkbLV6IsUNi9KOSFF2oY3JEqcS/v7773DxxRcPIyXUhdQRKZ3h/PPPH0YKuAtJZppppgl33HFH962Bhx56KIwMY/etMddcc409x5lnnulCSvP++++HM8wwQ9i9e/dw3LhxLrSB119/PVxwwQXDSEm3a0fGhfuljk8//TSceeaZU8+PFOCwY8eO4UILLRRGhrwLLU1keNn95phjjvDVV191oQ1EBlA4/fTTh5GB4EIac/DBB9v5Q4YMcSEN/PXXX+Exxxxjv1944YUutI5IaQ8XXXTR8Ndff3UhDfDsX3/9tftWx//+9z+7zkwzzRSuueaa4fjx490vDTz33HPhnHPOafIQGUIutA5/fmRcuJAGXnzxRfvt4osvdiFNQc5OP/308Ntvv3UhDXCvJZdcMpx11lmb3BfI4w4dOrhv2Tj33HMtTeR/GpGRanEiI9uFNEDe+7J55plnXGgDyH2bNm3Cnj17hhMnTnShdXDuNttsY+cik507dw4jA9792kBkIFqcyGB0Idkgr0rVy8hwtWuPHTvWhTQwJdOeVpbV1u/33nsvnG666cLNNtssUYZuueUWO2/gwIEupAHSRJ5UWoezyBqktZX9+/e38y+66CIX0gDPueeee4brrbdeOGnSJBcaWpmcf/751k7HiYx6y4v111/fhTQwJdtR34aQl7vuumtiOQkhhBBCTAnkdHDk5XQYNWqUXfPaa691IQ3gFOA3lMU00hTpUqDgYyBkZZNNNjFF+K233nIhTbnvvvvq8yiuLG+11VYlz3/wwQft3KOPPtqFlMY7HZKMcY83XuNK+muvvWbhO+20kwtJZvXVVw9nnHHGRgb7vPPOa86DrHiFv3379mY4pHHDDTdYvLghXq3ToRScyzVefvllF9JAHk6H3377zWSQa6eBDGFo4uCJg9xPO+20ZsQl8dFHH9n9OR555BEX2hiMSMoVI78cauF0mFJpTyvLaus35+MwmzBhggtpyv77728G93fffedC6qimDkM1TgecHJxbSRtaDPqLWWaZxX1rYEq2o74NofwnT57sQoUQQgghpjyaXpEzDG9nPnek9LqQBhh6zhxh4tQa5nVHRo/7VppIYbXhuwz/T4NpCqxNkMQTTzxR8vz111/f0hVfDyELkTLu/msKc70hPtyZNAFDoovBPOlffvnFtqz0rL766jbsm2HcxRaQjLPlllsGCy20kPvWFIZ4M8f7ySefdCHNg5/nX45MVENkNNkCejvvvLMLaQrbxzL8nG0OWfckDrLk0x2HqSRML6H+REatC20M63dwPvPbm5uWlvZq6/dTTz1lUxRYjyMNpkEwpStt28pK6nC1+DaANTZqCWXD1Kv44qAtoR1lLQdkSwghhBCipSCnQ46wsNdzzz1nC8W1S9gKEQWeudysH8ACbeWCgs7igsylZp40i6v5g/m8WVdyHzdunO1+wfzyUiTF+eyzz8zAzHI+86Rff/31Jrs8FINF2FhoL40OHTrYZ9wA8MYP86uLQZrglVdesU9g/QXmr2OssJBb9+7drRxHjhxpxkYazE0vBfn06quvum+1g3nizPlGptZZZ51G8kDaIatMVAtlDMz5x4hKO1j7AlnASRGHhfOKwcJ+aYa9h4X8psTq/S0p7dXWb85njQras6Qy9Mdxxx1n8X3ZF1JpHa4W1mSAUm1AEizMyoKhLCaJE7KwPg0bNsziFNanltKO5r0TkxBCCCFEucjpkCN+BANvtVFckw6cA8Cq5uXATg5LL720XRsllcXQ9t133/qD0RVZmWaaOjHIsqr6nwkLxZVzPnGI36ZNGxdSGhaAzEIYWwwya7r877x595B/GCy8TcSYwkHEYnLbbbedGUgs7JZEFmcKeVh4r1qAIwRDBCcJDq7NNtuskTzwlro58c+HbPI2P+2gDmDYYZTGYeX9UmSJE5eLUmSRTRbnLMaUSnsS1dZvX5YdO3ZMLEN/bLDBBlaWLLIYp9I6XC3lPHshOCxZIPPSSy+1kUv9+vVrVJ+SnIvV5nM55xOH+Emyyi4eQgghhBAtiTotR9Sc9957z1YfZ6VxYBvFpAPDg+HWrFCedR949mxnFwUMS3ZCOPXUU217OVbJ9wdvUrPC9nG8hWQHhFIkxcEIZ7u/LOfzdg5DtBynQ6V44+eNEtvb+TezSYYEWydiSD322GNm2LNq/JJLLmmrwiddt3C0RBo+D2oJDi5GyzC8G4cIu6MUygNDrpsTn5c8Jyv2lzrY1aGlwFaQ7EJSjEpGJk0palW/MWaTyi5+lNputDnJ2gbEoX3FEcZosnPPPddGChXWpyTHSmttR4UQQgghqkVOhwxgYLB9G8pnsa3OCmHkAgoh28o98MADRY/hw4fbMN2s28B98MEHFp/975PgbTv7vJcDhsIjjzxS1Ghm+79PPvnEfWsMw6tLnY8T5uOPP7a4zUGvXr3sbSDbD6ZBXrEVHwaVn1eeBtdiK1LkAJK2rSOPeMY0GC2Bs4m0ZcW/aU56O+rBqMJYZhpIEgz9riWl0oSzDSMMB0i5W7dOaUg7Q92/+uorF9IYpgA095oc1VKL+s0WkDhTm5ss8p8G04yot+WOJKM+MaUibdRAWn1qje2oEEIIIUS1yOmQARbuGjJkiO1Nf95557nQdMaPH29zfllrIW3BsEJ69OgRrLrqqraOQKlh27DooouaQ4O32kn83//9X1HDNwkMb4ZAs9AhTo04zz//vI2mSFPCBw8ebL+lnc+IDBbOJO28DW0OWIyNN/4o+Tge4kO3cdzwRpOh1IMGDWq0SB75kTbyxL/lZoRKHJwYLI74+eefu5AGmKpBekhXqcUtC/H38fPTk0DOkLsPP/zQhTSAgXTiiSe6b7XBj0xIW5sCQ++qq66y6UO77rqrrQkQBwOWhTezjvBpLrbZZhv7RDbihi71c++9985UT1sStajf008/vS0GmSRjjAKinPNwxpSStWJ07drV6tztt99uo4HibQBOZPJk7bXXbrRgLPVpzJgxiWug4BTAUZxES29HkVucR1md50IIIYQQtUBOhxKgdPLW05PlTR8jFjgPJ0VWiMsbcAy1Usw888w23PeGG24wRZ/REijIGNdMueAaLHZWDsxfvu6668xAZW0ADCvmM/MszGfGMcI199xzT3dGY5jOwaKAGJDx89m5A6fKdNNNF9xyyy2Z53fXAqaebL311sGAAQNssU2Mb56T7wxPZqFDRrEwXcKDcY+hgrHDGg5cg2djkUbWzsAYZaQCb1Hj4PBhATqMHYwLzsFRhSHLOTg2brrppsSFRdNgIUvmyzMFh3RTzqecckqjkTHIA9dmbj35zgKmGIADBw4MVlpppSBpOHg1cB9GVrCQ6YUXXhjceuutVuaFjrA+ffqYoXfHHXfYook4WsgPDCt2OmBUBrszsHheS4J0Y/SxaChpPOmkk4LLL7/cnpV1VDD8Dj/8cBf7n0Et6veIESNslAdOMxYrpRwpT4xg5P2///2vyX6tySJrxWB6FPXv2GOPtbqAsU5eHHXUUVYvbrzxRls0lnbVQzuBc4U6ixzQvj744IO20w1TldiBIomW3o7SJuFEp/0QQgghhGg2wqkA9lTnUTnuvvtuF9qYYnEiZdfCI6MufOGFF1xoMpMnTw5nn332kvv8x/nrr7/CyMgNO3bs2Gjv9mkS9p4H4lx88cXhYostFrZp08bSFynNYWTMhV988UW48cYbh4suuqiLnZ3PPvss3HnnncNOnTrV50fnzp3DSOkN//777/q8KExjIZFREu677752Dumadtppw0h5DiMF3/KmXCKDw/adL8bDDz9sabrhhhtcSFMiQyXs2bOnlSFxIyMmjAz58PHHH3cxGvPyyy+HkcIfLr/88uFMM81k5/AsSy65ZBgZ0uGkSZNczDoiA8jiXHnlleFPP/0UHnnkkeG8885rYW3btg27detWNA8Kz0/iq6++MhmdfvrpLd5cc80VDhkyxP1aB3v7s88/ckAcjmWXXTYcNmxYGBnK9j0pj7LkcRLUhciIq5e/yBgNn3zySfdrA6Srb9++jWQqMq7Cww47LDU/0uS+EMqiVD2jjCnrSqAseCbKnTTPOuus4V577RWOHz8+jAxuCxs7dqyL3cCUTHupsqy2fn///fdhZHhbnW7Xrp3Fbd++fRgZ9Yl5AbWow1lkrVS+jxo1KuzVq1c4xxxz2DW41mqrrRaOGDHCxWjMfffdF0ZGfhgZ+Rafety7d+/wueeeC88991wLIz+TmBLtaKk2BGi7KLfhw4e7ECGEEEKI/GnDn0hRESXgDR976zPEuKXBUFmGBiftAFANkXIbRMpuxc/MXH7mY5fzVr85YKg/ZVkOvI0nfyMDwIU05umnnw7WXHNNW8MgMkxdaN2wc/KPt5O1gOpK+hn9UIwJEyYEkTFYs/sWg1E9kfEUzDTTTC4kHRZBZQpK4Vvllg47BZDnta5fU5pq6zdljnw3Z76UI2vFoH7QBvj1IopBnfP1n2lD5dLS2lHysDnaBSGEEEIIj5wOQtSANKeDEEIIIYQQQkzNaE0HIYQQQgghhBBC5IKcDkIIIYQQQgghhMgFOR2EqAFsYcdq/qxOL4QQQgghhBCiDq3pIIQQQgghhBBCiFzQSAchhBBCCCGEEELkgpwOQgghhBBCCCGEyAU5HYQQQgghhBBCCJELcjoIIYQQQgghhBAiF+R0EEIIIYQQQgghRC7I6SCEEEIIIYQQQohckNNBCCGEEEIIIYQQuSCngxBCCCGEEEIIIXJBTgchhBBCCCGEEELkgpwOQgghhBBCCCGEyAU5HYQQQgghhBBCCJELcjoIIYQQQgghhBAiF+R0EEIIIYQQQgghRC7I6SCEEEIIIYQQQohckNNBCCGEEEIIIYQQuSCngxBCCCGEEEIIIXJBTgchhBBCCCGEEELkgpwOQgghhBBCCCGEyAU5HYQQQgghhBBCCJELcjoIIYQQQgghhBAiF+R0EEIIIYQQQgghRC7I6SCEEEIIIYQQQohckNNBCCGEEEIIIYQQuSCngxBCCCGEEEIIIXJBTgchhBBCCCGEEELkgpwOQgghhBBCCCGEyAU5HYQQQgghhBBCCJELcjoIIYQQQgghhBAiF+R0EEIIIURFTJgwwf0nhBBCCJFMq3U6/Pbbb4lHGIYuRlPGjRsXPP/888GYMWOCH374wYXWlj///DMxXX///beLUZynn346aNOmTXDVVVe5kKmbxRZbLFhjjTXct9bN2LFjg4033jjo169f8O2337rQythrr71Mjv766y8XIoRobZx++ulWzz/88EMXUhsmTpwY7LnnnkH79u2DOeaYI5h11lmDc8891/069TF8+HDL50ceecSFiJaGykgIIaYsrdLpgEI0wwwzJB733nuvi1XH999/HxxxxBHBQgstFHTs2DFYddVVg5VWWimYffbZzaC95pprMjsEsrDbbrslpmvaaacNFl544WDdddcNBg8ebI4IITyvvfZa0KNHj+Dnn38OLrjggmCuueZyvwghRPOyzz77BDfccENw1FFHBXfddVdwwgknBP/617/cr0IIIYQQjZmqp1cwamDxxRcPzj///OCzzz5zoQ189NFH9jZn7733diG148wzzzTngj8GDhxob7F//fXX4PDDDzeHx+jRo11sMTXz5JNPBmuvvbY5rB599NFgnnnmcb/8c9hhhx2Cc845x30TQnjOOOOMYJdddnHfWj6TJk0KRo4caY6Hk08+Odh0002DAQMG5NJPCiGEEKJ10CqdDjPOOKMZ8f5Yeuml3S+N+fe//10/H3XJJZcM+vfvb9MWhg4dGmy++eYWDox24G1OLTnggAOCQw89tP445phj7L7PPPOMGZmMdOjbt6+NxBBTN926dTMHGLI8zTT/zCpL/XnuuefcNyGEB+d3fAReS4a2CFZYYQX7FEIIIYQoRat0Okw33XT25sUfnTt3dr805oEHHrC3NbxBfvXVV4OLLrrIRjbsv//+wX//+99gv/32czGD4MEHH3T/5c9aa60VXHvttTb64rzzznOh5fP111/byIlSsM7E5MmT3bc6/vjjj+Dzzz+3z3Jh3QzuXWu+/PLL4JdffnHfyoM0jR8/3n2rHpxB5ayrwBQd0p9lDQWesbDcmDPNUQjlEi+zNEhrNWuUfPPNNxWv/UAafTq5hv/OUWra0o8//mjTSUqRJL/kH/Wn2DSl33//Pfjiiy+qmj7ln6nUNYjD/eJMybRTJ+JpJ+yrr76yt9mVkFVWku7NeTwT5Z4G51GPsrRrccizWjtxs8poEtRz8sDnF//7o1S7W8190yh1TS/rvnz8d3+kQZll7Q9q3RflUebkUaV9CfKetR/ISrX5S1pIE7+VS9b8TavvxfrQavKqmjIC2t6scsO94rLJcxU+a5ysupkQQrQmpurpFTgnLr/8cjPwWVchziabbOL+C4L333/f/dc8cO+ZZpopePHFF11IaVAacJysvPLKwSyzzBLMN998NuqD9SoGDRqUqrSdddZZwcwzzxx89913weOPPx6ss846wfTTTx8suOCCdj5v2nHClOL666+3NTFYXIx7zzbbbDYt4P7773cxyofpBFyDhco6dOhgebLKKqtkSg/wBpGFJsmPeeed1+Yd9+7du6KpK8jAjjvuaNeac845g7nnntvybc0117T5zfH8JT+ZKtO1a1eTL9JPvi677LLBnXfe6WI1Zfnllw969uzpviVz2mmn2b0/+eQTF9IY3kZus802wfzzz29pZY2SRRZZxKY4ZFHi3n33XRvtw1QODvJ9xRVXDK677joXozQYCqSRA8WMMvPfOUaNGuViNsB6LIwCWnTRRU1+iIfT8Ljjjks02qFQfu+77z6TQS/35Dt5+cILL7jYdaMuVl99dSuLBRZYwOKsttpqFY3EuPXWW+3eDz30kAtJhjg4OONMybQzqop7Uw4sUsoCpZQzMoOMU/9JXyljhMV3+/TpY+uMeFnp3r27TVvD2Eii8N7vvfdesOWWW9qz8EyUO2VOnfK8+eabwdZbb23P7dsBpsaVkkfuT9tHnaNdoi5wD+oxBk0lVCKjSdCuci7Obwwc/vfHYYcd5mI1UKv7FlLONW+++Wb7Hac44JT36eVAhguppD+oRV+UR5njhGNE4hJLLGHpoy/heXhBUco4rbQfKEW1+fv2228HW221VX2aqFPLLbecrRmUVm+hkvwtrO/vvPOO9S3cN74IdDV5VU0ZAY4G1iZhZKx/LtpC8og2Kg3aSuorzrgDDzzQdAx0Axywnkp1MyGEaFVEHUirJ1JW6UHtuPvuu11oaaLOoP68Pffc04VWR9Qx2/V++OEHF5JO1PGGiy22mPtWx//+9z87/8orr3Qhdfz666/hkksuGU4zzTThtttuG0bKRXj77beHQ4cODSPDxc7h3klEBqz9Hhmk9rnBBhuEAwcODIcNGxb++9//DqOO18LJjyQigzKMjA6Lw724TmSMhaeffnoYGR8Wvvvuu4d///23OyMbBx10kJ0bGRfhiSeeGI4cOTKMFKJws802s/CTTjopjJTlMDLC3BmNiZTi+jRdcskl4T333BMOHjzY0kQ+nXnmmS5maT7++OMwUkLCSFkIzzjjjDBSgMJI+Q0jwyqMjL4wUiTCSMlwscPw1VdftbBIAQn33Xff8OKLL7byOPfccy3NpCtehh7KcZVVVnHfkuHZuUZkLLqQBiJlNIwUmnDWWWcNI2XIvl911VWWjnbt2oW9e/cOd9llFzs/UobcWQ1ce+21YaTohZ06dQrPPvtsqzNXXHFFGClfdk6kMIaRkuRip/PLL7+YHHBwvUhBrv/O8fnnn7uYdYwZMyaMlNcwUhjDY445xuLcdNNNYf/+/cPpppsuXGqppcJPPvnExW7Ayy/lwifppFyuvvpqkyHO5Rg9enR4yimnWJxevXpZHeFZjz76aCsrwiPD3101G5EhZudFir4LSYY4u+66q/vWwJRMu29LqFtcg/aG+k695/orrbSS/b7JJpu4M5py/PHHh23atGlSR5ERzkWOv/76axe7AX/vyLgNI2PH7kVecG+uQz3jd64VGeUmP9QLnz7aFu5JnAEDBrirNiYyNMIePXpYHPL+uuuuszp76qmnhpFBYnXzwQcfdLGzUamMJoHMcP4KK6xg1/P1guOVV15xseqotm588MEHLqSBcq/56aefWhzaBK5Jn+jTy/H7779bvGr6g2r7ojzK/OWXXw4j49DkfKeddrI+lXqP3M0zzzyWh/Ql3PPhhx92Z9VRTT+QRi3yd8SIEVanunXrZnnD+eTpuuuua7/TVpOXcSrNX1/fiRcZ9PbsBxxwgLVhnmryqpoygnfeeSdcYoklEs+nLSKvLr30Uhe7MegS1IWll17a+lzyhTpCOUE1upkQQrQm5HRIAQUKJdyfh8FaC7I6Hf76669whhlmaKLwpzkd4PLLLw/ffPNN960x3sh89tlnXUgDXhGhU7zhhhtcaAM//vij5QWG7Lhx41xoAwcffLCdP2TIEBfSAM+BQsvvF154oQstDengHNKN8RrntttuC9u2bRtOO+20iU4HlCHOx5iLQ5p8mp955hkXWpyjjjrK4r/33nsupDFxAxqFDyXw22+/dSEN8DwoISgoSc9WjdPh/fffN7lB+Uwqq9dffz1ccMEFzfnA+XGnA8+HwYFjJyltt9xyi52HIVAOGJbUwzR+++23sHPnzuEiiyySmO63337bnD4YIXEK5XfUqFEutAGMK2QFxZN45513nvulAYwrygNHSxaHiqdWTocpkXbflnDv/fffv8m5yLBvN1CS45Befkuro3fccYfVzy233NKFNODvjZJ/+OGHNzGQJkyYYM9DmzPHHHOEffv2NeW9EO6JcUT+YDTE2W233UzOH3vsMRfSAO0v7QYGSRYHMFQjo8XYeOON7RnTqEXdiDsdqrnmiy++aNfEKEyimv6g2r6o1mWOHtClS5dwttlmC59++mkX2sB3331nTlzfnsYN2mr6gTRqkb+0xzg1k9oLdAviYHzHqTR/fX3HeKcdTHreSvOq2jKiD8Txl3Y+jpb111/f2hna4zjIKs9Fn/vZZ5+50MZUqpsJIURrQk6HBOj8tt9++/pz6HBqRVanA2+niYeSUEgxp0Mx3njjDTuPt6hxvCJSzNvuDQzSVchrr71m4UkKSiEoIyiKSQpFHJQIlHBGecQNjUJ4y8u9uXYhKNScz1ubNFA0lllmGXvDmgXkAWO8HOWwGCjspJ03NHGqcTrgpEK5euutt1xIU3gjzrkccacD52NsYPSlgYGKYwNlLiulnA5+VNFTTz3lQpriHR733nuvC6nDyy8KcRo777yzxVljjTVcSFN4k0qcNOUwiVo5HaZE2n1bgnGfVs+oryjVe+yxhwupA7nBuChVR3lTyD3iozD8vRmtkOYoYbQHcTAG0tqNRx991OIwkqkQbxjzZjUN3txjLOBQzEI1MlqMUk6HWtSNuNOhmmsWczpU2x9U0xflWeaMFEvjyy+/NBklXtJb9GIU6weSqFX+Lr/88uagSIM398QrdMpXk7++vnfo0CGcPHmyCy2PtLyqtowuuuiikuczWosRGCuvvLILaYD2Eedp1jKMU0w3E0KI1sRUvaZDElFHHERKfjBixAj7HhmAwY033mj/NwdRmdj9mIfIvZPm9lYC85+BufppsAZAGsznB+ZWF/LEE0/YJ3Mpi8HOIJHB3mh+ehqRwWxzMJkzHCkwLrQpaXnjz6cc02jbtq1t4/jSSy/ZXM5SsG7D77//bmliob1q8eVR67VCIuXO1qzo0qWLC2nKhhtuaFuyJhEZIcFGG21UdM/9XXbZxRbBIu9qBfO3mbdNPqfBvP9IkbY0JsHvaXj5zRKHOcfNzZRMO1v1ptWzOeecM+jYsaPN/y6E7yzUVqqO+naBtVmSQNamnXZa960x3bt3t8/IgLJ0JOF3UKDOF+JlJDLO7DMJ5lMjb+wekYVayGgl5HHfvJ6lVv1BJX1RHmXO87DWwR577OFCmsL8fHaaqoRy+4Fa5e/BBx9cdCekI444wj7pTzy1yF/WciA/KyEtr6otI9qmUufPM888dv6LL76YuNhq586dbS2mSsiimwkhRGtATocC/vjjD1N2vJOhU6dOwcMPP2wLpNUaFiw68sgj6w+UBPY7Z7E/OvVFF13UFl1iQaNyYBEpDAEWdltppZVMQeNAcQcM5zRwcqTBgk5QuDgSeMOTBb6Kscwyy9jnK6+8Yp/FeO211+yTxaOKQZpYIDHO66+/bp+XXHKJGeBpx80332wrTMcNliRYIIpyGTZsmC0uRfnstttuwZVXXhmMGzfOxWoM8nTFFVdYPBZE82XBgdIHxcqjXEgHC8OVyjdIisP5LIbFol9J+eUPFpkDn8+1gGuxunnS/fyBswRFOe2+LCCWBmUGWeJ8W8auJLViSqZ9qaWWcv8lQz2L13tfj0vJGumaY445Uus9ynoaWZ57ttlmswWB48/NbkSw9957J8qSP1D033jjDYtbilrIaCXkcd+8nqVW/UElfVEeZU5fxLO0adPGhSRTzOCsZT9Qq/wtVW9pE9q1axe8/PLLLqQ2+VusvkMleVVtGZFHWc5nkU1eCnn9pJBibZSnGt1MCCFaA3I6OHgrwI4RfmVsOl289Xju8wDjFYPVHyNHjjTFmZXBMYbp2Lp27epiZ2PHHXe0N4e8ie/Zs6etlr/vvvvagaJQCt5qlYJOtxD/toQRIsXwvzPCoBRZrwk4DeL4e6BYrbvuuqnH9ttvb7tAJDku4pAmVtPnDe+5555rSh27DZDHOIpQJgrz5qeffrI4jMZAedtss83qy4KDckqjlPIDGAxxysm3PxN2JPD5xpvtpPzyxwYbbGD5Vst9+rn3rLPOmni/wgOHx7bbbuvOagyrnZciS5y4jBcjS1klvRmLMyXS7smz3gNx0up9Xs/t74fhkiRH/mBE2YABAzLlWy1ktBLyuG9ez1Kr/qASmcyjzHmeSttTqKYfSKJW+ZvUbxbC7+RP4fm1yN9ZZpnF/deUSvOq2jLKen6xPC32XFCtbiaEEK2CqGNo9ZRa04HFqZgv7eMst9xyjXYiqCVZ13RIw8+NjK/p8Mgjj1h42rxA5mDze9IuHGnzfgtJO5+51ISXWgSJ+bfEy7Jy+Ouvv25xS+0uwQJ6xGP+aiHMaye8OeZIkme+TAvnlZ9wwgkW9tJLL7mQxjCvlN+TFktba621bLHHYmy66aZ2fnxNB+aGZ1mDZOGFF7bzKddC5pprLltEstaUWtNhm222sTm3rKdSLlnkN8vaC88995zFSVulPAkWVOMc1h9IAxkgTrE1HaZE2tPakjjUL1aPL8TXsVJ1lMX+iHfssce6kDqy3DtS0C0OC+MVg7VWtttuO/etDt8uVTrPOolqZLQYpdZ0yKNuVHPNYms6VNsf1KIvqmWZs5vMDDPMUHT9A2BNFu4dXy+gmn4giVrlL7sRFYOdJIjHzhGeavI3S32vNK+qLSPqQpbz99hjD1u/Ib6uE2HF1iCpRjcTQojWRJ3bfCqGuf947v0cRPa9Zo5gqSkVDCE86KCD7K03QwKnNH44Y9rbgLQpANXSq1cve1Nw9tlnu5Cm8NYk6nDtbQD7VJeCUSbMoRwyZEjRt8TnnHOO+68xnL/AAgvYCBLWHsgT1ka46qqrbIh34dxnyoNn8PPS4xQrD9L/2Wefpa4dwbDiJ5980n1rDG9RIiUndVgtMG3nk08+cd8aw/DYSCkrui95JfB2KFKu3LemMHqCqSHNuX5KLaCsYPTo0faZxC233OL+az34OlaqjtI+wvrrr2+fzYVvl9gbv1bkJaNTom7k9Sx59AdZyaPMeXNPH4Kcp0FbzkjFJKrpB5KoVf4OHjy4qMz566+99tr2CXnkbyGV5lW1ZURdKHX+559/buf36NEj08irQqaUbiaEEC2NqdrpgFHHdAY/TxLlD6cDHS5rLsSPQkMOJZpO6uijjw7OO+88Fzrl8AsDMh8/DnMFGcaXByxYyJoUGLLkWxgbUsm9DznkEMvjQYMGFV2g0MPCcuQtnfGuu+5qwy7jXHfddcHQoUMT17xAMcIRwEJjnM86BXEwqlko7euvv3YhxUE593Na44wdO9aekzVAPJQHC+19+OGHLqQBnuvEE09035qyjVtEjXyLK4ZMq2A4ZtL0CkDZZGgy60988MEHLrSB559/PjjggANSh4OijLIw4FZbbZWYdsqCPE1zeqTBFBSULxTiJBhuikKHnOL0iINcnXXWWSZDLQkWKFtllVVM3saMGeNCG2CRMsokyzSMfxLUMZx6xeoo05EwUFiwFcOgOaFdOuqoo4Krr77anJNJcsf0KOaOp8lknLxklLpBG5XmCMzjvnk9Sx79QVbyKHPaSubyM83kwQcfdKENfPnllybfSUPuoZp+IIla5S+LMTIlMMkpf+GFFwbDhw8P9txzz0ZOizzyt5BK86raMqIurLbaaqnnoyNwPgtOX3bZZS40O5XqZpQt/QcvxoQQolUQNWytnrTpFQwd9OFZjmuvvdbOY0vGyIioDy9nWFxe0yuizsu2WYwMzjDqnMPHH388HD16tG0Dtcwyy4Trrbee/ZaU1mqGtEKkuNTnMVtQsn0fecWw6M6dO1s4e4KXC+eTz0w1OOyww2wIO2nt2bOnXXPgwIG2v3Z8eoUnUppt+8i55547jBQx2ys7MgBtC0KG+5O2YltLeijveeaZx+7Zu3dv26rzuuuus2fkf6YkzD///I32jf/4449ti62OHTuGQ4cOteGwTzzxhA1H51qbb765XS9tWO1OO+1kv3fr1s3KM1J2wsMPP9ymRbDtGFuS8Xt8egXceuut4SyzzGJDRvfaay+7/+DBg8NIcbKhoAznPvTQQ+18yjXOAw88YHlG3jElgDwj7yIl1cqCvdJvv/12FzsblBX3Q05GjhxpQ3VJWyEfffSRbeVGvD59+tie7eQxz0o5IwvHH3+8i91AFvnNa4oCMB2IvJ522mnD3Xff3bZgQ/YY9sv1Tj75ZMsz8jLOlEx7NdMrPMgzzx2vo7169bJrU1eTtlbNe3oFUG+33XZbuwb1iCkeyNMpp5xidYBwtoidOHGiO6M0lcpoMWgbuN6yyy5rw+JpE7bcckub9ufJo25Ues1i0yugmv4gS30o1hflUeZMJYoMRzuXdjsy9m16woEHHmht/CKLLGLf+f3h2ND9avuBJGqRv8SnD+S5KO9rrrnGtmFeddVV7fd11lknMY8qzd8s9b2avKqmjODDDz80PSnp/Nlnn93yij4/CfrUYtMrKtXNKBPSs+aaa7oQIYT4ZyOngwvPctC5eo444ggLo0N74YUXXGhp8nI6wPfff2+GqTeQOTBQTzjhBFNU6DjzcDp4MHYxMsgT4pKODTbYwDrZSnn66adNIcYI5pp08Kx54PeOL+Z0AJwKffv2DTt16mTnc8w333xmIE0uY7/wL774wvKxR48e4ZxzztnoWih4rC8Rh3tjeM4888z18TEshg0bVq+4F1M2KeMuXbqYUUdcDFcM9fHjx5sTgbAkpwN89tln5lwpfG4U0gsuuMDmcXv5TXI6ALLUv39/U4pwPhC3ffv2Nv817Z7F+OOPP8IBAwbYM3AtjPR99tmnyf35PmjQoHC11Varz7e2bdtamT/66KMuVmOyyG+eTgcgT5AzHFBcg6N79+7hiBEj7PfW6nQA5n9vscUW4QILLGDXQ06oJ8XS0hxOBw9tPs7Cwnaxa9eu4ZAhQ1yM8qhERksxfPj/t3cn8FaN+x/HV4qUTJGbIbMi6VKhkEokQtdVCNU1DyGZh9zXRWWMkIx1TcUlckOoxB8RughpMFwkSfNtQlj/9f2dZ52zz26tPZ29cjp93q/Xrr2fvdbaa3j2Ouv328/zrOF+gwYNSpelQCQ1iSlJfDcKWWa2pEOokL8HxfpbVOxjrn78CrB1PgzPx/qbpOStAmx9nsqiAtqK/h2IU9H9q8cJJ5xgAa/KdH2geqAEdzb57t9czzUV2VcVOUaiv1EDBgzwmzdv7tesWdOm1d/Pbt26Zfybly3pIIVcmynhor+T55xzjisBgLVbNf0TnABRAPWtD4KJjPep/6MsW7bMmnTne8vNYlFzYe2bYlq8eLEtU027C6G+52r2GVzQuJLCBRcxdm9vjbKdi0WLFtmx0NgP+dKo2dqfudxlI4q6YgQXYQXX0+Ai35rPF/r56XQcgwtl9yozNS3VtIUe8z9CvnWjKlE9ieu6Uxmo7unYFPI9jFPMOqr9FwSB9n3NJonvRlLftyT+HuSq2MdcYzgFgWJB9bwifwcyyXX/9u/f3+vbt691vQub/YvWS8dd1wz5SuI7JRXZVxU5RqLrBN3RLInrp3yuzdT9otj7FQD+KCQdAAAAqri4pAMAAElbe34+BAAAAAAAaxWSDgAAAAAAIBEkHQAAAKq4Dh062G2R69Wr50oAAFgzGNMBAAAAAAAkgpYOAAAAAAAgESQdAAAAAABAIkg6AAAAAACARJB0AAAAAAAAiSDpAAAAAAAAEkHSAQAAAAAAJIKkAwAAAAAASARJBwAAAAAAkAiSDgAAAAAAIBEkHQAAAAAAQCJIOgAAAAAAgESQdAAAAAAAAIkg6QAAAAAAABJB0gEAAAAAACSCpAMAAAAAAEgESQcAAAAAAJAIkg4AAAAAACARJB0AAAAAAEAiSDoAAAAAAIBEkHQAAAAAAACJIOkAAAAAAAASQdIBAAAAAAAkgqQDAAAAAABIBEkHAAAAAACQCJIOAAAAAAAgESQdAAAAAABAIkg6AAAAAACARJB0AAAAAAAAiSDpAAAAAAAAElFlkw4///xz5MP3fTeF5/3++++R00Q9NG0x/PLLL95vv/3mXuXn119/9VatWuVeZff99997Rx99tNe1a1dvzpw5rjR/w4cP96pVq+a9+uqrrqTMUUcd5TVu3Nj73//+50rWPfPnz/c6d+7stWnTxnvhhRdcKYBcjR8/3ttmm228wYMHu5KKa9++vbftttu6V2V+/PFHb7fddvO6devmSvIze/ZsOx9ec801rmTN2WWXXbwDDzzQvQIAAFg7VMmkw5IlS7wNN9ww8jFmzBg3lefdcccdkdNEPW688UY3V8XstNNOXrNmzfJOYixfvtxr0KCB17ZtW1eS2YwZM7yWLVtaQDxo0CBv6623du8Uj5IgkyZN8qZNm+YtXLjQla5blMxp3bq1JV06duzoHXfccd7IkSPduwByMXXqVPsuTZ482ZUkR5/zxRdfeO+8844rAQAAQJLoXpEj/bJVLB9//LH3wAMPuFe5ueGGG7wffvjBvcrsvffe8w444ADv2GOP9d58883IX/uKoUaNGhYsfP75596OO+7oStd+AwYM8Lp37+5exZs1a5Z30EEH2WPcuHHeVVdd5T3zzDPeGWec4T3++ONuKgDZ9O7d23v//fe9Bx980JUk589//rP32WefeR988IErAQAAQJKq+an9DaoIdWFQK4bQY489ZsGxqPl7p06d7LkucidMmGDP07377rveqFGj7Pmf/vQn+wVuu+22s9cVoQSAuj3UrVvXfm3bfPPN3TvxvvrqK2+PPfaw7VIyYeLEie6daIsXL7YuHFtssYUrqRh1rzjllFOsCbSaLFd1qh9qwbFgwQJXEm3ZsmXeihUrvK222sqVlFi6dKn3008/efXq1XMlANY0naumT59u3SGKScvT34Krr77a69+/vytdM9S9on79+ln/BgAAAFQmVbKlwwYbbOBdccUVpY9GjRq5d8rbd999y00XPk488URrISDqWvH8888XJeEQ0oWjAta+ffu6ksz69OljSQpdbOZis802s+4bhYwdoSBafZ5zpfEuVq5c6V5lpm3WsvPJc2n5+XbdULcPJXbyGf9CtB3qxhLuNz0PH1HLqlOnTmnCQQmhcD033njj2ISDtl3LS+1eo8/T+mYaF0PzqVm4khkVoeObvi1ab3XDKYTWWcvM5o/Ybs2bT13ORepxLpZc92GqXI5Z1LHWZ2VLpsWZN29eQecU0XHOdJ4I60cuy587d25Rvgc6ltmEdbTQ7a7Iuqre53puTZdE3QcAACgU3SvS6Fdq/dIdXtA/+uijlpwoph122MG7+OKLvfvuu8/79NNPXWk0Dd44evRo79Zbb/Vq167tSqNpHIdjjjnGAmE9NH3z5s29Rx55xE0RTckANW/W4GoKpNWyY9NNN/XOOeecrAHWkUce6e26667u1erUJeRvf/ubjWWhYFzL3mSTTbwePXp43333nZuqPCUaNEjbnnvu6W200UbWYkNjUqi7yMyZM91U5ekiW02zd999d0s6qUVJzZo1bRyM888/P3a+VE2aNLHtf+WVV2y79Tx8XHTRRW6qMvrMgQMHek2bNi1dT33uSSedZAFDlLffftuWp1Y0Wqe//OUvltjSfNrnSpClds1QC52//vWvti0aaE/HVPs72zGNo2OgbVHQdfnll9vx0HorSaLE1mmnnZY1KNW2qfuJ6rHWWdujuqP9HJdAWJPbrXFbNNheWN+UhNOv3mq9VIhCjnM2Gnfm3HPP9XbeeefSfah9oC46ccGwujHpM7Vd4THTfOreo32XnmAIj7USPbfffnvpZ2255Za2X/R90jIzKfScIiNGjPBatWpl66j9pXnVteHhhx92U5QJ60fUe0oi3n333XYe1jYp+VqrVi37buu45JtcFC3n1FNPda9Wd88993j77LOPrbPWXXVVg/JmO19XdF3V8u7ggw+2c2RY7/fbbz/v3//+t5sis2LXfQAAgKIILqirvCB40U/r9njhhRdc6ep+++03v2PHjqXT9uvXz71TPMGFpH/IIYf4y5cvt+dt2rRx76wuuID1Gzdu7Lds2dJeB0GDf8ABB9jzdMHFuh8EaH4Q3Pu33HKLbWcQhPtBYGHbEgQOfnDB66Yu8+GHH/rBBbFfrVo1/+STT/bvvfde/8knn/SvuOIKPwgy/OCC27/xxhttGePHj3dzldG2aDuiBAGmH1w8+0Ew4V9wwQV+EKj4Q4cO9YPA1g8u4v0gAPI/+eQTN3WJ6dOn+0EAG7k+wQW8beN9993npi5z8cUX2zoGwawfBGD+K6+8YvtEn6vPv/LKK92U8V5++WV/5MiRfrNmzWwePQ8fH330kZuqxMKFC/0goLLP7NGjh21bEBj4N9xwgx9c7PvBxb4/duxYN3WZt956y+YJgks/CCj8Fi1aWD179NFH/Wuvvda2Ue/feeedtg3a3oYNG/p9+/a1afr37+8HwbdNo32Sr/XWW8/Wt0mTJn7dunX9Pn362DEJAqXS74mOeRAUuznKC4+pHkFA6z/22GM2/9lnn+1vsMEG/tZbb+0HAaSbusya2m6th6bR9yoIHP0XX3zRHzRokB8EkLbtqsv5KPQ4Z/Kf//zH9rHq2OWXX27164knnvDPP/9824e77767/80337ipS/z3v//1t9hiC9tPAwYM8EePHm3rcccdd9j5IQgy/Xnz5rmpS2h7tT90Tqtevbp973ROGD58uH1f9P3Tftbxi1LoOWXFihWl59GDDjrIv/nmm20br7vuOr958+ZWrnVJFdaPhx56yJWU+Omnn6weaFu6du1qy3r22WftvKBjrHlOOukkN3V5mc5NWl7UfKr3QdBuy9Xyb731Vlt31b+9997bjo/2l96/+uqr3VwlKrKu0qtXL5tG9Vzfiaefftq+D0cffbSV//3vf8/4N6DYdR8AAKBYSDqkuOSSS0qn23HHHf1PP/3UvVM8YdJBRowYYZ+li8soCgT1/uTJk+113AXnzJkz7WJYF6crV650pWWeeuopW85NN93kSkr88ssv/h577GHBx8SJE11pmQULFvjt27f3119/fZs/n6SDgiYFVbpQ//bbb11pmffee8+2Rxf0ISVZFPDHrY8CwMMOO8wCKAVuoaVLl1qSolu3bq6kPAUSSvLk6sgjj7SAPJOePXvafnnttddcSZnFixfbcVLSRs9ThcGV1lcB/++//+7eKbFo0SIL8mrVqmXr0KVLFwtmUukY77///rYflKTJh4IPPTR/epAqYUClADidjqOOqYKYWbNmudIyU6dO9bfffntLYumYpFoT262EgD5DQXk6JRSVgNL7UUmROIUe5zg///yz36hRIzu/RO3DadOmWXKhQ4cOrqTEpZdeauuu73qU2bNnu2dldJyV4FGi4oMPPnClZb7//nt/3333te377LPPXGmJQs8porqj93T+SqfvuBIOhx56qL9s2TJXGp90kAceeMDqVpTu3bvbfO+8844rKVNI0kHrpuUNGTLElZTRuus4hOfD9KSDFLquSpTqPU0Ttb+feeYZq/c1atSI/BuQRN0HAAAoFpIOKZo2bVo6XfjQr066IC6W1KSD6JdABWnpF5oK+PUr6qmnnupK4pMOnTp1skBFgVucc845x1oXaLmhgQMH2jbG/dIpc+bMsSSApssn6aAWB1HBTCZhkiXT+sydO9f2i4Kl0IwZM2w+/SpeDNmSDkoC6fP0a3ccBej6lVhBSqowuFK9ivqVWIYNG2bTaL/Pnz/flZY3YcIEm0a/aOZDwZaCFwW3cfQ9UAIgnX7hznZM9au/1uuyyy5zJSWS3m4F8zpmqd+tdAoa99prL2tlkYuKHOc44XfuzTffdCWrCwP6MWPGuBLfP+GEEywJEBWQxtGx1nL0a3ucL774wtZfSYBUhZ5TpkyZYp+Z6Rf9KJmSDpkoMaz51OIjXb5Jh/B4q4VVHCXL1LJE00UlHTKJW1clf1V3d9lll9USban0ndL86X8Dkqj7AAAAxcSYDimCgMjuEqE+zyHdYUJ9bNXnOAmDBw+2sQ1uvPFGV1JCYxpo8LKbbrrJlcTToJdHHHGE9d+Noz74wQVtudvE/d///Z/1Gc7Ut7l+/fpely5d3KvcadnqS6z9mSv1Z862PupXrvXR3UTCwfc0noD6uN9///3eiy++aP2qkxQOMhoEJ/Z/FPXhVl/7uFHmdbx0y9Eo6ksuQXBh2xWlWbNm9r9u/ZcvjXuhRxwt++uvv15tALxcjulhhx1m36PXX3/dlZSX1Hbrtcbh0F1W4lSvXt0GidV3QOOGZFOM45xO+0WD0mqeOBrvQuMAhJ8vml5jPZx99tk53zpXNB6Bxm6Io0FtNYaNzm/B3wNXWrFzikSNgZIE1TXR2BMV9dZbb9n/Gt8mTrVq1bwLLrjAvcpP3LqGdVfHtmbNmq50dXH7NIm6DwAAUEwkHVI888wzdgGnUdoVdOliXDQQW6YL0YrQwGpnnXWWd8stt3jffvutlWmwsgceeMC77rrrLMjOZNasWTZ4n4IGBYRxDw1QJ5988on9Lx9//LENnqgL6Uz23ntv9yw3SqIsWrTIBt7Lx0cffZTT+mifKUDS+oumf+655+z/o446ygZha9u2rd0dZNy4cXb8imnKlCn2/xlnnBG5r8OHgou4gec0aGAcDZopSqbE2XTTTW3AzELuOtGwYUP3LNo222xj+1eBTEjHVK9zOaZ77bWX1bOo/Z7Udof1WgMARh2L8PHkk0/aeqUnLaIU4zin03rqLg1RywkfHTt29NZbb71y39XzzjvPkh+PPvqo7aedd97Z69mzp/fQQw/ZOSBOLsdLyR4l8L788kt7XZFzyocffmj/63tcTC+//LIF5YcffrjXokULG8xSDyWoJJc7UWSj849kW/ds+zTfdQ3PY9mWq+9l1C2Wk6j7AAAAxUTSIYZG5n/qqadKf5VN8heiAQMG2C+bujWm6Jc0/SqWyy9q+gVLtt9+e++QQw6JfXTo0MHr169f6S/FosAml1vB5dtyQMuVXJadKtf1CacJt130S7CCpZEjR3qnn366BU1qJaLt3mmnnbz33nvPTVlx4ecqsRG1r8OH7v6hW7Cm/oIc0mj42eQyTdSys1Fdy0XqsvM5pppG00clj5La7vCYKHCLOhbh44QTTrDvQVTwlq4YxzmdlqmkWNRyUh8K6Lt27ermKtn/ukPFtGnTvNtuu80SOy+99JJ35plnejvuuKMFuVGfn0vCLQyCw+0N/y/0nCL5fvczOemkk6zVhVp4tGnTxrZZiVo9lBAqllzXPdP5sJB1zWefRR3PJOo+AABAUQUXqlVermM6RNH4AeG8CxcudKWFSx/TIaQ+6vqMcBA23UkhXdyYDltuuaUN+JYv9dFXn+zgYteVRNNgelqnfMZ00Dpp0Md8HHfccTmtj8a5CC7Us/Zv1yj6GqiyXr169shVtjEdwmOlO3/kK5e+60HAYtPozgaZqI//8ccf717lRvstW3979VXX53/33XeupESux1TjQYR3XAklvd0avE/zRvXtL1RFjnMc1XGNWREEj66kYjQmg46n1lPrm0rHWncTyaZz5842QGiqQs8p4T6LGiwxk7j68eqrr2Y8rhqrQO+n3w1D4s5NEvU9CMeUybbu4aCN6WM6FLqun3zyiZVnu7uEBufVdOl/A5Ko+wAAAMVU8hPLOkrNaXUPev16GOWJJ57wFi9ebM/1q1/qL0RhE9qnn37alVSMfi3Vr5ca40FdBNQ0N1dqOjt+/Hhv5syZriQ3+vVLfbKHDBniSlan1gOFbKOWrTEawibqUYL6556V0C+n2dZn9uzZtj6tWrXK+ou4ftEPgjw7Tuoy8/nnn7t3MtMvh5l+zWzXrp39OhkEKa5k3aB6FgRWpc3Qo4wePdr773//a9OuSRqjQuMXqLtB+lgUhUriOKuOL1myxBsxYoQrqRiNyTB06FDrcpI6BkRozpw51qw+zvTp070xY8Z4rVu3diUlCj2nqFWI9tmtt97qSiom7Lai1gNRMnUtyZfG7hF1dYujlgZBcO9elVfouqruqhudznvhODVR4vZpEnUfAACgmNbppIO6Mzz//PPWh1dBsroz3Hfffd7tt99ug7mlDiCnPtUhDS6p8R407sLxxx/vTZo0yb1TOF2oK+FQp04db9CgQa40N5peA5BpwLiwX3aqpUuXej169PDeeOMNV1Li3HPPtfER1JR77NixrrSMAhYNPhY2382H1mnjjTe25sZRwb4GbdMgfKkBkZoit2zZMnZ95s6da+ujbi4aNDK0YMEC76677ort/qI+9+omowH8cqHm6uqe8c0337iS8jSQ4qWXXuoNGzbMAoGoJs9q+q4+97k0b19bhMdU3wt9B9JpcE8lzzTegAZCXZP0/VHwPXXqVKvrOn7pFEDre616lIskjrPquBJmam6voD6dEnE333yzN3DgQFdSQkmKuASexp9RFwl1I0qnZITOa1ED4Wq+bt262fdb359UhZ5TGjdu7F1yySXes88+a9uRnlhctWqV1R8F+MuWLXOl8ZRUkaj11zZrPxaLuifoPD9q1ChLPKSvuz6vV69ekftDCl1XnZuUcFBSQvtU+zbdI4884t17773eRhtt5ErKVKTuK4kbtb4AAABFFVxYVXlR3St0X/22bduWlmd6HHXUUeWaQ48bN67c+7rHeq7iulfkIq57hbzyyivWhUC3NAwuPK2pre4Zf/bZZ/tBsO1vsskmkbfOU9Nc3apN23HMMcf4wcW2/+CDD/rBxbd1LQkCcHut9/PpXiFBQGbNtHVLPnWJGDx4sH/nnXf6J554ojWR13szZsxwU5cILujt1m5R67P55pv7tWvXtubNqYIAyaZXU3J9zm233eb/61//subS6g6g94Ig2E2dnZpXa54gCPEfe+wxO766BWhwMe+mKLlNXdeuXW26Jk2a+FdeeaX/8MMP+9dff711z1C5bju4ZMkSN0eJtbl7heiY6laK6gZz+umn+0EgZPs/CF5t2TvssIPdejDdmtruINC174C+CxdeeKF9B/RdOOWUU6zuNGrUKK/buBZ6nDP56quv/L333tvmPfzww/3+/fvbMnXbzWbNmvnVqlUr13Rf67DVVlvZ9O3bt7dbJ+o7oHn0XN8j1f0gaHVzlNDx0HdNdVfL1Hbcfvvt/v333++feeaZtj+CINYfPny4m6O8Qs8pWl91I9H6anu0LVrXSy65xPahytWNLFVc/QiCdX+//fbza9Wq5V977bX+66+/7r/77rt2W12dJ3SrT71XjO4VsmzZMlum1kW3l9RteLXuqpMNGza0zxo9erS9n969oiLrKvoMHSft24suushuIduvXz+/TZs29nk33XST7c+4vwGF1P3tt9/elq1b0QIAACRlnU06hN544w0LGnRxGk6jhy7eFBg888wzbsoyuqhu1aqVTde4ceO8Ao6kkg6iMSd0Ma8LXK2/1k9BhQKAr7/+2k21Oo2NoGBK89WoUcPm04Vr7969bdu0z1SWb9JB5s+fb/fz32OPPfzq1avbchS0KnCZO3eum6q8VatW+QMGDPCbN29uCQvNo3ECFNjGbYcCAR1nBQbhNugCX2MLjBgxwk2VOwViDRo0sOVovRUwpAd1on2jQDAMCvVQnRgyZIibory1Pekg8+bN88866ywLYhQkaX+r7ihoXr58uZuqvDW53QqsunTpYnVGy9Ojfv36FsjFrV82+R7nbNS/f+DAgVY/NZ6Clqd61rp168gA8Pvvv7fEmc47+v6kblevXr2sv3+61GOt9dT6hvMpmajvU9R8qQo9p8ioUaP8du3a2fgomk91RdurhGC6TPVD69CnT59y+17nHO2Pn376yQLqYiUdQgr4ta+1rfo8JdmUtJk+fbolJlSWnnSQQtc1NHHiREtE6fyrebWeqhNjxoyx9zMlHSTfut+xY0dLLs+cOdOVAAAAFF81/RNcmCAQ3jZOTch194rgItm9E03dD4ILuqzT/RE0JoGa6eY7UrmaP6tfsPZBsamJ8c8//5zXstVsfeXKlZHNiuNoFHg1MS7GKO3ah7Vq1Sq9i0kmGv8jCCqsSfu6QnVFzfODgNSVVC76TqsOqdtSsSRxnINg1QuCP2sqnwuNC6F1yLTfdVzUHWn48OGuxLPvn77jheyPQs8polvo6q4dWqeKUJcMnW/zOR9UlNa9kG2u6Lqqnmmf5Von0uVa91UfKuv3FwAAVA0kHQCgCopKOgAAAABr2jo9kCQAAAAAAEgOSQcAAAAAAJAIkg4AUAXptpe6nScAAADwR2JMBwAAAAAAkAhaOgAAAAAAgESQdAAAAAAAAIkg6QAAAAAAABJB0gEAAAAAACSCpAMAAAAAAEgESQcAAAAAAJAIkg4AAAAAACARJB0AAAAAAEAiSDoAAAAAAIBEkHQAAAAAAACJIOkAAAAAAAASQdIBAAAAAAAkgqQDAAAAAABIBEkHAAAAAACQCJIOAAAAAAAgESQdAAAAAABAIkg6AAAAAACARJB0AAAAAAAAiSDpAAAAAAAAEkHSAQAAAAAAJIKkAwAAAAAASARJBwAAAAAAkAiSDgAAAAAAIBEkHQAAAAAAQCJIOgAAAAAAgESQdAAAAAAAAIkg6QAAAAAAABJB0gEAAAAAACSCpAO8X3/91fvf//7nXgEAAAAAUBxVNunw888/Rz5833dTZPfbb7+VzqfnxZa6Xpkeq1atcnMU14wZM7x27dp5tWrV8jbddFNvhx128MaNG+feXTf9+OOP3m677eZ169bNlVR98+fP9zp37uy1adPGe+GFF1wpAAAAAFRclUw6LFmyxNtwww0jH2PGjHFTZbZgwQILwjXPRhtt5L3//vvuneL48ssvV1u3uMfuu+/u5iqelStXeocffrg3ffp0b/Dgwd5zzz3nHXPMMV7dunXdFOumOXPmeF988YX3zjvvuJKqTdvbunVra+nSsWNH77jjjvNGjhzp3gUAAACAiqnm5/PT/1pCSYfNNtvMvSpPv+R26tTJvYqmXdKhQwdv/Pjx9vq2227zLrnkEnteLEo67LrrrhbwKdDLRNvSs2dP96o4XnzxRe+oo46yADPb569rpk2b5v3pT39aaxMwo0eP9oYOHWrJpAYNGrjS1c2aNctr27atd8ghh3j33nuvV6NGDft+nHLKKTav/gcAAACAiqiSSYdffvnFu+OOO9wrz3vssce8qVOn2vNckg5///vfvRtuuMGeKzB//vnn7XkxhUmHCy+80Lvzzjtd6Zpz1113eb1797Zf9XfZZRdXiqpg4MCB3qWXXup9+umn3p577ulKV7ds2TJvxYoV3lZbbeVKSixdutT76aefvHr16rkSAAAAAChMlexescEGG3hXXHFF6aNRo0bunew0pkG/fv3s+fbbb28Ji8pIYz0oMEy1fPly7/vvv3evoikho+n0SH+dvrxUan6vADUbDUoZLjukdVXrk1RaVvpYFRpPYd68ee5VNHV7Wbx4sXuVO+XWtPxcaN20X9JpGdq233//3ZWUjPuhMRHiaFp1YchnTBDtQx3HfMfyCI9luO7qQpPp2NapU6c04aB5Fi5caM833njj2IRD3D7Q+mYajFTzaT9kqmO5iKo3Wu9MxyAT1c1wu7OpzHUWAAAAqKy4e0WK2bNn2wCCuthXU/Onn346tpvGH+3II4/0mjdvbs8feOABr3HjxhZEbrvttjYwZPv27e2X7nTnnnuuTXf11Vfb63A+PcLlhZQo0PQ777yzDTSpaZTAueqqqyKDcrn55pttOgVa6sKx33772bgUl19+uZuihALbiy66yALV888/39t8882tS4OC4C233NK75pprLPiWRYsWeRdccIF1d9B7mlbTKaGULYjVGB4HHnigfZ6Wr+OpffPuu++6KVanaU899VT3qszbb79t2zZq1CgbC0NjYGjbtPxU2vY+ffrYvtX722yzjVezZk2vadOm1vUhiurcgw8+aON3KGmm46h51D1C+2fmzJluynjpx3bfffe113qkH1vRZ6pVhNZL45ZsscUW9rknnXSSJQiipO4DrdNf/vIX20bNpzqi+vH444+7qT1rYfTXv/7VtkX7oXbt2tbC55FHHnFT5CesN0oAqE7pmGq9lSRR/TjttNNs/2eiRIPql1qBhNu99dZbe8cee2zG/VyZ6ywAAABQaQWBR5UXBD3qQmKPF154wZWWt2rVKr9ly5al091xxx3unWR88cUX9jkXXnihK8nPIYcc4gdBrd+zZ0+/evXq9v/dd9/tDx061O/Vq5cfBHlWPmnSJDdHif/85z/+yJEj/e7du5dup17rMW7cODdVyXRBIOkHAaYfBHf2/hNPPOEHwZYfBMV+EBz733zzjZu6TL9+/UqXq/+1Ty+99FL/tddec1OUWG+99fxTTjnFD4JUPwhG/SAY84NA1L/lllv8IEC2eTt37ux/9913/nbbbecHAa0fBHz+sGHD/EGDBvnt2rWzaVq1auWWuLqzzz7bpmnTpo1/zz33+C+++KLNu88++9jn33jjjW7K8vReEHi7V2XeeustW94NN9zgB8Gqv/POO/tBoO8//PDDbgrfnzJlih8Ei34QKPpnnXWWP3jwYP/ZZ5/1b7vtNpte8z/00ENu6jIXX3yxvRcE8X4QtPuvvPKKLTcIXO0YXHnllW7KeLkeW1m4cKHtO03Xo0cP2/f//ve/bduCQNfWf+zYsW7qMuE+uOqqq/zatWv7LVq0sGP+6KOP+tdee61fv359e//OO++0bVA9bNiwod+3b1+bpn///v6uu+5q0+iY50vHRuvbpEkTPwjo/T59+lidV90Pv+eqt0uWLHFzlDd9+nR/t91286tVq+affPLJ/r333us/+eSTti5ad63vfffd56YurzLXWQAAAKCyIungKPgPp1HgEHrnnXcsSNRj3rx5rrTiipF0UBCiwEuBbrpPP/3UAqi99trLlZSnIFifr+nS/fzzzxZY7bjjjv6sWbNcaZlp06b5W2yxhd+hQwdXUiZMOuizFdDF0bor8FNwlR4g/vbbb/5xxx1ny1HwpnWZPXu2e7dM7969bRoFdekUDOq9AQMGuJIyWr6Ceb3/9ttvu9IyWrdMSQdtmwLflStXunfK/P777xZYz58/35WU0fQKwDfZZJNy8y5dutT2Rbdu3VxJedo/y5cvd6+yy3RsQ0pSrb/++qslg2Tx4sX+AQcc4G+11Vb2PFW4D7S+Cvi1vakWLVrk77TTTn6tWrWsbnbp0sX/6aef3LsltO3777+/JcWUBMiHjo0emj/q+6gEhNZPybF0v/76q9+sWTNLBkycONGVllEi5rDDDrP1UgInXWWuswAAAEBlRdIhoF+Cw/cVaKcGWuedd17pe+mtBioiTDooANUv4HEPBUFRlHTQ/FG/mofCICUqcZApMB04cKC99+abb7qS1T311FM2zZgxY1xJiTDpkJq4iaIArkaNGv7nn3/uSsr76quvbDl6vPrqq660vGXLlllwq2AvlZImCni1j+IoAFVCRr/Up8uWdNCv3PkkAVKp5YOW8eGHH7oS358xY4aVqTVAMWRLOkyePNneV6uGON9++60lV9RKJVW4D9RaQa2Doiig1jQK7qOSLzJhwgSbRr/m50PHRkkBJb7iNG3a1BIf6dQaQp+pxEScuXPnWiuPfffd15WUqcx1FgAAAKis1vkxHYIAwvvb3/5mz9dff30bx0F909eUHXfc0evYsWPso02bNm7KaOqHHkd9+kW3gMzH66+/7m233XbeQQcd5EpWp778GjvizTffdCXlnXzyye5ZvD322MP690cJgkZvk002sTEAgkDMlZan/viaX+MrpPrss89scMBMt3wMAlfvxBNP9D744APr458PjeWg9SpEuL2qd6HddtvNxhW4//77bRyMcFyApITHLNMx0lgSOv4TJ050JeUdccQRNu5JlH322cf+P+CAA2y7ojRr1sz+17HKl8a90COOlv3111+vNnbChAkT7LhFjdcR0rgLXbp08SZPnmzjRqRbW+ssAAAA8EdZp5MOCko0yJ1uHSjnnHOODd42Y8aM0kfqqPPffPNNaXmxtG3b1rvnnntiHxqcLo4Gp6tbt657tToN3CfZRtdP98knn9gdCjR4XdxDCZH11lvPpo2iQDqbbNPUr18/NsALaQDA9DsXhOuk/Re17uHjySeftLsw5Bv4NspyNxTd4UCDQvbs2dOOrwZxDB8aXFBSB+KsVq2a99xzz9n/ukWrAlfN17dvX7ubSuqdIophypQp9v8ZZ5wRuV/Ch+r5pxGDkUqmfaBjIpmOrxJ7GjCzkLtONGzY0D2Lpnrv+/5qd6X46KOPvCZNmth+zuTPf/6zzf/xxx+7kjJra50FAAAA/ijrdNJBd31IDaruvvvu0l9Rw8eIESPcu553wgknlJYrKP+jqaVBLhRA5UO/qCrw1a+1mR66i0XXrl3dXOUpeZON7nqQTS7TpG+f1l90V4ao9Q4fOp66PaqSN/nItG1Lly719tprL7vLgVrOHH300d5ZZ51V+lALgShqVTBr1ixv5MiR3umnn253SLjpppu8Dh062C/o7733npuy4sL9o8RG1H4JH0rC6W4LUfUnqWOXi0LrvZJkur1nNuE04X5KtbbWWQAAAOAPE1z8VnlxYzoEQV1peb4P9c2uiGIMJKmxBTIZP368fYbuhpAuU79/9TdXf/z0QQJzEY7poO3LJG7chFQadHG//fZzr6JpMEsNeJhq6tSptg6F3oEkbt3C8QwyjaNxzTXX2DQffPCBKykv0zFJt2LFChtvpF69evbIVbYxHe655x57P3VciVzlsg9++OEHm0Z3PclEd0E5/vjj3avc5FJvrr76avt83UUiler1hhtuaIMyZnLqqafa56QPFFqZ6ywAAABQWa3TLR30K3QQ/GV8tGjRwk3tedddd11pefhr5pIlS6wLxKWXXurNnTvXytZ2+nVd25XaymNtopYo2267rRcExqv160+aWs5oXIBwXIN0as2QK/2iHwTK3tlnn21dZFLHgcgk/NU8bmyIdu3a2a/+atmzLlG9Vn0YMmSIK1nd7NmzbVyXVq1a5dRioVj+yDoLAAAAJGmdTjo0btzYBtPL9Nh+++3d1J53+OGHl5aHgd3555/vDRgwwBs4cKDXo0cPK1vbnXnmmRZ0qTvA+PHjXWkZ3/e9m2++2ba5MlJAPXToUG/q1Kl2TNRVId3MmTNtMMxiJ4p22WUX78cff/S+/PJLV1JGCYdrr73WvSqzYMEC76677oodHFBjK2jQRg3umQsNTirh2A3pNBiikmTDhg3zbr311sgxI1566SUbk6LY40n8kVSvW7Zsad2Cxo4d60rLqC5ooEYdBw3quSZVpM4qUfL222+7VwAAAEDlss7fvaKiUoPLL774wj3LnUbJVwCf7bEmW1FooL3hw4fbgH2HHXaYDRqpxMojjzziXXbZZdb6Q4Fb+kB9lYkSRNpvGqBRA/v17t3bBnccNGiQ1717d2uJoDsIFHsbNFDkZpttZv3v77vvPm/SpEneG2+8YeMzaL+Fd21IpZYzWj+N3XDaaadZMuepp57yBg8ebL/O65d3ja2Q61gG+my1trj44ostmaFxIjRo5FtvveWm8LwbbrjBxuO4/PLLbeBEHU8dX5V36tTJO/LIIy0ZEg6yWhWE9Vr7WfWjc+fOlnRR64JevXpZMkZ3htDrPffc08215hRaZ3WXkAMPPNB77bXXXAkAAABQiZT0sqja4sZ0yEXqvEEA6UrLPPPMM9Y3Xf2977//fleaXTimQ66PyZMnuzlLJDmmQ+jXX3/1gwDYb9mypV+nTh2bvnr16n7r1q39CRMmuKnKqwxjOqT67LPP/C5duvhBoGnrpUf9+vX9iy66yF++fLmbqry4dctlPAPRZx577LGl+0yPpk2b+o8++qgdR71OPyajR4+2uqZtrlGjhk1Tq1Yt2/cjRoxwU+Xu/fff91u0aOEHgbYtKwio/TfeeMO9W0bfh/bt29s+DNe1cePG/pAhQ9wU5a3NYzqEVq1a5Q8YMMBv3ry5X7NmTZtW9aNbt27+119/7aZaXWWtsx07dvQ322wzf+bMma4EAAAAqDyq6Z/gohYVoF+D1X9ev3BXZfqFVdsYBF+uZO2yYsUK6y5Qp04dV5K8RYsWeRtttJHdHjJXunuCmtcX4w4FujWn6mbt2rVdSTzdHlbT5bOuazvVh5UrV9oxqoxyrbO6TavulgIAAABUNiQdAAAAAABAIhjTAQAAAAAAJIKkAwAAAAAASARJBwAAAAAAkAiSDgAAAAAAIBEkHQAAAAAAQCJIOgAAAAAAgESQdAAAAAAAAIkg6QAAAAAAABJB0gEAAAAAACSCpAMAAAAAAEgESQcAAAAAAJAIkg4AAAAAACARJB0AAAAAAEAiSDoAAAAAAIBEkHQAAAAAAACJIOkAAAAAAAASQdIBAAAAAAAkgqQDAAAAAABIBEkHAAAAAACQCJIOAAAAAAAgESQdAAAAAABAIkg6AAAAAACARJB0AAAAAAAAiSDpAAAAAAAAEkHSAQAAAAAAJIKkAwAAAAAASARJBwAAAAAAkAiSDgAAAAAAIBEkHQAAAAAAQCJIOgAAAAAAgESQdAAAAAAAAIkg6QAAAAAAABJB0gEAAAAAACSCpAMAAAAAAEhElU06/Pzzz5EP3/fdFGV++eWXyGlTH7///rubuvj0+bNmzfK++uorb/ny5a4Ulc3w4cO9atWqea+++qorQVLat2/vbbvttu7Vum1dqnc//fSTd9ppp3kdOnTwPvzwQ1damNmzZ9t+u+aaa1zJmrdq1SrvnHPO8Q499FBv0qRJrrTixo4d67Vt29a78sorvd9++82VFtf48eO9bbbZxhs8eLArAQAAKEyVTDosWbLE23DDDSMfY8aMcVOVqV27duS0qY8bb7zRTV0cSjQMGTLEO+CAA7xatWp522+/vbfLLrt4derU8fbYYw/v6quv9ubPn++mBoCqbfHixZZsUnJlwIAB3j777OPeWTstW7bM69ixozd69Gjvuuuu81q2bOneqZgRI0Z4nTp18po2ber169fPq169ununuKZOnerNmTPHmzx5sisBAAAozDrfvWLevHmJ/VIURxdxDRs29Hr16uX9+OOP3oknnujdeuutloQ488wzvY022siSHDvuuKP9ygkAVZlaJRx44IHeJpts4n300UdeixYt3DtrJ/1dOfjgg62FnLZH21YMd9xxh7WcUOLhrrvu8mrUqOHeKb7evXt777//vvfggw+6EgAAgMJU86P6G6zl1IpAF2ehxx57zH61kRdeeMF+JQp98skn9ouR6MLw6KOPtufpdAHZqlUr96pwb731lv2ap1+n9GueLuzUBDid1vPss8/2vv/+e7u4vOCCC9w7+KMoAXTKKadYs2MdQyRH+3f69OkWjK7r1oV6p1YB6lr2pz/9yZVUnOrOdtttZ63G+vfv70rXjBUrVnhLly71ttpqq8jze6GUpFbLPLWIAwAAWFtUyZYOG2ywgXfFFVeUPho1auTeWd0PP/zgnnnekUceWW6+1EcxEg4LFy70/vKXv1jC4T//+Y930UUXxV6QHnXUUd5nn31mXS40Xb79gXXRq/7EqfT5hXbZ+N///mfLzEY5LAUPqWNgqCWJkidaRhzNp6a86tOdLyWZtG3FpG3VBX6hct1fmWg/ph/DdNpfK1eudK/Ki6oD2ib9CpvJggULrKl7RWgclPRjqdc6xsWkrlS5rGtUvVSZvv8KeAuRRCupylDvQr/++qt9b7PVwVRz587N6Tus72zq+DUKotMTDjpWmiaXfRyeYwo9HsU+hygxoG5zcd/NXKWfA5TESE84xJ0DKlrnw/lz3afa//lsr5av+gIAAKq+db57RWoQVL9+ffcsGWrZoIDulltusXEbstl00029hx9+2C4aL730Uleam4033tiSFQpALr/8crug32KLLbx69ep5devWtcHatC6ZaN90797d22GHHWxddLG72267eeeff35sAuHtt9+26UaNGuXNnDnTkiwaE0ODAmoZSgA9/vjjbuqSfsN//etfvZo1a9qgZbpY33XXXb1HHnnETRFNF6wDBw60VirqjqJt02ecdNJJBQe2uhBXyxNtYxgEaZ3VnDmXgEQB8LnnnuvtvPPOpftL23vVVVdZUJMPXYxr/r59+7qSaIcffri3++67u1flhXVAx0rHbPPNN7dtUuCy5ZZb2gB7Cixl0aJF1ppGdUPvaVpNp4RbLkFkOiXwmjdvbs/Vakf92RWE6RhrvVq3bm2D4RVC47LoF3+t32abbWbrqodaBsUl1VLr5ddff+1169bN6trWW29t66NfxG+++ebS/RHnvffes32ufaTP1zI09oBaVqlOFqIy1Tttg5rTq04peavvlL6bDRo0sDqk73Qq7a+7777b23fffW0/6hyq46zp9f2MS1iormk9lZyK8+abb9o0qeeLdPfcc4/tfx0HravONWqt9umnn7op4iVxDqlM54CK1vlwfv0NiqNuHkrIazrtOy3/z3/+c8Z51PJw//33t32u+qL9pJaEL7/8spsCAABUNet80iG1pUPSSQddPCvZoIv3XB100EE25sPEiRPtwjEfCmZ0cTd06FDv5JNPtv8VILRr18775z//aReHccmD5557zi5kNQiakgK6UHzooYcs2AuDknfeecdNvTq15FAwoCbO//jHP7xHH33Uu/baa+3zlMhQlxEFnQpMlXhQcKtpNDCaWn/87W9/s5HZoyhAVlcYJWL0Gdquf//733axP2HCBK9x48beuHHj3NS5Ub9rzaf9o32m8TWefPJJW6Yu2hWY6A4jcT744ANvzz33tGPctWtXb+TIkXZBrlH4b7/9dtvX3377rZt6zdH+3m+//WwbFJQrmaOkl8YLURKsS5cudoy0fTrGPXv29IYNG+YNGjTIa9KkiU17yCGHuKXlT2OTKAhUUkCBufbLZZddZq0EFCxpDJN8aP3UPUrBrLbnX//6lwU4nTt3tnqp5EamJMmUKVNsWz/++GOrP6pzCrwUiKm+KUkWR0kaLV93mTnvvPO8p59+2sZi0SCwF198sb2XbyuFylbvtE/OOussO0+pPrzyyit2rjj22GOt7uh5SAkDfbYSWzvttJN9v5999lnv3nvvtRZaWpa+x0lQvda5UedSBa3qPqFt14CN3333nZ1XtO5xkjiHVNZzQEXqfBy1aDjiiCPs74rGlfj73/9euv/XX39979RTT/VOP/10N3UJzaOBNXv06GGJqeuvv97m0blff6u0PM1XaPIOAABUYsEf+CovCJp1FWOPF154wZWW6N27d+l7QSDmBxeNfosWLfzgAsi/6qqr/C+//NJNWTGfffaZfcbll1/uSnL3xBNP2LxBcOVKsltvvfXsEQQyfhDgudIywUW2LTO4aHclZYILY79OnTp+cDHuBwGPKy0zdepUPwi0/AYNGvhLly51pSXeeustW261atX8Pn36+L///rt7p0Rwse8HAYofXHT6devW9YOg1w+CRPduieDi1Na7evXq/vTp011pmSDw9IMLW/+1115zJWUWL17sH3DAAf5WW21lz3Pxyy+/+EGQ5QfBiz9x4kRXWmbBggV++/bt7TO1bePHj3fvlAiCL79Ro0ZWf6L217Rp0/wtttjCD4IPV5LdDz/8kFN9Ofjgg+1YRNHx13Fo06aNv2TJElda4rfffvOPO+44+4ztttvO1n/27Nnu3TLh92PYsGGuJDeHHHKIv+GGG9o6DB8+3JWW0TEPghJbtupiOs2/zTbbuFdlgkDQf/75592r8oKA2JZ34403upIyYb3U+pxzzjn+qlWr3DslVE+7d+9u0wSBsystM2rUKHtP06h+pnvuuef8IPjygwDOlWRX2eqdvsuqL926dXMl5akOLV++3L0q8cADD9j5IEq4P9955x1XUuass86y99K/+6lef/11mybqvHfaaafZe0OGDHElZX799Vc/CK5L99vVV1/t3ilT7HNIZTwHVLTOh/M/9NBDrqSM/m7ovbvvvtuVlNH+1/E59NBD/WXLlrlS37/gggtsnqhjpvORtlPv33XXXa4UAABUFet80uGEE04ofS/qoQs2XaDqorIiFDBoeffff78ryd2kSZNs3v79+7uS7LTeCtp1sRunadOmlgBId+yxx9oFuRIlccaOHWvrdNlll7mSEuGF6q677rraRW5IAaymUbA1f/58V1rehAkTbJp77rnHlZSYPHmyld9www2uZHVKmtSsWdMCj1wMHDjQlhkV/IbmzJlj66vp0oO/cP4333zTlazuqaeesmnGjBnjSjIrVtJBgfDnn3/uSsr76quv7DP0ePXVV11peQoalCBSgiIfShpouVFJrVAYdG+yySb+ihUrXGmJuKRDNkpkHX300e5VmbBeqr7HBbqqi9pnp556qispoSBKAeguu+ySMUi+4oor7DNeeuklV5JZZat3M2bMsGn79u3rSirm008/teXdcccdrqRMRZIO4Tng5JNPdiWrU0DdsmVLmy496ZDkOaQynQMqUuclLukwZcoUKz/ppJNcSXYff/yxzZPpmImSPTrfxP1dAAAAa6d1vnuFbl15zDHHlD7UFFbNbdVHVTSegpoVqwlxMQT73D3LXThP3KCTcdQFIqqvb6hZs2bWZSO4IHUlJf7v//7PulGoiXWcww47zMZeCAIDV1KemsrG3c5N+1eCC0zrRx1F6yYaTDOV+nmLmvXGUX9yNb1Wl5RcaHvVF1lNe+Oo6426IkTRPlD/aH1mHDVhVpPicP3XFB1DHacoahKvWxRq24Mg35WWp37Xml93kihEnz593LPVrb/++nbbWDWVz6UPfi60rp9//rl7tTqNNaExCqKoLgbBmzdt2jRXUkKv1W1C3Tni5hWNyyBqnp+LylbvNKaE9sH999/vvfjii1nHt8gmrHczZsyw/4slCIbt/3B/R9G5Mu6OP0mcQyrzOaCQOp+J6q3k8zcxnCfTMRN1l1E3DN2qEwAAVB3rfNJB/UrVlzd8qB+w+uaqz7n64YbUTzlT3+psdEEqX3zxhf2fD/Uhl3AZuVJCJRMN6qeERupgdeoPrdfqA5zNXnvtZbccVWImXaMMdwxRX2JRkBNn0003tYHs0gcGVP9kOeOMMywxEvdQoJNrIKu+zhq/IFtSZ++993bPytM+0CjvUesRPtSXeb311rNp16RM+1gU1MYlJUI6XunHIRdKWGhAvUzUz13C45oLBUgaQ0HjOGi8CvXfDx8aHyTTgH2ZknCi70T63T007oJk+05oP2kgznD6bCpbvdN6aCwX/a+75ygh1bZtWxvIUOMbRH3PRQMAKiGjMTpatGhReiyUVJR8B1DMJty/2neZxB2vJM4hlfkcUEidz+TDDz+0/7Pt/1T6myrZ5tHfFMn1OwQAANYO63zSIY5GQdevtPpFPxRebBVCQbiCkueffz7v1g4aUE4UAORDv6rlInV9dFEsudwmTdNo+qigSfsvm1ymSd9Xut2oaF/o1/m4h0b+1wBluexrbUMu2xv3y6/WSQFa1HqkPjSCvQaYy0W2QDSkQCeTpI5DLhSkZpsv3Kfhcc1Gv8JrsL433njDgkq1EtDAh+Ej/baL6XL5TqSvc77fiVy3pTLWO/1Sr+SqBvjTQIBqhXLTTTdZCzC1jNHdO1LpTg9q1aQBedu0aWMDg4bHQkF9nFzqd1zdzvV4ZNpvUsxzSGU+BxRS5zPJ5/sQynWe8P1cv0MAAGAtEVxsVHmZxnTI5vjjjy+dV31yK+LKK6+05aj/b67CsQ3atWvnSnITXORl7XOrvs5a9nfffedKSmy55Zb+YYcd5l7FU19h9ZtOFdcPOFWufZU32GAD2/+pNMaD5v3www9dScVpDIsg8LbBzDLR2B767PS+9RrvQP3u1Y+8WDQeRnDh7Z9yyimuJNrGG2+ccUyHbHWgYcOG/n777edeRdPgdxrTIB9BgGX7Km48idCdd95p06mffSrNnz6mQxBcWZ045phjXMnq1Cd85513dq/K5FIvJWp+DZSoeaMGqEylAQQ1nb7nuaiM9S6KxtsYOXKkX69ePXuENA6I1itqzAYJgn57X4MKprv22mvtPY0rEuf222+3adLHdNDghSqPGqAy1SOPPGLTpY/pkMQ5pDKeAypS5yVu/nD/Zdv/qXKd57HHHrPpNGYQAACoOkp+flhHaSwDNQlW/+UoX375ZbnbroXjDEjYpFi3zcuVbk+mX2KDi+CcmpMvWLDAfsnV2Ai33XabK02emgIHAUXGJq66leZ///tfm3ZN0u0+9auZbjFYLPoFUnVBtyuMo19/4461fgXW/fl1e7xi0TFX1wTdejSOmrwvXbrUvaqcdMvNOLrloo6juiTk0lRbXZPUVF991KOoZcWcOXPcq+JR8/Rtt93W6kcQgLvS1YXf0dTWUZlUxnoXRb+UB0G1ne/UDD8cMyPseqCWDlEydUfTLSklU9/9uO0++OCD7f9MdUt1QbdojZLEOWRdOgeohYj2n24Xm6twn+dyzDbeeGNv3333daUAAKAqWKeTDrrAGTt2rPVfVt/y0047zcZx0PgNul+7+lLrQlKUnNC950XBT6dOnbwHHnjAO/74471JkyZZeTYap0DBui6+1Bd9wIABsc1NdcGtQQC/+eYbW5/UhEfSBg0aZBd+GmgtagyKyZMnW9NjXRBfc801rnTN0D7RveaHDRtmF726UE330ksveT179ox8L4qOtY6/mj6rPqRTIHviiSfGNvlVk/JWrVpZk/Lx48e70jK+79t98QcOHOhKcnPsscfa+AVRwZESPuedd16lboasoGno0KHegw8+6ErKqEm4vm+qX3fddVfGARpDqm9qch4OJJjuH//4h+2XYtP39aGHHrIgukePHpFB3uOPP27HSfVEyYRcVLZ6pySnjoWSQVE0xoGOaTi2THg+fPvtt+3/VEoOab3iaB+pO4LOH/rcdDo3pnflCKlbjeq+up0piNV2ptJna4BSJY2jJHEOWZfOAUoYXXLJJd6zzz5r25S+/1etWmV/O5QcWrZsmZVpn2ueTMfswgsvtLEftI8222wz947nzZ49O7KOAQCAtUjwx7/Ki+teccYZZ5SWZ3ro3utz5851c/n+uHHjyr0fBBzundzo9mG77babzRtcwFsz6+uvv96aE6spbXBRZ+8FF16R90/PRRAoFdy9QnTbP91XXs2/Tz/9dP/ee+/1Bw0aZPfw17J32GGH1ZrES9LdK0S3L+3atasto0mTJtacXU2wtQ+PPPJIK+/UqZO/ZMkSN0d2akKvWyJqXjXfDy6M/SBY9oOLejsOqgN6rffTm7mLmonvvffe9v7hhx9utzfVOumWe82aNfODYHm1Zt7ZqFl7WE+0zOAC3x88eLAfBDh+7dq1/fbt29t2VtbuFeoeETaRP+igg+z4/POf//Qvvvhiqz8qDwINN0d54fzpNL3m6969u//yyy9bHdR35KijjrLpmzdvXvTuFSF1rwiCbvvOXnTRRXbr1379+lnXJy27TZs2fhBAu6lzU5nqnb7fWs7WW29tt1C87bbb/H/961/WnUHdrfTeNddc46YuueWp6k6tWrWsu4Rucfnuu+/aLUD32msv/9BDD7X3orpXiI6FlqnzjOqEbies23Xuv//+dsveW2+91d5P714hupWrlq/3W7RoYfNpOp1TVKf1uaNHj7b3o7Y/iXNIZTsHJNW9QrT/1KVE72vbtF3a1ksuucT2p8rTb5er23aGf4vTj1mjRo2svFevXm7qMto2vaeuhgAAYO20TicdZOLEiRbA7LrrrtZ/NpxOF4gKjBRo6GIplS64WrVqZdMpQZDPhWlI/Z0VgOmiUcF1+Ll66CJOF6yFLDdU0aSDzJs3z+6nrwtC7Q8FXAomdBGt/vVR1kTSIaRjqf2ngDjcdzoeQ4YMcVPkZ+XKlRZ8aBu1rVqe+rD37t3bjoU+T2VRwZ/omGq8Do1zUadOHZtWdap169YFXzAruNL+Di+89WjQoIEFu+rzrUC1MicdREm6tm3b2vpo/cMxQ9544w17P0pc0kH7WEGXAnXVSS1P+1rf4e+//94CxqSSDjJlyhS/c+fO/rbbbmvL22ijjexccN9997kp8leZ6p0CdZ0vVS/CdVEAr2WPGDHCTVVm4cKFfp8+fcp9B3XclJzQeVOBcVzSQVQHDjzwQNuPmlefecQRR/gffPCB/9FHH1mZAtM4Svxo/4fzK0mqZML06dPtu6OyTIF+sc8hlekckGTSITRq1ChLutWtW9em1XdS265kVRyND6IEnZJqmkf7XucYJa2idOzY0aadOXOmKwEAAGubavon+MOPgLo66PaUah6qpsPZmnyr+bNuORhcaLmSwumWhPrc4AKsUjaZV99zrdf666/vSiqXxYsXe0GAY7fZLAYdC22zupkUSrceDS6WrXl+Mej+9WrurVtRVnZBIOcFgZ81jQ5p3XU3BO2TYtAxUvPtzTff3JWsWepmUZH6EaUy1TudD3W8ct2/OhY6FxZaP7Xe+qxCz6eLFi2qUF0o9jlE1qVzgPa/uszk8/dL9UvzZKPvRWX92wMAALIj6QCg6KKSDgAAAADWPev0QJIAAAAAACA5JB0AAAAAAEAi6F4BoOh0azz18dZtMQEAAACsu0g6AAAAAACARNC9AgAAAAAAJIKkAwAAAAAASARJBwAAAAAAkAiSDgAAAAAAIBEkHQAAAAAAQCJIOgAAAAAAgESQdAAAAAAAAIkg6QAAAAAAABJB0gEAAAAAACSCpAMAAAAAAEgESQcAAAAAAJAIkg4AAAAAACARJB0AAAAAAEAiSDoAAAAAAIAEeN7/A2U2RGBaC45OAAAAAElFTkSuQmCC;" parent="WIyWlLk6GJQsqaUBKTNV-1" vertex="1">
          <mxGeometry x="-624" y="-220" width="623.73" height="510" as="geometry" />
        </mxCell>
        <mxCell id="YFUkzrrLF3I-iqkjs7c8-5" value="CREDENCIA" style="shape=rhombus;perimeter=rhombusPerimeter;whiteSpace=wrap;html=1;align=center;" parent="WIyWlLk6GJQsqaUBKTNV-1" vertex="1">
          <mxGeometry x="70" y="350" width="120" height="60" as="geometry" />
        </mxCell>
        <mxCell id="YFUkzrrLF3I-iqkjs7c8-6" value="PLANOS DE&lt;br&gt;SAÃšDE" style="whiteSpace=wrap;html=1;align=center;" parent="WIyWlLk6GJQsqaUBKTNV-1" vertex="1">
          <mxGeometry y="480" width="100" height="40" as="geometry" />
        </mxCell>
        <mxCell id="YFUkzrrLF3I-iqkjs7c8-10" value="CREDENCIA_&lt;br&gt;MEDICO" style="shape=rhombus;perimeter=rhombusPerimeter;whiteSpace=wrap;html=1;align=center;" parent="WIyWlLk6GJQsqaUBKTNV-1" vertex="1">
          <mxGeometry x="130" y="470" width="120" height="60" as="geometry" />
        </mxCell>
        <mxCell id="YFUkzrrLF3I-iqkjs7c8-14" value="" style="endArrow=none;html=1;rounded=0;exitX=1;exitY=0.5;exitDx=0;exitDy=0;entryX=0;entryY=0.5;entryDx=0;entryDy=0;" parent="WIyWlLk6GJQsqaUBKTNV-1" source="YFUkzrrLF3I-iqkjs7c8-6" target="YFUkzrrLF3I-iqkjs7c8-10" edge="1">
          <mxGeometry relative="1" as="geometry">
            <mxPoint x="150" y="270" as="sourcePoint" />
            <mxPoint x="310" y="270" as="targetPoint" />
          </mxGeometry>
        </mxCell>
        <mxCell id="YFUkzrrLF3I-iqkjs7c8-15" value="N" style="resizable=0;html=1;whiteSpace=wrap;align=right;verticalAlign=bottom;" parent="YFUkzrrLF3I-iqkjs7c8-14" connectable="0" vertex="1">
          <mxGeometry x="1" relative="1" as="geometry" />
        </mxCell>
        <mxCell id="YFUkzrrLF3I-iqkjs7c8-16" value="" style="endArrow=none;html=1;rounded=0;exitX=1;exitY=0.5;exitDx=0;exitDy=0;entryX=0;entryY=0.5;entryDx=0;entryDy=0;" parent="WIyWlLk6GJQsqaUBKTNV-1" source="YFUkzrrLF3I-iqkjs7c8-10" target="-7ogj3lLt3KueImvbJzr-26" edge="1">
          <mxGeometry relative="1" as="geometry">
            <mxPoint x="180" y="360" as="sourcePoint" />
            <mxPoint x="340" y="400" as="targetPoint" />
          </mxGeometry>
        </mxCell>
        <mxCell id="YFUkzrrLF3I-iqkjs7c8-17" value="N" style="resizable=0;html=1;whiteSpace=wrap;align=right;verticalAlign=bottom;" parent="YFUkzrrLF3I-iqkjs7c8-16" connectable="0" vertex="1">
          <mxGeometry x="1" relative="1" as="geometry" />
        </mxCell>
        <mxCell id="YFUkzrrLF3I-iqkjs7c8-18" value="&lt;span style=&quot;border-bottom: 1px dotted&quot;&gt;nome&amp;nbsp;&lt;/span&gt;" style="ellipse;whiteSpace=wrap;html=1;align=center;" parent="WIyWlLk6GJQsqaUBKTNV-1" vertex="1">
          <mxGeometry x="-120" y="410" width="100" height="40" as="geometry" />
        </mxCell>
        <mxCell id="YFUkzrrLF3I-iqkjs7c8-19" value="telefone" style="ellipse;whiteSpace=wrap;html=1;align=center;" parent="WIyWlLk6GJQsqaUBKTNV-1" vertex="1">
          <mxGeometry x="-50" y="410" width="100" height="40" as="geometry" />
        </mxCell>
        <mxCell id="YFUkzrrLF3I-iqkjs7c8-20" value="" style="endArrow=none;html=1;rounded=0;exitX=0.5;exitY=1;exitDx=0;exitDy=0;entryX=0;entryY=0.5;entryDx=0;entryDy=0;" parent="WIyWlLk6GJQsqaUBKTNV-1" source="YFUkzrrLF3I-iqkjs7c8-18" target="YFUkzrrLF3I-iqkjs7c8-6" edge="1">
          <mxGeometry relative="1" as="geometry">
            <mxPoint x="-240" y="499.55" as="sourcePoint" />
            <mxPoint x="-80" y="499.55" as="targetPoint" />
          </mxGeometry>
        </mxCell>
        <mxCell id="YFUkzrrLF3I-iqkjs7c8-21" value="" style="endArrow=none;html=1;rounded=0;exitX=0.5;exitY=1;exitDx=0;exitDy=0;entryX=0;entryY=0.5;entryDx=0;entryDy=0;" parent="WIyWlLk6GJQsqaUBKTNV-1" source="YFUkzrrLF3I-iqkjs7c8-19" target="YFUkzrrLF3I-iqkjs7c8-6" edge="1">
          <mxGeometry relative="1" as="geometry">
            <mxPoint x="-180" y="470" as="sourcePoint" />
            <mxPoint x="-60" y="550" as="targetPoint" />
          </mxGeometry>
        </mxCell>
        <mxCell id="YFUkzrrLF3I-iqkjs7c8-22" value="" style="endArrow=none;html=1;rounded=0;exitX=1;exitY=0.5;exitDx=0;exitDy=0;entryX=0;entryY=0.5;entryDx=0;entryDy=0;" parent="WIyWlLk6GJQsqaUBKTNV-1" source="-7ogj3lLt3KueImvbJzr-26" target="-7ogj3lLt3KueImvbJzr-32" edge="1">
          <mxGeometry relative="1" as="geometry">
            <mxPoint x="364" y="460" as="sourcePoint" />
            <mxPoint x="524" y="460" as="targetPoint" />
          </mxGeometry>
        </mxCell>
        <mxCell id="YFUkzrrLF3I-iqkjs7c8-23" value="N" style="resizable=0;html=1;whiteSpace=wrap;align=right;verticalAlign=bottom;" parent="YFUkzrrLF3I-iqkjs7c8-22" connectable="0" vertex="1">
          <mxGeometry x="1" relative="1" as="geometry" />
        </mxCell>
        <mxCell id="YFUkzrrLF3I-iqkjs7c8-24" value="" style="endArrow=none;html=1;rounded=0;exitX=0.5;exitY=1;exitDx=0;exitDy=0;entryX=1;entryY=0;entryDx=0;entryDy=0;" parent="WIyWlLk6GJQsqaUBKTNV-1" source="UjdntKOgG5J3AkndgqJL-0" target="YFUkzrrLF3I-iqkjs7c8-5" edge="1">
          <mxGeometry relative="1" as="geometry">
            <mxPoint x="160" y="330" as="sourcePoint" />
            <mxPoint x="320" y="330" as="targetPoint" />
          </mxGeometry>
        </mxCell>
        <mxCell id="YFUkzrrLF3I-iqkjs7c8-25" value="N" style="resizable=0;html=1;whiteSpace=wrap;align=right;verticalAlign=bottom;" parent="YFUkzrrLF3I-iqkjs7c8-24" connectable="0" vertex="1">
          <mxGeometry x="1" relative="1" as="geometry" />
        </mxCell>
        <mxCell id="YFUkzrrLF3I-iqkjs7c8-26" value="" style="endArrow=none;html=1;rounded=0;exitX=0;exitY=1;exitDx=0;exitDy=0;entryX=0.5;entryY=0;entryDx=0;entryDy=0;" parent="WIyWlLk6GJQsqaUBKTNV-1" source="YFUkzrrLF3I-iqkjs7c8-5" target="YFUkzrrLF3I-iqkjs7c8-6" edge="1">
          <mxGeometry relative="1" as="geometry">
            <mxPoint x="70" y="280" as="sourcePoint" />
            <mxPoint x="10" y="355" as="targetPoint" />
          </mxGeometry>
        </mxCell>
        <mxCell id="YFUkzrrLF3I-iqkjs7c8-27" value="N" style="resizable=0;html=1;whiteSpace=wrap;align=right;verticalAlign=bottom;" parent="YFUkzrrLF3I-iqkjs7c8-26" connectable="0" vertex="1">
          <mxGeometry x="1" relative="1" as="geometry" />
        </mxCell>
      </root>
    </mxGraphModel>
  </diagram>
</mxfile>
